<?xml version="1.0" encoding="utf-8"?><!-- Generator: Adobe Illustrator 28.2.0, SVG Export Plug-In . SVG Version: 6.00 Build 0)  --><svg xmlns="http://www.w3.org/2000/svg" xmlns:xlink="http://www.w3.org/1999/xlink" version="1.1" id="Layer_1" x="0px" y="0px" viewBox="0 0 1024 1024" style="enable-background:new 0 0 1024 1024;" xml:space="preserve">
<style type="text/css">
	.st0{fill:#fcc488}
</style>
<path class="st0" d="M845.32,257.5c1.45,14.47-2.47,28.33-7.42,41.53c-4.97,13.26-12.76,25.46-22.4,35.99  c-11.63,12.69-25.75,21.84-42,28.05c-35.54,13.6-69.83,10.4-102.91-7.19c-18.49-9.83-31.66-25.26-41.59-43.58  c-8.92-16.45-14.17-33.78-14.44-52.66c-0.34-23.85,5.39-45.89,18.93-65.56c14.84-21.56,34.83-37,59.6-45.25  c23.32-7.76,47.3-8.7,71.04-1.43c17.54,5.37,32.79,14.98,46.38,27.3c21.26,19.27,31.14,44.02,34.74,71.78  C845.72,250.07,845.32,253.77,845.32,257.5z" style="stroke: black; stroke-width: 2;"/>
</svg>