<?xml version="1.0" encoding="utf-8"?>
<!-- Generator: Adobe Illustrator 28.2.0, SVG Export Plug-In . SVG Version: 6.00 Build 0)  -->
<svg version="1.1" id="Layer_1" xmlns="http://www.w3.org/2000/svg" xmlns:xlink="http://www.w3.org/1999/xlink" x="0px" y="0px"
	 viewBox="0 0 1024 1024" style="enable-background:new 0 0 1024 1024;" xml:space="preserve">
<style type="text/css">
	.st0{fill:none;}
	.st1{fill:url(#coin_00000148638499990565032980000002080214273549528449_);}
	.st2{fill:#FFFFFF;}
</style>
<g>
	<path class="st0" d="M2.8,2.7c2.6-3,9-3.2,13.7-3.2c334,3.2,671.2-6.2,1003.7,3.2c9.4,333.4,0.1,671.5,3.2,1006.3
		c-0.2,9.8-3.4,14.6-14.4,14.4c-334.8-3.2-672.9,6.2-1006.3-3.2c-9.4-332.5,0-669.7-3.2-1003.7c0-4.7,0.2-11.1,3.2-13.7L2.8,2.7z"/>
</g>
<g id="g16" transform="scale(0.015625)">
	
		<linearGradient id="coin_00000072983187598797175470000017140638191856560777_" gradientUnits="userSpaceOnUse" x1="4092.1096" y1="-4126418.75" x2="4092.1096" y2="-4126418.5" gradientTransform="matrix(7.9991 0 0 8.0001 0.2227 33030474)">
		<stop  offset="0" style="stop-color:#F9AA4B"/>
		<stop  offset="1" style="stop-color:#F7931A"/>
	</linearGradient>
	<path id="coin" style="fill:url(#coin_00000072983187598797175470000017140638191856560777_);" d="M35671.1,22555
		c-404.5,1622.4-2047.7,2609.8-3670.3,2205.2c-1621.9-404.5-2609.3-2047.8-2204.6-3670.1c404.3-1622.6,2047.5-2610.1,3669.6-2205.6
		C35088.3,19289,36075.6,20932.5,35671.1,22555L35671.1,22555z"/>
	<path id="symbol" class="st2" d="M34068.4,21391c60.3-403-246.5-619.6-666.1-764.1l136.1-545.9l-332.3-82.8l-132.5,531.5
		c-87.4-21.8-177.1-42.3-266.2-62.7l133.4-535l-332.1-82.8l-136.2,545.7c-72.3-16.5-143.3-32.7-212.2-49.9l0.4-1.7l-458.2-114.4
		l-88.4,354.9c0,0,246.5,56.5,241.3,60c134.6,33.6,158.9,122.7,154.8,193.3l-155,621.9c9.3,2.4,21.3,5.8,34.5,11.1
		c-11.1-2.7-22.9-5.8-35.1-8.7l-217.3,871.2c-16.5,40.9-58.2,102.2-152.3,78.9c3.3,4.8-241.5-60.3-241.5-60.3l-165,380.4
		l432.4,107.8c80.4,20.2,159.3,41.3,236.9,61.1l-137.5,552.1l331.9,82.8l136.2-546.3c90.7,24.6,178.7,47.3,264.8,68.7l-135.7,543.7
		l332.3,82.8l137.5-551.1c566.6,107.2,992.7,64,1172-448.5c144.5-412.6-7.2-650.6-305.3-805.9
		C33861.2,21828.8,34024.7,21686,34068.4,21391L34068.4,21391z M33309.2,22455.6c-102.7,412.6-797.4,189.6-1022.7,133.6l182.5-731.5
		C32694.2,21914,33416.5,22025.3,33309.2,22455.6z M33411.9,21385c-93.7,375.3-671.9,184.6-859.5,137.9l165.4-663.4
		C32905.4,20906.2,33509.5,20993.5,33411.9,21385z"/>
</g>
</svg>
