<?xml version="1.0" encoding="utf-8"?>
<!-- Generator: Adobe Illustrator 28.2.0, SVG Export Plug-In . SVG Version: 6.00 Build 0)  -->
<svg version="1.1" id="Layer_1" xmlns="http://www.w3.org/2000/svg" xmlns:xlink="http://www.w3.org/1999/xlink" x="0px" y="0px"
	 viewBox="0 0 1024 1024" style="enable-background:new 0 0 1024 1024;" xml:space="preserve">
<style type="text/css">
	.st0{fill:none;}
	.st1{fill:#ED10CC;}
	.st2{fill:#16D4D0;}
	.st3{fill:#43D124;}
</style>
<g>
	<path class="st0" d="M2.8,2.7c2.6-3,9-3.2,13.7-3.2c334,3.2,671.2-6.2,1003.7,3.2c9.4,333.4,0.1,671.5,3.2,1006.3
		c-0.2,9.8-3.4,14.6-14.4,14.4c-334.8-3.2-672.9,6.2-1006.3-3.2c-9.4-332.5,0-669.7-3.2-1003.7c0-4.7,0.2-11.1,3.2-13.7L2.8,2.7z"/>
</g>
<path class="st1" d="M496.6,305.4c1.2,8.7,0.7,17.7-1.7,26.4c-3.1,11.5-9,21.7-17.2,29.9c0,0,0,0,0,0l9.5,9.5
	c7.8-7.7,13.9-17,17.9-27.4c1.1-2.8,2-5.6,2.8-8.5c0.7-2.5,1.2-5.1,1.6-7.6c-0.2-0.2-0.3-0.4-0.5-0.6
	C503.7,320.4,499.5,313.2,496.6,305.4"/>
<path class="st2" d="M547.2,338.4c-8.2-3.3-15.6-8.2-22.1-14.7c-8.4-8.4-14.3-18.7-17.3-29.9h0l-12.9,3.5
	c2.8,10.6,7.8,20.5,14.8,29.2c1.9,2.3,3.9,4.6,6,6.7c1.8,1.8,3.8,3.6,5.8,5.2c0.3,0,0.5-0.1,0.8-0.1C530.6,337,539,337,547.2,338.4"
	/>
<path class="st3" d="M555,341c-10.6-2.9-21.7-3.5-32.6-1.8c-2.9,0.4-5.9,1.1-8.8,1.8c-2.5,0.7-5,1.5-7.4,2.4
	c-0.1,0.3-0.2,0.5-0.3,0.8c-3.1,7.9-7.3,15.1-12.6,21.6c6.9-5.4,15-9.4,23.7-11.8c11.5-3.1,23.3-3,34.5,0h0L555,341
	C555,341,555,341,555,341"/>
</svg>
