<?xml version="1.0" encoding="utf-8"?>
<!-- Generator: Adobe Illustrator 28.2.0, SVG Export Plug-In . SVG Version: 6.00 Build 0)  -->
<svg version="1.1" id="Layer_1" xmlns="http://www.w3.org/2000/svg" xmlns:xlink="http://www.w3.org/1999/xlink" x="0px" y="0px"
	 viewBox="0 0 1024 1024" style="enable-background:new 0 0 1024 1024;" xml:space="preserve">
<g transform="translate(0.000000,3000.000000) scale(0.100000,-0.100000)">
	<path d="M9791.5,20969.9c0-1,0.4-1.6,0.7-1.4c0.4,0.3,0.7,1.1,0.7,1.8s-0.4,1.3-0.7,1.3S9791.5,20970.8,9791.5,20969.9z"/>
	<path d="M9790.7,20966.1c-0.3-0.5-0.3-0.9,0.2-0.9c0.4,0,0.1-0.5-0.6-0.9c-0.7-0.5-0.9-0.9-0.4-0.9c1.3,0,2.2-5.4,1.1-6.1
		c-0.4-0.3-0.7-1.4-0.7-2.6c0-1.1-0.5-2.5-1.1-3.1c-0.8-0.8-0.7-1.6,0.2-3.4c0.6-1.3,1-2.6,0.6-2.9c-0.3-0.4-0.2-1.4,0.4-2.3
		c0.7-1.5,0.6-1.8-1.2-1.8c-1.6,0-1.8-0.3-0.8-0.8c1.6-1,2.3-6.5,0.9-6.5c-0.7,0-0.7-0.4,0-1.2c0.6-0.7,0.7-1.6,0.4-1.9
		c-0.4-0.3-0.6-2.3-0.6-4.3c0-2.3-0.5-4-1.2-4.2c-0.8-0.3-1-0.9-0.5-1.9c0.4-0.9,0.6-2.1,0.4-2.8c-0.3-0.6,0.1-1.8,0.6-2.5
		c0.9-1.1,0.8-1.4-0.4-1.4s-1.4-0.6-0.9-3.4c0.9-5.3,0.7-8.9-0.5-9.3c-0.6-0.2-1-1.2-1-2.2c0-1.5,0.3-1.7,1.3-0.8
		c1,0.8,1.2,0.5,1.1-1.9c-0.1-1.7-0.6-3.5-1.4-4.1c-1-0.8-1-1.4-0.1-3c0.6-1.2,0.7-1.9,0.2-1.6c-0.5,0.3-1.1-0.1-1.5-0.8
		c-0.3-0.7-0.2-1.4,0.3-1.4c1.1,0,0.9-3-0.3-4.5c-0.8-1.1-0.7-1.2,0.4-0.6c0.7,0.4,0.6,0-0.5-0.9c-1.8-1.5-1.8-1.5,0.1-1.1
		c1.2,0.3,1.9,0,1.9-0.7s-0.4-1.3-0.8-1.3s-0.6-0.5-0.3-0.9c0.3-0.6-0.1-1.2-0.9-1.5c-1.1-0.5-1.3-0.8-0.4-1.3
		c1.4-0.9,1.9-5.2,0.7-6c-0.5-0.3-0.6,0.2-0.2,1c0.4,1.1,0.3,1.4-0.6,0.9c-0.6-0.5-0.8-1.8-0.5-3.9c0.4-2.2,0.3-3.1-0.6-3.1
		c-0.6,0-0.9-0.7-0.6-1.8c0.3-1,0.1-2.1-0.4-2.4c-0.5-0.3-0.6-0.8-0.4-1.3c0.3-0.5,0.1-1-0.4-1.4c-0.6-0.3-0.6-1.4-0.2-2.5
		c0.8-2.4,0.2-6.3-1.1-6.3c-0.5,0-0.2-0.9,0.8-2c0.9-1.1,1.3-1.7,0.6-1.4c-1.5,0.9-2.2-0.6-1.1-2.1c0.6-0.9,0.8-1,0.8-0.2
		c0,0.6,0.5,1.1,1.1,1.1c0.6,0,0.4-0.7-0.6-1.8c-1-1.1-1.7-3.3-1.8-6c0-2.7-0.5-4.1-1.2-4.1c-1.7,0-1.5-1.8,0.2-2.4
		c1.4-0.6,1.8-3.2,0.7-4.4c-0.9-0.9-1-4.2-0.1-4.2c0.5,0,0-1.1-0.8-2.5c-0.9-1.4-1.6-2.6-1.4-2.8c0.3-0.4-0.7-5-1.7-7.4
		c-0.5-1.2-0.6-2.1-0.1-2.1s1-0.8,1.3-1.8c0.3-1.2,0.1-1.7-0.6-1.2c-0.6,0.4-0.7-0.2-0.5-1.4c0.4-1.1,0.1-2.3-0.4-2.7
		c-0.6-0.4-0.7-0.1-0.3,0.7c0.5,0.7,0.4,1-0.1,0.6c-0.5-0.5-0.9-2.1-1-3.7c-0.6-7.1-1.2-10-2.5-11.2c-0.7-0.7-1.2-2.1-1-2.9
		c0.2-0.9,0.4-2,0.4-2.4c0.1-0.5,0.6-0.5,1-0.2c1.5,0.9,1.1-2.9-0.4-4.1c-0.7-0.6-1.1-1.7-0.8-2.4c0.3-0.8-0.1-1.3-1-1.3
		c-1.3,0-1.4-0.4-0.6-1.8c0.6-1.1,0.6-1.8,0.1-1.8c-0.9,0-0.8-1.3,0.4-4.1c0.5-1.1,0.3-1.9-0.6-2.5c-0.7-0.5-1-0.8-0.7-0.8
		c0.4,0,0.1-2.8-0.6-6.2c-0.7-3.9-0.8-6.8-0.4-7.8c0.6-1.1,0.4-1.9-1-2.9c-1.2-0.8-1.9-2.6-2.1-4.7c-0.2-1.9-0.9-3.9-1.7-4.4
		c-1-0.6-1-1-0.1-1.4c0.6-0.2,0.8-0.9,0.5-1.5s0-0.7,0.9-0.4c1.5,0.6,1.5,0.4,0.2-2.1c-0.7-1.5-1.4-3.5-1.4-4.5s-0.7-2.3-1.6-2.8
		c-1.1-0.6-1.3-1.2-0.6-1.7c0.6-0.5,0.9-2.6,0.8-4.9c-0.1-2.3,0.3-4.7,0.8-5.4c0.8-1.1,0.7-1.1-1,0c-2.7,1.6-3.8,0.5-1.6-1.7
		c1.6-1.6,1.6-1.7,0-1.9c-1.5-0.4-1.5-0.5,0-2.8c0.8-1.4,1.2-2.2,0.8-1.8c-0.4,0.4-1.3,0-2-0.9c-0.7-0.8-1.1-1-0.7-0.4
		c0.3,0.6,0.1,1.1-0.4,1.1c-1.6,0-1.2-1.8,0.4-2.4c0.9-0.4,1.1-1,0.6-1.7c-0.5-0.6-0.7-3.4-0.6-6.3c0.2-3.9-0.1-5.3-1.1-5.7
		c-0.8-0.4-1.2-1.2-0.8-2c0.3-0.7,0.2-1.2-0.3-0.9c-0.5,0.3-1-0.3-1.3-1.3c-0.3-1,0-1.8,0.6-1.8c0.7,0,0.6-0.4-0.2-0.8
		c-0.6-0.5-1-1.2-0.6-1.8c0.3-0.6-0.2-1.4-1-1.9c-1.6-0.9-1.6-0.9,0.1-1c1.8,0,1.8,0,0-1.5c-0.9-0.7-1.2-1.2-0.6-0.8
		c0.6,0.3,1.1,0,1.1-0.7s-0.6-1.7-1.4-1.9c-1.5-0.6-1.6-3.7-0.1-6c0.5-0.7,0.4-1.5-0.4-1.9c-0.6-0.4-0.8-1.2-0.5-1.8
		c0.5-0.8,0.4-1-0.3-0.6c-0.8,0.5-1.1-0.6-1.2-3.8c-0.1-2.4-0.1-4.8,0-5.2c0.1-0.4-0.6-1.3-1.5-1.9s-1.4-1.6-1-1.9
		c0.4-0.4,0.2-1.3-0.5-2c-0.9-1.2-0.8-1.3,0.3-0.6c1.1,0.6,1.2,0.5,0.3-0.5c-0.7-0.7-0.8-1.8-0.3-2.8c0.6-1.3,0.6-3.7,0-5.5
		c-0.1-0.3-0.2-0.7-0.1-1.1c0-0.5-0.5-0.7-1.2-0.7c-1.5,0-1.7-3.4-0.5-5.2c0.9-1.1,0-5-1.2-5c-0.5,0-0.4-0.9,0.3-1.9
		c0.6-1.1,0.6-1.8,0.1-1.4c-0.5,0.3-1.4-0.1-2-0.8c-0.8-1-0.8-1.4-0.1-1.4c1.9,0-1.7-17-3.9-18.5c-0.5-0.4-0.4-1.5,0.2-2.6
		c0.6-1.1,0.7-2.5,0.4-3.1c-0.4-0.6-0.7-1.7-0.9-2.4c-0.1-0.7-0.5-1.6-0.9-1.8c-1.3-1-1.2-2.9,0.2-2.9c1.1,0,1-0.5-0.3-2.8
		c-1.4-2.5-1.4-2.9-0.2-3.7c1.2-0.7,1.1-0.9-0.2-0.9c-1.8,0-2.3-1.8-0.5-1.8c0.6,0,0.7-0.3,0.2-0.7c-0.5-0.4-1-1-1-1.6
		c-0.1-0.5-0.5-1.9-0.8-3.1c-0.5-1.5-0.4-1.9,0.4-1.6c0.6,0.4,1,0,1-0.7c0-3.4-5-0.8-5.2,2.7c-0.1,1-0.6,3.1-1.3,4.6
		c-0.6,1.6-1,3.1-0.9,3.6c0.1,0.5-0.5,0.6-1.3,0.2c-1-0.4-1.3-0.2-0.7,0.6c1.1,1.8,0.8,7.1-0.4,7.1c-1.1,0-1.6,1.2-1.3,3
		c0,0.4-0.3,0.6-0.8,0.6c-0.5,0-0.6,0.6-0.3,1.6c0.4,1,0.3,1.3-0.5,0.8c-0.7-0.5-1.1,0.1-1.1,1.7c0,1.3-0.5,2.4-1,2.4
		c-0.6,0-0.8,0.8-0.5,2.2c0.4,1.5,0.1,2.4-0.9,2.8c-0.7,0.3-1.2,0.9-0.9,1.4c0.4,0.5,0.2,1.9-0.4,3.2c-0.6,1.7-0.6,2.4,0.2,2.4
		c0.6,0,0.3,0.9-0.7,2c-0.9,1.1-1.2,1.7-0.6,1.3c0.8-0.5,1-0.2,0.6,0.7c-0.3,0.8-1.1,1.5-1.7,1.5c-0.6,0-1.6,1.6-2,3.5
		c-0.6,2.1-1.6,3.8-2.9,4.3c-1.2,0.5-2.1,1.5-2.1,2.1s0.4,0.9,0.9,0.6c0.6-0.3,0.6,0.1,0.4,0.9c-0.4,0.8-1.1,1.3-1.7,1
		c-0.7-0.3-1,0.4-0.8,1.8c0.1,1.3-0.5,2.6-1.3,3.1c-0.9,0.5-1.2,0.9-0.7,0.9c0.6,0-0.1,0.9-1.3,2c-1.3,1.2-1.8,2.1-1.1,2.4
		c1.2,0.4,1.6,2.1,0.4,1.7c-0.9-0.2-8.4,7.4-10.1,10.4c-0.9,1.5-0.9,1.8-0.1,1.4c0.7-0.5,0.9-0.4,0.5,0.4c-0.4,0.6-1.2,1-1.7,0.9
		c-3.7-0.5-5.2,0.2-4.8,1.9c0.3,1.3,0,1.7-0.7,1.2c-2-1.3-3.6-1.1-3,0.3c0.3,0.8,0.1,1.1-0.4,0.8c-0.6-0.3-0.9,0-0.9,0.6
		c-0.1,0.7-0.6,0.6-1.4-0.6c-1.2-1.6-1.4-1.6-1.4-0.4c0,0.8-0.5,1.8-1.1,2.2c-0.6,0.5-0.7,0.3-0.3-0.6c0.6-1,0.6-1-0.8,0.1
		c-1.5,1.1-1.7,1.1-2.5-0.1c-0.5-0.9-1.8-1.4-3.6-1.3c-2.3,0.2-2.8-0.2-2.8-2c0-1.1-0.4-2.1-0.9-2.1c-0.5,0-0.9-0.6-0.9-1.4
		c0-1-0.5-1.1-2.1-0.6c-1.8,0.6-2.4,0.5-3.4-1.1c-1.1-1.8-1.1-1.9,0.3-0.7c1,0.8,1.6,0.9,1.7,0.2c0.3-1.9,0.4-2.4,1.2-3.6
		c0.5-0.7,0.2-1.7-0.7-2.3c-1.4-1.1-1.6-2.9-0.3-5c0.4-0.6,0.1-1.3-0.5-1.6c-0.8-0.3-0.7-0.7,0.5-1.5c1.9-1.2,2-2.8,0.2-2.8
		c-0.7,0-1.4-0.8-1.4-1.8c0-1,0.5-1.8,1-1.8c0.7,0,0.7-0.5-0.1-1.4c-0.9-1.1-0.9-1.4,0-1.4s0.9-0.3,0-1.4c-0.8-1-0.9-1.4-0.1-1.4
		c0.7,0,0.9-0.7,0.6-1.8c-0.3-1-0.8-2.9-1-4.3c-0.3-1.5-0.9-2.8-1.4-2.9c-0.5-0.2-0.6-1.8-0.3-3.5c0.3-1.8,0.2-3.1-0.3-3.1
		s-0.9-0.6-0.9-1.4s0.6-1.4,1.3-1.4c1.1,0,1-0.4-0.1-2c-1.8-2.5-1.9-3.9-0.3-2.9c0.8,0.6,0.8,0.4,0.1-0.6c-0.6-0.7-0.7-2.1-0.4-3.1
		c0.4-1.1,0.3-2.4-0.4-3.2c-0.6-0.7-1.6-2.5-2.2-3.9c-0.9-2.1-0.8-2.6,0.3-2.6s1.1-0.5,0.3-2.3c-0.6-1.2-1.5-1.9-2-1.7
		c-0.6,0.4-0.5,0,0.2-0.8c1.4-1.8,1.1-3.9-1-8c-0.8-1.7-1.6-4.1-1.6-5.3s-0.4-2-0.8-1.7c-0.5,0.3-1.2,0-1.6-0.6
		c-0.3-0.6-0.1-1.4,0.6-1.8c1.6-0.9,0.4-9.2-1.3-9.2c-1.5,0-1.3-3,0.3-5c1-1.2,1-1.8,0-3c-1.1-1.4-1.1-1.5,0.6-0.8
		c1.7,0.6,1.6,0.5-0.3-1.4c-1.8-1.7-2.1-2.7-1.7-6c0.3-2.9,0-4.1-0.9-4.5c-1-0.3-1.2-1.3-0.7-3.2c0.4-1.6,0.2-2.8-0.3-2.8
		c-1.2,0-2-3.6-1-4.2c0.5-0.3,0.6-0.8,0.5-1.2c-1-1.6-1.3-5.6-0.5-5.6c0.6,0,0.6-0.6,0-1.7c-0.6-0.9-0.6-1.9-0.4-2.3
		c0.4-0.3-0.2-1.2-1.2-2c-0.9-0.7-1.1-1.1-0.4-0.7c1.2,0.6,1.2,0.5,0.2-0.7c-0.8-1-1-2.8-0.7-4.8c0.3-1.8,0.2-3.3-0.2-3.3
		c-0.5,0-0.8-0.6-0.8-1.4s0.3-1.4,0.6-1.4s0.4-1.9,0-4.3c-0.5-2.5-0.6-4.7-0.3-5.1c0.2-0.5-0.1-0.7-0.6-0.7s-0.9-0.9-0.8-2
		c0.1-1.2-0.2-2.9-0.6-3.9c-0.6-1.2-0.4-1.9,0.3-2.2c0.6-0.2,0.8-0.7,0.6-1.2c-0.3-0.6,0-1.6,0.7-2.4c0.6-0.8,0.7-1.3,0.2-0.9
		c-0.6,0.4-1.6,0-2.1-0.6c-0.7-0.9-0.8-1.5-0.2-1.9c0.7-0.4,0.6-1.4-0.2-3c-1.3-2.8-1.4-4.7-0.4-6.4c0.5-0.7,0.3-1.2-0.3-1.2
		c-0.6,0-0.8-0.7-0.5-1.8c0.3-1,0.1-2-0.5-2.4c-0.6-0.4-0.2-1.3,1.1-2.4c1.3-1,1.6-1.7,0.7-1.6c-0.7,0.2-1.4-0.1-1.4-0.6
		c-0.1-0.5-0.5-1.7-0.9-2.6c-0.5-1.1-0.2-2.2,0.8-3.3c1.1-1.2,1.3-1.9,0.6-2.4c-0.6-0.3-0.8-1.8-0.6-3c0.3-1.4,0-3-0.6-3.7
		c-0.5-0.6-0.6-1.4-0.4-1.7c0.3-0.3-0.1-1.6-0.7-2.9c-0.9-1.7-1-2.9-0.4-4.1c1.7-3.1,1.8-5.3,0.2-5.3c-1.2,0-1.2-0.3-0.3-1.4
		c1.2-1.5,0.6-4.6-0.8-3.8c-0.5,0.3-1.4-0.2-2-1.1c-1.2-1.4-1.1-1.5,0.3-0.3c1.4,1,1.7,1,2.2-0.4c0.5-1.2,0.8-1.3,1.4-0.3
		c0.6,0.9,0.8,0.9,0.8,0c0-0.6-0.6-1.4-1.4-1.7c-1-0.5-1.2-1.7-0.9-5.1c0.4-3.6,0.2-4.5-0.9-4.5c-0.7,0-1.1-0.6-0.8-1.3
		s1.2-1.1,2.3-0.8c1.6,0.5,1.7,0.3,0.8-2c-1.1-2.9-0.9-7.8,0.4-7.8c0.5,0,0.1-0.6-0.8-1.3c-1.4-1-1.6-1.6-0.6-2.6
		c0.8-1,0.8-1.6-0.1-2.6c-0.9-0.9-0.8-1,0.3-0.5c1.1,0.6,1.2,0.6,0.3-0.6c-0.6-0.7-0.9-1.7-0.6-1.9c0.3-0.4,0.1-0.6-0.6-0.6
		s-0.9-0.4-0.6-0.8c1.1-1.8-3.9-10.1-5.7-9.6c-0.6,0.2-1.3-0.1-1.7-0.6c-0.4-0.7-1.1-0.7-2.5,0c-1.5,0.8-2.1,0.6-3.2-0.9
		c-0.9-1.4-1.7-1.8-2.9-1.1c-1.7,0.8-4.1,0.4-3.6-0.6c0.2-0.4-0.4-1.4-1.4-2.2c-0.9-0.9-1.7-1.5-1.7-1.2c0,0.2-1,0-2.2-0.5
		c-1.4-0.5-2.5-0.5-3.2,0.3c-0.7,0.7-1,0.7-1-0.2c0-0.6-0.4-0.9-0.8-0.6c-0.5,0.3-1-0.4-1.3-1.4s-1.4-2.1-2.4-2.4
		c-1.1-0.3-1.9-0.8-1.9-1.3c0-0.5-1.1-0.4-2.4,0.1c-1.9,0.7-2.3,0.6-2.1-0.7c0.3-3-0.1-3.7-2.1-3.3c-1.2,0.2-1.6,0.2-0.9-0.2
		c1.9-0.9,1.2-2.4-0.8-1.8c-1.4,0.5-1.7,0.4-1.4-0.4c0.4-0.6,0.2-1-0.4-1c-0.6,0-0.8-0.3-0.6-0.6c0.6-0.9-1.8-3.1-2.5-2.4
		c-0.8,0.8-3.4-1.7-2.9-2.9c0.2-0.6-1.1-2.5-2.9-4.2c-1.8-1.7-2.9-2.5-2.2-1.6c0.7,0.9,0.8,1.8,0.3,2c-1,0.6-1.5,0.1-2.2-3.1
		c-0.4-1.3-1.4-3.2-2.3-4.2c-2.4-2.5-4.1-5.8-3.5-6.6c0.3-0.5-0.8-0.6-2.5-0.4c-2.2,0.2-2.6,0.1-1.6-0.6c1.1-0.7,1.1-1.2,0.2-2.1
		c-0.8-0.8-1.1-0.8-1.1,0c0,0.6-0.5,1.1-0.9,1.1c-0.6,0-0.6-0.7,0.1-2c0.6-1.2,0.7-1.8,0.4-1.5c-1,1-3.1-2.1-3.2-4.5
		c0-1.2-0.4-2.1-0.9-2.1c-0.5,0-1.6-1.5-2.4-3.2c-1-2.1-2.1-3.2-3.5-3.3c-1.8,0-1.8-0.1-0.2-0.7c1.7-0.6,1.7-0.7,0.2-1.3
		c-1.1-0.5-1.5-1.2-1.1-2.1c0.6-1.4,0.4-1.4-1-0.3c-1,0.8-1.3,0.9-0.8,0.2c0.4-0.7,0.2-1.2-0.5-1.2c-0.8,0-0.8-0.3,0-1.3
		c0.8-1,0.8-1.5,0-1.9c-0.7-0.6-0.6-0.9,0.2-1.6c0.9-0.6,0.6-0.6-0.7-0.3c-1.6,0.5-2.1,0.2-2.1-0.7c0-0.8,0.6-1.7,1.2-1.8
		c0.6-0.3,0.2-0.6-1-0.6c-1.7-0.1-2.1-0.6-1.9-2.1c0.2-2-0.1-3.2-2.1-8.1c-0.5-1.3-0.8-2.5-0.7-2.7c0.1-0.2-0.5-0.7-1.3-1.2
		c-0.8-0.5-1.3-1.2-1-1.8c0.4-0.5,0-0.8-0.6-0.8c-1,0-0.9-0.2,0-0.8c0.9-0.6,0.7-0.9-0.9-1.4c-2-0.6-2-0.6-0.5-1.8
		c1.5-1.2,1.5-1.4,0.2-2.8c-0.8-0.8-1.3-1.8-1-2.3c0.3-0.5-0.1-1.3-0.8-1.9c-0.7-0.6-1.4-1.9-1.4-2.9s-0.6-2-1.3-2.4
		c-0.6-0.4-1.7-1.7-2.3-2.9c-1-1.8-0.9-2.4,0.6-3.6c0.9-0.7,1.1-1.1,0.6-0.7c-1.2,0.6-1.6-0.5-1.3-3.4c0.1-0.9-0.3-1.7-0.8-1.7
		s-0.7-0.5-0.5-1c0.4-0.6-0.1-1.6-1-2.3c-1.6-1.1-1.6-1.2-0.1-0.7c0.8,0.3,1.6,0.1,1.6-0.5c0-0.6-0.6-1-1.5-1
		c-1.3,0-1.3-0.2-0.3-1.5c1-1.3,1-1.7-0.2-2.6c-0.8-0.6-1.4-1.9-1.3-3s-0.2-1.8-0.6-1.6c-0.4,0.3-0.7-0.4-0.7-1.4
		c0-1.1,0.5-1.9,1-1.9c0.5,0,0.6,0.5,0.3,1.1s-0.3,0.7,0.5,0.4c0.8-0.6,0.8-1-0.1-2.1c-0.6-0.8-1-2.4-0.9-3.6c0.2-1.2,0-2.2-0.5-2.2
		c-0.4,0-1.3-0.8-1.8-1.8c-0.9-1.5-0.9-1.7,0.1-1.3c0.7,0.3,1.4-0.4,1.7-1.8s0-2.2-0.7-2.2c-0.6,0-0.9,0.5-0.6,1s0,0.5-0.7-0.2
		c-1-0.9-1-1.3-0.1-1.9c0.9-0.6,0.9-0.9-0.2-1.8c-1.3-1.1-1.3-1.4,0-2.6c0.9-1,1.1-1.8,0.5-2.5c-0.6-0.8-0.6-1.5,0.1-2.2
		c0.8-0.8,0.7-1.1-0.4-1.1c-0.9,0-1.3-0.7-1.2-2.3c0.2-1.3-0.1-2.3-0.5-2.3c-1.3,0-2.1-3.7-1.1-4.9c0.5-0.6,0.7-1.8,0.6-2.7
		c-0.2-0.9,0.2-1.7,0.7-1.7c0.7,0,0.6-0.4-0.2-0.8c-0.6-0.5-0.9-1.3-0.6-1.8c0.4-0.6,0.3-1-0.3-1c-0.9,0-0.7-3.7,0.3-5.3
		c0.4-0.6,0.2-1.1-0.4-1.1c-0.6,0-0.7-0.5-0.4-1.1c0.9-1.4,1-6.2,0.2-5.6c-0.5,0.2-0.8-0.7-0.8-2.2c-0.1-1.4-0.2-3.2-0.3-4
		c-0.1-0.7,0.3-1.9,0.6-2.5c0.5-0.6,0.6-2.2,0.3-3.4c-0.4-1.4-0.1-2.4,0.6-2.7c0.6-0.3,0.4-0.6-0.6-0.6c-2.2-0.1-1-1.9,1.3-1.9
		c0.9,0,1.7-0.4,1.7-0.8c0-0.5-0.6-0.7-1.5-0.6c-0.8,0-1.7-0.5-2-1.2c-0.2-0.7-0.1-1,0.4-0.7c0.5,0.3,0.8-1.4,0.9-3.6
		c0-2.6-0.3-3.8-0.9-3.4c-0.6,0.3-0.5,0,0.2-0.7c1.3-1.4,1.6-6.4,0.3-6.4c-0.8,0-0.7-5.1,0.3-9.1c0.3-1.3,0.2-2.7-0.3-3.2
		c-0.6-0.8-0.6-6.5-0.1-6.5c0.7,0,0.7-4.7,0-6.1c-0.6-1.2-0.6-1.8-0.1-1.8c1.5,0,2.2-4.2,1.1-6.3c-0.7-1.4-0.7-1.9,0.1-2.2
		c0.7-0.3,0.7-0.8,0-2.3c-0.8-1.5-0.8-2,0.1-2.4c0.6-0.3,1.1-2.1,1-4.9c0-2.5,0.3-5.4,0.6-6.4c0.5-1.3,0.2-2.7-0.6-4
		c-1.3-1.7-1.3-1.9,0.4-1.9c1.4,0,1.8-0.5,1.4-1.8c-0.3-1-0.2-2.6,0.2-3.4c1.1-2.8,1.2-8,0.2-9.9c-0.8-1.7-0.8-1.8,0.7-0.5
		s1.6,1.3,0.6-0.6c-1.4-2.5-1.4-3.3-0.2-2.6c0.6,0.3,0.6-0.1,0.4-0.9c-0.4-0.8,0.1-2.2,1-3.2c1.3-1.4,1.4-2.1,0.6-3.1
		c-0.8-1-0.7-1.4,0.3-1.8c0.7-0.3,1.2-1.3,1.1-2.2c-0.2-0.9,0-2.6,0.5-3.7c0.5-1.3,0.4-2.1-0.4-2.4c-0.7-0.3-0.4-1,0.9-1.9
		c1.5-1.1,1.8-2.1,1.6-4.2c-0.4-1.8-0.1-2.8,0.7-2.8s0.9-0.2,0.1-0.7c-0.7-0.5-0.7-1.1,0.2-2.4c0.7-0.9,1.7-1.4,2.3-1
		c0.6,0.5,0.8-0.2,0.4-1.9c-0.6-2-0.4-2.4,0.8-1.9c1.5,0.6,1.7-0.7,0.4-2.8c-0.5-0.7-0.3-1.2,0.6-1.2c0.8,0,1.5-0.7,1.5-1.8
		c0-1,0.6-2.4,1.4-3.1c1-1.1,1.1-1.5,0.3-1.8c-0.8-0.3-0.7-0.9,0.5-2c0.8-0.9,1.6-2,1.6-2.6s0.6-0.6,1.4,0.2c1.2,1,1.3,0.9,0.8-0.5
		c-0.5-1.1-0.1-2.1,1-2.9c0.9-0.7,1.5-1.3,1.1-1.3c-0.3,0-0.3-0.9,0.2-2c0.5-1.2,1.5-2.1,2.4-2.1s2.4-1.4,3.2-3
		c1-1.8,1.8-2.6,2.1-1.8c0.3,0.6,0.6,0.3,0.6-0.8c0.1-1.9,1-2.6,3-2.2c0.4,0,1.6-1.2,2.8-2.7c1.5-2,2.5-2.6,3.8-2.2
		c1,0.4,2.1,0.1,2.6-0.6c0.6-1.1,1.1-1.1,2.8-0.1c1,0.6,2.2,1,2.5,0.7c0.3-0.3,0-0.6-0.6-0.6c-1.8,0-1.2-1.6,0.8-2.1
		c1.1-0.3,1.7-0.3,1.4,0c-0.3,0.3,0.1,1.1,0.8,1.8c1.1,1,1.7,1,3.1,0.1c1.7-1,2.1-0.9,3.3,0.6c0.8,1,1.2,1.3,0.9,0.6
		c-0.5-0.9,0-1.2,1.9-0.9c1.5,0.1,2.9,0.6,3.3,1.2c0.5,0.6,0.7,0.2,0.7-0.6c0-0.9,0.6-1.7,1.5-1.7c1.1,0,1.3,0.3,0.6,1.2
		c-0.7,0.8-0.4,1.1,1.4,1.2c1.2,0.1,2.9,1,3.6,2.1c0.8,1.1,2.2,1.9,3.2,1.9c0.9,0,1.7,0.4,1.7,0.8c0,0.5,1,1.1,2.3,1.4
		c1.3,0.4,2.1,1,1.8,1.5c-0.4,0.6,0.1,1.2,0.8,1.5c0.8,0.3,1.3,0.8,1.1,1.2c-0.3,0.4,0.7,2.1,2.3,3.9c2.4,2.9,3.1,4.5,2.8,6.6
		c-0.1,0.5,0.3,0.6,0.7,0.3c0.5-0.3,1,0.2,1.4,1.1c0.3,0.8,1.4,2.9,2.4,4.6c1,1.7,1.6,3.5,1.3,4.1c-0.4,0.6-0.3,0.7,0.2,0.5
		c0.6-0.3,1.5-0.2,2.2,0.4c1.1,0.6,1.1,0.8-0.3,0.8c-1.6,0-1.6,0.1-0.2,1.5c0.8,0.8,1.3,2,1,2.7c-0.3,0.7,0.2,1,1.2,0.7
		c1.2-0.3,1.8,0.3,2.2,1.8c0.9,3.1,0.8,3.5-0.7,3.5c-1.1,0-1.1,0.3,0.2,1.8c0.8,1,1.9,1.6,2.4,1.3c0.6-0.3,0.6-0.1,0.3,0.5
		c-0.3,0.6,0.1,1.6,0.8,2.4c0.8,0.7,1,1.6,0.6,1.9c-1.4,0.8-0.2,3,1.8,3.7c1.5,0.5,1.7,0.8,0.7,1.9c-0.6,0.7-0.8,1.6-0.6,1.9
		c0.4,0.3,0.2,1.1-0.4,1.8c-0.8,0.9-0.7,1.2,0,1.2c0.6,0,0.8,0.5,0.6,0.9c-0.3,0.6-0.1,0.9,0.5,0.9c0.6,0,0.8,0.6,0.6,1.4
		c-0.4,1,0.3,1.6,2.2,1.9c2.3,0.6,2.6,0.8,1.7,2.3c-0.6,1.2-0.6,1.8,0,1.8c0.6,0,0.7,0.6,0.5,1.4c-0.4,0.7-0.1,1.9,0.5,2.7
		c0.6,0.6,0.6,1.6,0.3,1.9c-0.4,0.5,0.1,0.5,1,0.2c1.4-0.6,1.6-0.3,1.1,1.1c-1.2,3.8-1.3,5.6-0.2,5.3c0.6-0.1,1,0.6,0.8,1.8
		c-0.2,1.4,0.4,2.1,1.7,2.6c1.8,0.6,1.8,0.8,0.6,1.5c-1.8,1-1.1,3.3,1.7,5.6c1,0.9,1.4,1.6,0.8,1.7c-1.6,0-2.3,3.7-0.7,3.7
		c0.7,0,1.3,0.3,1.4,0.7c0,0.4,0.3,1.7,0.5,2.9s0.6,3.8,0.7,5.5c0.6,4.4,2.1,8.2,3.7,8.8c0.9,0.4,1.2,1.6,0.9,4.1
		c-0.2,2.5,0,3.5,0.6,3c0.6-0.4,0.9,0.1,0.7,1.1c-0.2,1,0.1,3.9,0.6,6.4c0.5,2.6,0.7,4.9,0.6,5.3c-0.1,0.4,0.4,0.6,1.1,0.6
		c0.6,0,1.5,0.8,1.7,1.8c0.3,1,0.2,1.8-0.2,1.8c-1.1,0-0.5,5,0.7,5.3c0.7,0.3,0.9-0.4,0.5-2c-0.4-1.8-0.2-2.4,0.8-2.4
		c0.7,0,1.6-0.6,1.9-1.4c0.3-0.7,0.2-1.4-0.2-1.4c-0.4,0-1.2-0.8-1.7-1.8c-0.9-1.5-0.8-1.7,0.7-1.3c1.7,0.5,1.8,0.2,1.6-2.6
		c-0.2-2.1,0.1-3,0.9-2.9c0.6,0.1,1.1-0.4,1.1-1s0.8-1.8,1.8-2.8c1.7-1.5,2.3-3.2,1.9-6.1c-0.2-0.6,0.2-0.9,0.7-0.6
		c0.5,0.3,1.5-0.6,2.2-2.2c1-1.9,1.1-2.8,0.4-2.8c-0.6,0-0.4-0.5,0.5-1c0.8-0.5,1.4-1.5,1.1-2.2c-0.4-0.8,0.3-1.7,1.6-2.2
		c1.2-0.6,1.6-0.9,0.8-1c-1.1,0-1.1-0.2-0.2-0.8c0.7-0.4,1.3-1.1,1.3-1.6c0.2-2.2,1-4,1.7-3.6c0.5,0.3,0.6-0.2,0.6-1.1
		c-0.2-0.8,1.2-2.8,2.9-4.2c2.4-2.1,2.9-2.9,1.9-3.5c-0.9-0.6-0.8-0.8,0.3-0.8c1.8,0,2.9-2.1,3.5-6c0.1-0.5,0.6-0.3,1.1,0.5
		c0.8,1.1,0.9,1,0.6-0.6c-0.4-1.6-0.1-1.8,1.1-1.5c1.3,0.6,1.3,0.4-0.1-1.3c-1.8-1.9-2.1-3.1-0.9-2.9c1.4,0.2,4.8-1.3,4.8-2.1
		c0-0.5,0.4-0.6,0.8-0.3c0.5,0.3,1.2-0.5,1.6-1.6c0.8-2.9,4.6-6.5,5.9-5.8c0.6,0.4,0.9,0.3,0.8-0.2c-0.4-1.9,0.2-3,1.5-3
		c0.8,0,1.7-0.6,1.9-1.3c0.9-2.4,11.3-8.8,14.3-8.8c1,0,1.8-0.6,1.8-1.5c0-0.7,0.4-1.1,0.9-0.8c0.5,0.3,0.6,0,0.4-0.7
		c-0.4-0.9,0.3-1.2,2.4-1.1c1.5,0.1,2.8-0.2,2.8-0.6c0-0.4,0.9-0.5,2-0.1c1.3,0.3,1.7,0.2,1.3-0.6c-0.4-0.6-0.2-1.1,0.4-1.1
		c0.6,0,0.8-0.4,0.6-0.8c-0.3-0.5,0.1-1,0.8-1.4c0.7-0.3,1.4,0,1.4,0.6c0,0.6,0.6,0.6,1.5-0.3c1.1-0.9,1.6-0.9,2.1,0
		c0.8,1.3,5.6,0.5,5.6-1c0-0.5,1.6-0.6,3.7-0.3c3,0.5,3.8,0.2,4.8-1.4c1.7-2.6,4-2.6,2.6,0.1c-0.6,1-0.8,2.1-0.6,2.5
		c0.3,0.3,0.6,0,0.6-0.6s0.5-0.8,1.1-0.4c0.6,0.4,2.4,0.6,3.9,0.4c1.6-0.2,2.4,0.1,2,0.7c-0.4,0.6,0.3,0.7,1.8,0.5
		c1.3-0.2,2.3,0,2.3,0.5c0,0.5,0.7,0.6,1.7,0.4c0.9-0.3,2,0,2.3,0.6c0.4,0.6,1.5,1,2.5,1c0.9,0,1.7,0.6,1.7,1.4c0,0.7,0.5,1.4,1,1.4
		c0.5,0,0.6,0.5,0.3,1.1c-0.4,0.6-0.3,0.7,0.4,0.4c0.6-0.3,1.8,0.5,2.8,1.8c1.7,2,1.9,2.1,2.4,0.7c0.6-1.4,0.8-1.4,1.5-0.3
		c0.5,0.7,0.6,1.7,0.4,2c-0.3,0.4,0.1,0.7,0.8,0.7c2.2,0,6.2,3.6,5.5,5.2c-0.4,0.9,0.2,1.6,1.5,1.9c1,0.3,1.9,0.9,1.9,1.4
		c0,0.5,0.5,0.6,0.9,0.3c0.6-0.3,0.9-0.1,0.9,0.4c0,3.3,1.6,4.9,3.7,3.8c0.8-0.5,1.9-0.6,2.3-0.2c0.4,0.4,0.2-0.3-0.4-1.4
		c-0.6-1.2-0.7-2.1-0.3-2.1c1.1,0,0.8-4-0.3-4.9c-0.6-0.6-0.6-0.9,0.3-1.3c0.6-0.2,1.1-0.9,1.1-1.7c0-0.6,0.6-1.7,1.4-2.3
		s1.1-1.5,0.8-1.9c-0.7-1.3,2.8-1,4.1,0.4c1,0.9,1.1,0.8,0.6-0.2c-0.5-0.8,0.1-0.7,1.7,0.4c1.6,1,2.2,2,1.8,2.9
		c-0.4,0.8-0.2,1.3,0.3,0.9c0.5-0.3,1.4,0.6,1.9,1.8c1,2.1,0.9,2.2-0.9,1.7c-2-0.6-2-0.6-0.2,0.8c1.5,1.2,1.7,1.8,0.8,3.2
		c-1.3,2.1-1,7.8,0.5,8.3c0.6,0.2,1,0.7,1,1.2c0,0.6-0.4,0.7-0.8,0.5c-0.5-0.3-0.6,1.4-0.3,3.6c0.4,3.4,0.2,4.1-1.1,4.1
		c-1.4,0-1.4,0.3-0.1,2.8c0.7,1.5,1.4,2.9,1.3,3.2c-0.3,1.8,1.4,6,2.4,6c0.7,0,1.6,0.5,1.9,1.1s0.3,0.7-0.4,0.4
		c-0.7-0.4-0.9-0.2-0.6,0.7c0.3,0.7,1.1,1.1,1.7,0.9c0.6-0.3,1.5-0.1,1.8,0.5c0.3,0.6,0.2,1-0.3,1c-0.5,0-1.1,0.8-1.4,1.9
		c-0.4,1.4-0.2,1.8,0.7,1.4c0.7-0.3,1.6,0.3,1.8,1.4c0.4,1,1,1.5,1.7,1.2c0.7-0.5,0.7-0.2,0,0.6c-1.7,1.7-1.5,2.5,0.6,3.1
		c1.1,0.4,1.7,1.1,1.3,1.9c-0.3,0.6,0,1.3,0.6,1.3c0.6,0,1,0.6,1,1.5c0,0.9,0.6,1.3,1.3,1c0.7-0.3,1.6-0.1,1.7,0.6
		c0.2,0.6,0.6,0,0.8-1.4s0.1-2.3-0.3-2c-0.5,0.3-0.8-0.6-0.8-1.8s-0.5-2.6-0.9-2.9c-0.6-0.4-0.7-1-0.4-1.5c0.3-0.5,1-0.6,1.6-0.2
		c0.6,0.4,0.4-0.6-0.6-1.9c-0.9-1.5-1.1-2.3-0.5-1.9c0.8,0.6,1,0.2,0.6-1.2c-0.4-1.1-0.3-1.8,0.2-1.6c0.4,0.3,1.2-0.2,1.8-0.9
		c1-1.3,0.6-1.7-1.2-1.5c-0.4,0.1-0.5-0.9-0.3-2.2c0.3-1.3-0.2-2.9-0.9-3.6c-1.4-1.4-1.8-4.7-0.6-3.9c0.6,0.4,0.9-0.6,1.2-4.7
		c0-0.9,0.3-2.3,0.6-3c0.9-2.2,0.9-3.1,0.1-4.3c-0.5-0.6-0.5-1.3,0.1-1.6c0.6-0.4,0.6-1.3,0.4-2c-0.3-0.8,0-1.8,0.6-2.2
		c0.8-0.5,0.6-1.1-0.8-2.5c-1.7-1.7-1.8-2-0.6-3c0.7-0.6,1.2-1.5,0.9-1.8c-0.3-0.5-0.1-1,0.4-1.3c0.5-0.4,0.6-1.7,0.5-3
		c-0.3-1.3,0-2.7,0.6-3c0.6-0.4,1.2-1.8,1.5-3.2c0.3-1.5,0.6-2.9,0.9-3.4c0.3-0.4,0-0.7-0.5-0.7c-0.6,0-1-0.6-1-1.4s0.4-1.4,0.8-1.4
		c0.5,0,0.7-1.5,0.6-3.2c-0.2-1.8,0.1-3.2,0.6-3.2c0.5,0,0.6-0.5,0.2-1.1c-0.4-0.6,0.1-1.6,1-2.3c1-0.6,1.4-1.2,0.8-1.2
		c-0.5,0-0.3-0.4,0.5-0.8c1-0.6,0.8-1.2-0.6-2.7c-2.1-2.1-1.8-2.9,1-2.4c1.3,0.2,1.7-0.2,1.3-1.6c-0.4-1.2,0-1.7,1-1.7
		c1.1,0,1.2-0.3,0.4-1.1c-1.4-1.4-1.5-2.9-0.1-2c0.6,0.4,0.9,0.1,0.6-0.6s-1-1.2-1.6-1c-0.7,0.1-0.6-0.8,0.5-2.6
		c0.9-1.5,1.9-2.8,2.2-2.8s0.4-1.6,0.4-3.4c-0.1-1.9,0.3-4.3,0.8-5.3c0.6-1,1.1-2.7,1.3-3.7c0.2-1,0.7-1.9,1.2-2.1
		c0.6-0.2,0.6-1.4,0.4-2.7c-0.5-1.5-0.3-2.2,0.3-1.8c1.2,0.7,5.3-7.2,4.4-8.5c-0.3-0.6,0.4-1.8,1.6-2.9s1.7-1.8,1-1.8
		c-0.6,0-0.9-0.6-0.6-1.4c0.4-0.7,0.9-1.2,1.3-0.9c0.7,0.5,2.7-3.6,3-6.2c0.2-0.6,1.2-2.6,2.3-4.2c1.2-1.6,1.8-3.4,1.5-4
		c-0.4-0.6-0.3-0.8,0.4-0.5c0.6,0.3,1.2,0.2,1.6-0.4c0.3-0.5,0.1-0.9-0.5-0.9c-0.7,0-0.7-0.6,0-1.8c0.6-1,1.4-1.7,1.9-1.4
		c0.5,0.4,0.8,0,0.8-0.6c0-0.9,0.2-0.9,0.8,0.1c0.6,1,1.2,0.6,2.4-1.7c0.8-1.7,1.3-3.6,1-4.3c-0.3-0.7-0.2-1.2,0.3-0.9
		c1,0.6,3-1.7,2.3-2.5c-0.4-0.4,0.3-0.5,1.4-0.2c1.8,0.4,2.1,0,2.3-3.1c0.1-0.9,1.2-1.4,3.3-1.3c1.8,0,4-0.6,4.9-1.4
		c0.8-0.7,1.6-1.1,1.6-0.7c0,0.4,0.9,0,1.9-0.7c1.1-0.7,2.6-1.1,3.2-0.8c0.7,0.3,1.3,0.1,1.3-0.4s0.7-0.8,1.7-0.9
		c0.8,0,2.5-0.3,3.7-0.6c1.1-0.3,1.8-0.2,1.6,0.2c-0.7,1.2,1.4,1.7,6,1.4c2.3-0.2,4.1-0.4,4.1-0.5s1.2-0.3,2.6-0.5
		c2-0.2,2.5,0.1,2.1,1.1c-0.5,1.1-0.1,1.1,2.2-0.1c3-1.6,4.1-1.8,3.3-0.6c-0.3,0.5,0.4,1,1.4,1.3c1.1,0.3,1.7,0.9,1.3,1.5
		c-0.3,0.6,0,1.1,0.6,1.2c1.3,0.1,2.6,0.4,3.8,0.7c1.1,0.4,2.4,0.6,3.4,0.8c0.6,0,0.9,0.7,0.9,1.5c0,0.8,0.6,1.7,1.4,1.9
		c1,0.4,1.2,1.2,0.8,2.6c-0.6,1.7-0.5,1.8,0.8,0.7c0.8-0.7,1.7-0.8,1.9-0.3c0.3,0.5,0,1-0.6,1.3c-0.8,0.3-0.6,0.6,0.5,1.1
		c1,0.4,2.8,1.8,4,2.9c1.3,1.3,2.8,1.9,3.4,1.6c0.8-0.5,0.8-0.4,0,0.6c-1.6,1.6-1.5,2.7,0.1,2.7c0.7,0,2,0.9,2.8,2
		c0.8,1.1,1.5,1.7,1.5,1.2c0-0.5,0.5-0.4,1.1,0.3c0.7,0.7,0.7,1.4-0.1,2.3c-0.8,1-0.7,1.6,0.4,2.5c0.7,0.6,1.2,1.5,0.9,1.8
		c-0.3,0.5,0.3,1.4,1.2,2c1,0.6,1.7,1.9,1.5,2.9c-0.1,0.8,0.4,1.6,1.1,1.6c0.7,0,1.3,0.5,1.3,0.9c0,0.6,0.6,0.9,1.3,0.9
		c1.4,0,1.5,1.5,0.2,3.5c-0.5,0.7-0.4,1.7,0.3,2.3c0.6,0.6,1,0.6,1,0.2c0-0.5,0.7,0.2,1.6,1.4c0.9,1.3,1.6,2.7,1.4,3
		c-0.1,0.5,0.6,0.6,1.6,0.2c1.8-0.6,2.1,0.7,0.7,3c-0.5,0.6-0.3,1.1,0.3,1.1c0.6,0,1.5,1.3,1.9,2.8c0.6,1.5,1.4,2.8,1.8,2.8
		c1,0,0.6,2.1-0.5,2.9c-1.1,0.7,1.9,3.8,3.1,3c0.6-0.3,0.6,0.1,0.4,0.9c-0.6,1.8,2.2,5.2,3.6,4.4c0.6-0.4,0.6-0.1,0.1,0.7
		c-1.4,2.2-1.4,4.5,0.1,4.5c0.7,0,1.1,0.6,0.8,1.3c-0.3,0.6,0.4,2.7,1.4,4.5c1,1.8,1.6,3.4,1.3,3.7c-0.3,0.3,0.4,1.4,1.4,2.5
		c1,1.1,1.7,2.6,1.5,3.2c-0.3,0.6,0.2,1.4,0.9,1.7c0.7,0.3,1.2,1.3,1.1,2.2c-0.2,0.9,0.2,1.9,0.6,2.3c0.6,0.4,0.6,1-0.1,1.8
		c-0.6,0.7-0.6,1.8-0.3,2.5c0.6,0.9,1.3,0.6,3.1-1.2c1.3-1.3,1.9-2.4,1.4-2.4c-0.6,0-0.6-0.4-0.1-1.1c0.6-0.6,0.8-1.9,0.7-2.9
		c-0.2-0.9,0.3-1.9,1-2.2c0.7-0.3,1-0.8,0.7-1.3c-0.3-0.5,0-0.8,0.6-0.8c0.6,0,0.9-0.6,0.6-1.3c-0.3-0.7,0.3-2.4,1.3-3.7
		s1.5-2.4,1-2.4c-1,0-0.9-4,0.1-4.7c0.5-0.3,0.8-1.2,1-1.9c0.1-0.8,0.7-2.2,1.5-3.1c0.8-1,0.9-1.4,0.3-0.9c-0.6,0.4-1.2,0.3-1.2-0.2
		c0-0.6,0.6-1.2,1.5-1.5c0.7-0.3,1.2-0.9,0.9-1.4s0-2.2,0.7-3.8c0.8-2.1,1.4-2.6,1.8-1.8c0.3,0.7,0.3-0.3,0-2.3
		c-0.5-3.4-0.4-3.5,1.7-3.1c1.7,0.4,2.2,0.1,1.8-0.9c-0.4-0.7,0.1-1.7,0.9-2.2c0.9-0.5,1.6-1.5,1.6-2.1c0-0.7,0.6-1.4,1.2-1.4
		c0.6,0,0.4-0.5-0.6-1c-1.3-0.7-1.5-1.3-0.6-2.3c0.6-0.7,1.7-1.3,2.3-1.3c0.7,0,1.3-0.5,1.3-1c0-0.5,0.5-0.6,0.9-0.4
		c0.6,0.4,0.9,0.3,0.8-0.2c-0.4-2,0.4-2.9,2.9-3.3c1.9-0.5,2.6-1,2.2-2c-0.4-0.7-0.1-1.4,0.6-1.4c0.6,0,0.8-0.3,0.6-0.6
		c-0.9-0.9,2.7-3.1,4.2-2.6c1.3,0.6,3.1-0.9,3.4-2.8c0.1-0.5,0.6-0.8,1.1-0.6c0.6,0.1,1.4-0.2,2-0.6c0.6-0.6,1.6-0.6,2.4-0.1
		c0.7,0.5,1.6,0.6,1.8,0.5c0.7-0.5,12.2-0.7,13.8-0.4c1.4,0.4,3.2,3.3,2.9,4.8c-0.1,0.4,0.5,0.6,1.3,0.6c1.3,0,1.3,0.3,0.4,1.4
		c-1,1.2-0.9,1.3,0.4,0.8c0.9-0.4,1.7,0,2,0.9c0.3,0.8,0.9,1.3,1.3,1c0.9-0.6,2.1,1.2,2.5,3.5c0.4,2.1,2.3,5,3.5,5.2
		c0.6,0,0.9,0.6,0.9,1.3c0,0.6-0.6,1-1.3,0.8c-1.1-0.3-1.1,0-0.1,1.1c0.9,1.2,0.9,1.5-0.1,1.5c-0.7,0-0.4,0.6,0.8,1.5
		c1.1,0.7,2,1.9,2,2.7c0,0.6,0.6,1.9,1.5,2.8c0.8,0.8,1.3,1.7,0.9,2c-0.3,0.4,0.1,1.4,1,2.3c0.8,0.9,1.1,1.7,0.6,1.8
		c-0.5,0,0,0.4,1,0.8c1.7,0.7,1.7,0.8,0.1,0.8c-1.4,0.1-1.5,0.4-0.6,1.5c0.6,0.7,1.5,1.1,1.9,0.8c0.5-0.3,0.8,1.4,0.8,3.6
		c0,3.2,0.5,4.4,2.1,5.6c1.1,0.8,1.6,1.4,1,1.1c-0.6-0.4-1,0.5-1,1.8c0,1.7,0.6,2.6,1.7,2.9c1,0.3,1.7,1.2,1.7,2
		c0,0.9,0.3,1.9,0.6,2.2c0.6,0.6,1.4,5.2,1.7,9.7c0,1.1,0.6,2,1.4,2s1,0.6,0.6,1.4c-0.3,0.7,0,1.4,0.5,1.4c0.6,0,0.8,0.8,0.6,1.8
		c-0.3,1-0.2,1.7,0.3,1.4c0.4-0.3,0.9,0.1,1.2,0.8c0.3,0.7-0.1,1.6-0.9,1.8c-1.2,0.5-1.2,0.8-0.2,2.1c1.1,1.3,1.1,1.5,0,0.7
		c-0.8-0.5-0.6,0.2,0.5,1.6c0.9,1.3,2.1,2.2,2.5,1.9c0.5-0.3,0.4,0.4-0.2,1.5c-0.6,1-1.6,1.9-2.2,2c-0.6,0.1-0.1,0.4,1.2,0.7
		c1.7,0.5,2.2,1.2,2,2.7c-0.2,1.1,0.1,2,0.6,2c0.9,0,0.8,3.3-0.1,4.2c-1.2,1.2-0.6,2.1,0.7,1.6c0.8-0.3,1.4-0.2,1.3,0.3
		c-0.1,0.5-0.1,1,0,1.3c0.7,1.9,0.8,6.4,0.2,6.9c-1.1,0.6-5.3-4.9-5.8-7.4c-0.1-1-1-2.6-1.9-3.4c-0.9-0.8-1.7-1.7-1.7-2
		c0.3-1.9-0.1-2.6-1.1-2.1c-0.8,0.3-1.2-0.2-1.1-1.5c0.1-1.1-0.1-2.9-0.6-4c-0.4-1.2-0.3-2.4,0.4-3.1c0.8-0.8,0.8-1,0.1-0.6
		c-0.6,0.4-1.4,0-1.7-0.8c-0.3-0.8-1-1.1-1.7-0.7c-0.7,0.5-0.8,0.2-0.5-0.8c0.3-0.9,0.2-1.6-0.4-1.6c-0.6,0-0.6-0.4-0.4-0.9
		c0.3-0.5,0.1-0.9-0.6-0.9s-0.8-0.3-0.6-0.6c0.4-0.3,0.2-1.1-0.4-1.8c-0.6-0.6-0.7-1.2-0.3-1.2c0.5,0,0.2-0.5-0.6-0.9
		c-1-0.6-1.1-1.1-0.4-1.6c1.3-0.9-0.1-5.2-1.4-4.5c-0.5,0.3-1.1-0.2-1.5-1.1c-0.3-0.8-0.5-1.6-0.4-1.6s-0.3-0.9-0.8-2
		c-0.6-1.2-0.7-2.2-0.3-2.6c1.4-0.7,0.8-4.1-0.6-3.5c-1.7,0.6-4.1-2-3.4-3.8c0.3-0.8,0.9-1.2,1.4-0.9c1.2,0.7,0.9-0.7-0.5-2.6
		c-0.8-1.2-1.5-1.3-2.2-0.6c-0.7,0.7-0.9,0.5-0.6-0.7c0.1-1,0.8-1.7,1.5-1.5c0.9,0.1,0.8-0.2-0.2-1c-0.8-0.6-2.6-4.2-3.9-7.9
		c-1.4-3.8-2.9-7.2-3.6-7.5c-0.6-0.5-0.7-0.8-0.3-0.8c0.6,0-0.3-0.8-1.7-1.7c-1.7-1-2.3-1.9-1.7-2.3c0.6-0.4,1-1.1,1-1.6
		c0-0.6-0.4-0.6-0.9-0.4c-1.3,0.8-1.1-1.8,0.3-3.1c0.9-0.9,0.8-1.1-0.3-0.8c-0.7,0.2-1.3-0.3-1.1-0.8c0.1-0.6-0.3-1.2-0.8-1.2
		c-0.5,0-0.7-0.4-0.4-0.8c0.3-0.6-0.4-1.4-1.4-1.9c-1-0.6-1.7-1.4-1.5-1.7c0.3-0.4-0.5-1.7-1.7-2.8c-1.2-1.2-2.5-1.7-2.8-1.2
		c-0.6,1-5.1,0.9-6.8-0.1c-0.6-0.5-1.3-0.2-1.7,0.6c-0.3,0.8-0.9,1.3-1.3,1c-0.4-0.3-1,0.2-1.3,1c-0.4,0.8-0.8,1.3-1.1,1
		c-0.9-0.9-7,6.6-6.3,7.7c0.4,0.7,0.3,0.8-0.4,0.5c-0.6-0.4-1.1-0.1-1.1,0.7s-0.5,1.4-1,1.3c-0.6-0.2-1.3,0.3-1.6,1
		c-0.3,0.8,0,1,0.8,0.6c0.7-0.4-0.1,0.6-1.8,2.2c-1.7,1.6-2.9,3.4-2.7,4c0.5,1.3-1.7,3.6-2.5,2.8c-0.3-0.4-0.6,1-0.6,3
		c0,1.9-0.4,3.1-0.7,2.6c-0.5-0.8-0.9-0.7-1.7,0.1c-0.9,0.9-0.8,1.3,0.2,1.8c1.8,0.6,1.7,3.3-0.1,3.3c-0.7,0-1.8,1.3-2.3,2.8
		c-0.6,1.6-1.4,2.8-1.8,2.8c-0.5,0-0.8,0.8-0.8,1.8c0,1.1-0.8,2.8-1.8,3.9c-1,1-1.6,2.4-1.3,3c0.2,0.7,0,2.1-0.6,3.1
		c-0.7,1.3-0.7,2-0.1,2.4c0.6,0.4,0.1,1.6-1.4,3c-1.7,1.8-2,2.5-1.2,3c0.9,0.6,0.9,1.4,0.2,3.4c-0.8,2.1-0.7,3.2,0.3,5.2
		c0.7,1.4,0.9,2.2,0.5,1.9c-0.6-0.3-1.2-0.2-1.5,0.3s0.1,1.1,0.9,1.4c1.3,0.5,1.3,0.8,0.3,2.1c-0.7,0.7-1.3,2.7-1.4,4.2
		c-0.1,1.5-0.6,3-1.3,3.4c-0.7,0.5-0.4,0.8,1,1.2c1.8,0.5,1.8,0.7,0.8,1.9c-0.9,1.2-0.9,1.5,0.1,1.5c1.1,0,1.1,0.2,0,0.8
		c-0.7,0.5-1,1.5-0.7,2.4c0.4,0.8,0.3,1.3-0.3,0.9c-0.6-0.3-0.9-0.2-0.9,0.3c0,0.6,0.6,1.1,1.4,1.5c0.7,0.3,1.4,1.2,1.4,1.9
		c0,0.8-0.5,1.2-1,0.8c-0.6-0.3-0.4,0.5,0.6,1.7c1.3,2,1.3,2.5,0.2,3.1c-1.7,0.9-1.6,5,0.3,6.4c0.9,0.8,1,1.1,0.3,1.2
		c-1.8,0-1.5,2.5,0.5,3.6c1.3,0.8,1.3,1.1,0.3,1.8c-0.8,0.6-0.9,1-0.2,1.4c0.6,0.4,0.8,1,0.6,1.5s-0.1,1,0.5,1.4
		c0.5,0.3,1.4,1.4,1.9,2.5c0.6,1,0.6,1.7,0.2,1.4s-1.4-0.2-2,0.3c-1,0.6-0.8,1.2,0.7,2.9c1,1.1,1.6,2.3,1.2,2.6
		c-1,0.8-0.7,4,0.6,6.4c0.8,1.5,0.9,2.5,0.2,3.9c-0.7,1.5-0.7,1.7,0.4,1.3c1-0.4,1.2,0.6,1.1,4.6c-0.1,2.9,0,5.2,0.3,5.2
		c0.4,0,0.6,2.2,0.6,4.9c-0.1,6.2,0.4,8,1.9,8c1.8,0,1.7,0.9-0.3,2.3c-1.4,1-1.5,1.4-0.3,2.8c0.7,0.9,1.2,2.6,1.1,3.8
		c-0.2,1.2,0.1,2.2,0.6,2.2s0.7,0.6,0.4,1.5c-0.3,0.8,0,1.8,0.7,2.3c0.9,0.6,0.9,0.8,0.2,0.8c-0.6,0-0.9,0.6-0.6,1.4
		c0.4,0.7,0.1,1.4-0.6,1.4c-0.8,0-0.8,0.4-0.2,1.2c1.3,1.7,1.9,10.6,0.7,11.1c-0.6,0.2-0.4,0.5,0.5,0.5c1.8,0.1,3.2,2.9,1.5,2.9
		c-0.7,0-1.1,1.4-1.1,3.7c0,2.6,0.4,3.6,1.2,3.2c0.6-0.2,1.1,0.2,1.1,0.9c0,0.7-0.8,1.4-1.8,1.4c-2,0-2.5,1.7-0.8,3.4
		c1.6,1.6,1.8,6.7,0.4,7.3c-0.6,0.3-1,1.1-0.7,1.8c0.4,0.9,0,1.1-1.2,0.6c-1.2-0.5-1.5-0.3-1,0.9c0.4,0.9-0.3,1.9-1.7,2.9
		c-1.2,0.8-2.2,1.1-2.2,0.6s-1.9-0.9-4.6-0.8c-5.3,0.2-5.2,0.3-6.1-3.2c-0.5-1.9-0.4-2.5,0.5-2c0.6,0.4,1,0.2,1-0.3
		c0-0.6-0.4-1-0.7-1c-0.5,0-0.6-1.7-0.5-3.9c0.2-2,0-4.1-0.6-4.3c-0.5-0.4-1.1-2.3-1.3-4.3c-0.3-2.1-0.9-4.7-1.5-5.6
		c-0.6-1-0.6-2.1-0.4-2.5c0.3-0.3-0.1-0.6-0.8-0.6c-0.8,0-1.8-0.6-2-1.5c-0.5-1.3-0.1-1.5,2.4-0.9c1.7,0.3,2.5,0.2,1.8-0.2
		c-0.6-0.5-0.9-1.5-0.6-2.5c0.5-1,0.1-2-0.9-2.8c-1.2-0.9-1.3-1.7-0.6-3.6c0.6-1.7,0.6-2.3,0-1.9c-1.4,0.8-1.1-0.7,0.5-2.9
		c0.7-0.9,1.3-2.1,1.4-2.7c0-0.5-0.5-0.3-0.9,0.5c-0.9,1.4-1,1.1-1.3-2c-0.1-0.6-0.6-1.8-1.3-2.5c-0.7-0.7-0.9-1.5-0.4-1.8
		c1.1-0.6,1.2-10.1,0.1-12.2c-0.5-0.9-0.5-1.7,0-2c0.5-0.4,0.7-1.3,0.6-2.2c-0.2-0.8-0.4-2-0.4-2.7c-0.1-0.6-0.7-1.8-1.6-2.5
		c-0.7-0.8-1-1.5-0.5-1.5c0.6,0,1-0.8,1-1.8c0-1-0.4-1.8-0.8-1.8c-1,0-0.8-3.6,0.3-5.3c0.5-0.7,0.3-1-0.5-0.9
		c-0.6,0.2-1.4-0.6-1.6-1.5c-0.3-1.2,0-1.6,0.9-1.3c0.8,0.4,1.3-0.1,1.3-1.2c0-1-0.5-1.8-1-1.8c-0.5,0-0.4-0.4,0.3-0.8
		c1-0.6,0.9-1.1-0.4-2.3c-1.3-1.4-1.4-1.7-0.4-2.4c0.7-0.5,1.7-0.6,2.2-0.3c0.5,0.4,0.6,0.1,0-0.7c-1.1-1.8-1.3-3.6-0.3-3.6
		c0.6,0,0.6-0.7,0.2-1.6c-0.5-0.9-0.7-3.2-0.7-5.1c0-1.9-0.2-3.5-0.6-3.5c-0.3,0-0.6-1.9-0.6-4.3c-0.2-10.7-1.5-16.8-3.5-16.8
		c-0.6,0-1.5-0.5-1.7-0.9c-0.4-0.6,0.3-0.8,1.7-0.6c1.3,0.3,2.4,0.3,2.4,0.2c0-1.3-2.4-6.8-3.4-7.7c-0.6-0.6-1.2-2-1.2-2.9
		c0-0.9-0.5-2-1-2.3c-0.6-0.4-0.8-2.2-0.6-4.2c0.4-3.4-0.6-5.8-1.4-3.4c-0.2,0.6-1.1,0.8-1.9,0.5c-1.4-0.5-1.4-0.8-0.2-3.1
		c1.3-2.5,1.3-2.7-1.1-4.8c-1.5-1.2-2-1.8-1.4-1.5c0.6,0.4,0.4-0.8-0.7-2.7c-1.8-3.3-1.5-4.2,0.9-2.1c0.7,0.6,0.6,0.2-0.4-0.9
		c-1.2-1.4-1.4-2.1-0.6-2.1c0.6,0,0.3-0.7-0.8-1.6c-1.1-0.9-2.1-2.5-2.3-3.5c-0.3-1-1.1-3.5-2-5.5c-0.9-2-1.7-4.1-1.7-4.7
		c-0.1-1-2.9-5.1-5-7.4c-0.6-0.7-1-1.7-0.7-2.1c0.4-0.5-0.1-1.5-0.8-2.2c-0.7-0.8-1.4-2.2-1.4-3.1c0-0.9-0.3-2.6-0.6-3.8
		c-0.5-1.7-0.8-1.8-1.8-1c-0.7,0.6-1.4,0.8-1.4,0.5c-0.6-2.4-0.4-4.9,0.4-5.9c0.6-0.7,0.6-1.1-0.2-1.1c-0.6,0-1-0.6-1-1.4
		s-0.9-1.6-2.1-1.8c-1.2-0.4-2.2-1.2-2.3-1.9s-0.3-2-0.4-2.9c0-0.9-0.4-1.8-0.6-2.1c-0.4-0.3-1.3-1.6-2.2-2.9
		c-1.1-1.8-2-2.3-3.1-1.9c-1,0.4-1.3,0.3-0.8-0.6c0.5-0.7,0-1.7-1.2-2.5c-1.1-0.8-1.7-1.7-1.5-2.2c0.3-0.5,0.1-1-0.5-1.4
		c-0.6-0.4-0.7-1-0.5-1.5c0.4-0.5,0.1-0.8-0.5-0.8c-0.6,0-0.8-0.6-0.6-1.5c0.3-0.7,0.2-1.1-0.4-0.8c-0.5,0.3-1.6-0.4-2.5-1.5
		c-0.9-1.1-2.4-2.8-3.2-3.8c-0.9-0.9-1.4-1.7-0.9-1.7c0.4,0-0.1-0.5-0.9-1c-0.9-0.5-1.4-1.5-1-2.3c0.5-1.3,0.3-1.3-1.3-0.3
		c-1.9,1.2-5.3,0.6-4.5-0.9c0.3-0.5-0.2-1.4-1-2c-1.3-1.1-1.5-1.1-0.8,0.1c0.4,0.7,0.1,0.6-0.6-0.3c-1-1.2-1.6-1.4-2.1-0.6
		c-0.5,0.8-1,0.6-1.9-0.6c-0.6-1-1.2-1.2-1.2-0.6c0,0.6-0.8,1.1-1.9,1.1c-1.2,0-1.7-0.4-1.2-1.1c0.5-0.6,0.3-0.7-0.6-0.3
		c-0.6,0.4-1.5,0.2-1.9-0.6c-0.6-1-0.8-0.9-1.3,0.4c-0.6,1.2-1,1.3-2.4,0.6s-1.7-0.6-1.7,0.7c-0.1,1.3-0.3,1.2-1.3-0.6
		c-0.8-1.5-1.4-1.8-1.7-1c-0.2,0.7-1.8,1.4-3.4,1.5s-3.8,0.9-4.8,1.8c-0.9,0.8-1.7,1.3-1.7,0.9c0-0.4-0.6-0.1-1.3,0.6
		c-0.8,0.8-1,1.8-0.5,2.8c0.5,0.9,0.5,1.8,0,2c-0.5,0.3-1.1-0.1-1.4-0.9c-0.6-1.3-0.8-1.3-2.4,0.6c-1,1.2-1.8,2.9-1.8,3.9
		c0,1-0.4,1.6-0.8,1.3c-0.5-0.4-1.1,0-1.3,0.6c-0.4,0.9-0.6,0.9-0.6,0c-0.1-1.9-1.9-0.3-1.9,1.7c0,1-0.4,1.7-0.8,1.4
		c-0.5-0.3-1,0.1-1.4,0.8c-0.3,0.7-0.1,1.4,0.4,1.4c0.5,0,0.6,0.6,0.4,1.4c-0.4,0.7-1,1.1-1.6,0.7c-0.6-0.3-0.6-0.1-0.3,0.6
		c0.8,1.2-1.1,4.1-2.2,3.3c-0.4-0.3-1.8,1-3.1,2.7c-1.3,1.8-2,3.4-1.6,3.7c1.1,0.7,0.1,5.2-1.4,5.8s-5.2,7.5-4.5,8.6
		c0.3,0.5,0,1.1-0.6,1.4c-0.5,0.4-0.7,1.2-0.5,1.9c0.3,0.6,0,1.5-0.6,1.8c-0.6,0.5-0.7,0.2-0.3-0.6c0.5-0.7,0.4-1-0.2-0.6
		c-0.6,0.4-0.7,1.7-0.5,2.9c0.2,1.3-0.1,2.9-0.7,3.6c-0.6,0.7-0.9,2.1-0.7,3c0.1,0.9-0.7,2.7-1.8,3.8c-1.7,1.8-1.9,2.4-1,3.5
		c0.8,1,0.8,1.3,0,1.3c-0.6,0-0.8,0.4-0.6,0.9s-0.1,0.6-0.8,0.4c-1.6-0.6-2,1-0.6,1.8c1.2,0.8-0.4,5.7-1.7,5.3
		c-0.7-0.1-0.8,0.2-0.4,0.9c0.4,0.6,0.8,2.1,1,3.2c0.2,1.6-0.1,1.9-1.2,1.6c-1-0.5-1.3-0.2-0.8,0.9c0.3,0.8,0.2,1.5-0.3,1.5
		c-0.9,0-0.7,5.9,0.2,7.4c0.3,0.6,0.2,0.9-0.3,0.9c-1.5,0-1.8,4.5-0.6,6.2c1,1.3,0.9,1.7-0.1,2.6c-1.5,1.1-2.6,6.9-1.3,6.9
		c0.5,0,0.9,0.6,0.9,1.4s-0.6,1.1-1.3,0.8c-0.7-0.3-1.5,0.3-1.8,1.4c-0.3,1.1,0,1.9,0.5,1.9c0.6,0,0.4,0.7-0.3,1.6
		c-0.9,1-0.9,1.3-0.1,0.8c0.6-0.4,1.1-0.1,1.1,0.7c0,0.8-0.6,1.5-1.1,1.5c-0.8,0-0.7,0.4,0.2,0.9c0.9,0.6,1,1.2,0.5,1.7
		c-0.9,0.6-1.6,3.6-1.5,6.4c0.4,6.1,0,10.3-0.8,10.8c-0.6,0.4-0.4,1.1,0.4,1.9c1.8,1.8,0.9,4.1-1.4,3.6c-1-0.2-1.6,0-1.3,0.6
		c0.4,0.5,1,0.6,1.6,0.3c0.6-0.4,0.8-0.1,0.6,0.6s-0.1,2,0.3,2.9c0.6,0.9,0.5,1.7-0.1,2.1c-0.5,0.3-0.6,1.1-0.3,1.8
		c0.3,0.8-0.1,2.1-0.7,2.9c-0.7,0.9-0.8,1.3-0.2,0.9c0.6-0.4,1.3-0.3,1.7,0.3c0.3,0.5,0.1,0.9-0.5,0.9c-0.7,0-0.7,0.6,0,1.8
		c0.7,1.4,0.7,1.7-0.3,1.3c-1-0.4-1.2,0.1-0.9,1.8c0.3,1.3,0.8,2.1,1.3,1.8c0.5-0.3,0.7,0.7,0.6,2.3c-0.1,1.6-0.6,2.9-1.1,2.9
		c-0.5,0-0.2,0.7,0.6,1.7c1.7,1.7,2.1,3.4,0.8,2.6c-0.4-0.2-1.2,0.4-1.8,1.4c-0.6,0.9-0.8,1.8-0.4,1.8c0.4,0,1.2,0.8,1.8,1.9
		c0.7,1.1,0.8,1.7,0.4,1.4c-1.7-1-1.8,1.7-0.3,4.4c1.1,2,1.2,2.8,0.4,3c-0.6,0.3-1.2,0.8-1.2,1.3c0,0.6,0.6,0.6,1.2,0.3
		c0.7-0.5,0.7-0.2-0.2,0.8c-0.6,0.8-0.9,1.6-0.5,1.6c0.5,0,0.2,0.5-0.6,0.9c-1.2,0.7-1.1,0.9,0.3,0.9c0.8,0,1.6,0.3,1.7,0.7
		c0,0.4,0.2,1.4,0.4,2.3c0.2,0.8-0.1,1.6-0.6,1.6c-0.5,0-0.2,0.6,0.6,1.5c0.8,0.7,1.5,1.8,1.5,2.3c0,0.5,0.6,0.8,1.4,0.8
		c1,0,1.3,0.6,1,2.2c-0.3,1.7-0.1,2.1,0.9,1.8c0.9-0.4,1.3,0.2,1.3,1.9c0,2.3,0.9,3,2.1,1.7c0.4-0.3,0.2-1.1-0.4-1.8
		c-0.6-0.6-0.7-1.2-0.4-1.2s0.2-0.6-0.5-1.5c-1-1.1-1-1.4,0-1.1c0.9,0.2,1.3-1.2,1.3-5.9c0.1-3.7-0.3-6.3-0.8-6.3
		c-0.5,0-0.3-0.5,0.5-0.9c1.1-0.6,1.1-0.9,0.1-0.9c-0.6,0-1-0.6-0.7-1.4c0.4-0.7,0.2-1.6-0.4-1.9c-0.6-0.4-0.5-1,0.3-1.9
		c0.6-0.8,1.1-1.7,1-1.8c-0.7-1-0.1-2.2,1-1.8c0.9,0.4,1.1-0.3,0.9-2.3c-0.2-1.5-0.6-3-0.8-3.5s0.1-1,0.6-1.2
		c0.8-0.4,0.6-0.6-0.3-0.6c-1.1-0.1-1.4-0.7-1-2.5c0.3-1.7,0.1-2.3-0.6-1.8c-0.6,0.4-0.5-0.5,0.3-1.8s1.1-2.9,0.8-3.3
		c-0.3-0.4,0.1-0.7,0.7-0.7c0.8,0,0.8-0.3-0.2-0.9c-1.1-0.7-1.1-0.9-0.1-0.9c0.7,0,1-0.6,0.7-1.8c-0.3-1,0.2-2.8,1-3.9
		c0.7-1.1,0.9-1.8,0.3-1.4c-0.8,0.6-1-0.2-0.6-2.9c0.2-1.9,0.5-3.5,0.6-3.5s0.2-1.3,0.3-2.9c0.1-1.6-0.1-2.7-0.4-2.5
		c-0.4,0.2-0.8-0.5-1.1-1.4c-0.3-1.4-0.1-1.7,1-1.3c1,0.5,1.3,0.2,0.8-0.9c-0.3-0.8-0.2-1.8,0.4-2.1c0.6-0.3,0.7-1,0.6-1.6
		c-0.2-0.6,0-1.8,0.5-2.7c0.5-0.9,0.5-1.7,0-1.7c-0.5,0-0.8-0.6-0.8-1.4s0.4-1.4,0.7-1.4c0.5,0,0.4-1.1-0.2-2.4
		c-0.7-2.1-0.7-2.3,0.5-1.4c1.1,0.9,1.3,0.8,0.8-0.7c-0.3-1.1-0.1-1.9,0.6-1.9c0.6,0,1-0.6,1-1.5c0-0.8-0.5-1.1-1.1-0.7
		c-0.6,0.4-0.3-0.2,0.7-1.3c1.3-1.2,2-3.1,2.1-5.4c0.1-4.2,0.4-5.9,1.3-7.4c0.4-0.6,0.7-3.1,0.7-5.7c0.1-2.6,0.5-4.7,0.9-4.7
		s0.6-0.6,0.3-1.4c-0.4-0.7-0.1-1.4,0.5-1.4c0.6,0,1-1.5,1-3.2s-0.4-3.2-0.9-3.2c-0.5,0-0.9-0.4-0.9-0.9c0-0.5,0.6-0.6,1.4-0.4
		c0.7,0.4,1.4,0.2,1.5-0.2c0-0.5,0.1-3.2,0.2-6.3c0.2-4.1,0.6-5.6,2-6.6c0.9-0.7,1.4-1.3,1-1.3c-0.4,0,0-0.9,0.7-2
		c0.8-1.1,1.2-2.9,0.9-4c-0.3-1.1,0.1-2.6,0.7-3.3c1.4-1.5,1.5-2.6,0.4-4.4c-0.6-0.9-0.6-1.1,0.4-0.6c0.8,0.6,0.9,0,0.5-2.2
		c-0.4-1.8-0.2-3.4,0.5-4.2c0.6-0.7,0.8-1.4,0.4-1.4c-0.5,0,0-0.6,1-1.5c1.6-1.2,1.7-1.5,0.5-2.2c-1.2-0.7-0.7-1.3,1-1.1
		c0.6,0.1,0.3-9-0.5-9.7c-0.6-0.7,1.3-3.1,2.1-2.7c0.4,0.3,0.7-0.4,0.7-1.5c0.1-1,1.2-3.1,2.5-4.9c1.3-1.7,2-3.3,1.7-3.7
		c-0.4-0.5-0.1-0.5,0.6-0.1c0.6,0.4,1.1,0.4,1.1-0.1c0-0.4,1.9-0.6,4.2-0.4c2.9,0.2,4,0.6,3.3,1.2s0.1,1.8,2.2,3.7
		c2.3,2,2.9,3.1,2.2,4c-1.1,1.3-0.3,4.4,1,3.6c0.5-0.3,0.6,0.2,0.3,0.9c-0.3,0.8-0.9,1.3-1.3,1c-0.8-0.6-0.1,3.2,0.9,4.6
		c0.9,1.2,0.5,5.2-0.8,7.6c-1.2,2.2-1.3,4-0.3,3.8c1.7-0.3,2.9,0.2,2.9,1c0,0.5-0.6,0.6-1.4,0.4c-0.7-0.4-1.4-0.2-1.5,0.2
		c0,0.5-0.2,2.2-0.3,3.9c-0.2,1.7,0,3.1,0.4,3.4c0.4,0.2,0.4,2.1,0,4.1c-0.6,2.9-0.4,3.7,0.5,3.3c1.5-0.6,1,3.6-0.6,5.5
		c-0.9,1.2-0.9,1.6,0.2,2.3c1.1,0.7,1.1,0.9,0,1.7c-1,0.6-0.9,1,0.5,1.7c1.7,0.9,1.7,1.1,0.3,2.5c-1.1,1.2-1.4,2.3-0.8,4.6
		c0.4,1.7,0.4,3.6-0.1,4.2c-1.3,2.1-0.9,3.4,1,4.1c1,0.4,1.7,1,1.3,1.5c-0.3,0.5-0.9,0.6-1.4,0.4c-1.6-1-0.8,1.7,0.8,2.9
		c1.5,1.1,1.5,1.2-0.3,1.9c-2.3,0.9-2.7,7.5-0.6,9.1c1.2,0.9,1.2,1.3,0.2,2.6c-1,1.2-1,1.5-0.1,1.5s0.8,0.5-0.2,1.7
		c-0.9,1-1.2,2.2-0.7,3.4c0.4,1,0.5,6.2,0.3,11.4c-0.4,7.4-0.2,9.9,0.8,10.6c1.4,1.2,2.1,3.7,0.7,2.9c-1.7-1-2.1,2.3-0.5,3.6
		c1.4,1,1.4,1.2,0.1,2.3c-0.7,0.6-1.1,1.8-0.8,2.6c0.4,1,0.2,1.3-0.5,0.8c-0.8-0.5-0.9,0.4-0.6,3.3c0.3,2.2,0.6,4.6,0.6,5.3
		c0.1,0.7,0.5,1.9,0.9,2.5c0.6,0.8,0.5,1.4-0.6,1.7c-1.4,0.6-1.3,0.7,0.4,2.2c1.8,1.7,2.6,4.2,0.9,3.2c-0.6-0.4-0.8,0.3-0.6,1.7
		c0.3,1.3,0.1,2.4-0.3,2.4c-0.4,0-0.7,0.6-0.8,1.2c-0.6,7.4-0.6,8.7,0,8.4c0.5-0.3,0.7,0,0.7,0.5c0,0.6-0.6,1-1.4,1
		s-1.4,0.4-1.4,0.9c0,0.5,0.6,0.6,1.3,0.4c1.1-0.5,1.3,0.5,1.1,4.3c-0.1,2.9-0.6,5-1.4,5.2c-0.8,0.3-0.6,0.8,0.5,2.2
		c1,1,1.3,2,0.8,2.4c-1.3,0.9-1.6,2.9-0.5,2.9c0.5,0,0.9,0.5,0.9,1c0,0.5-0.5,0.6-1,0.3c-0.7-0.4-0.8,0.1-0.3,1.6
		c0.4,1.2,0.6,2.9,0.6,3.6c0,0.7,0.2,2,0.5,2.8s0.6,2.9,0.6,4.6s0.5,3.5,1,3.9c0.6,0.4-0.2,0.7-1.7,0.7c-2.5,0-2.6,0.1-1.3,1.7
		c2.2,2.5,2.5,4.1,1,5.9c-1.6,1.8-2.4,9-1.1,9c0.5,0,0.8,0.5,0.8,1c0,0.6-0.9,0.7-2,0.5c-1.2-0.3-1.7-0.4-1.1-0.1
		c1.1,0.6,0.6,10.9-0.6,11.3c-0.4,0.2-0.5,0.9-0.2,1.7s0,1.3-0.6,1.3c-0.6,0-0.7,0.5-0.5,0.9c0.4,0.6,0,2.1-0.7,3.6
		c-1,1.9-1,2.6-0.3,2.3c0.6-0.3,1.2,0.2,1.2,0.9s-0.4,1.2-0.7,1c-1.4-0.9-2.5,2.1-2.3,6.6c0,2.6-0.2,4.5-0.6,4.3
		c-0.4-0.3-1.4,0.6-2.2,2c-1.4,2-1.5,2.7-0.5,4.3c1,1.7,1,1.8,0,0.9c-0.6-0.6-1.8-1.2-2.7-1.1c-0.9,0-1,0.2-0.2,0.6
		c1.7,0.6,1.4,1.8-0.8,4.1c-1.6,1.6-1.7,2.1-0.7,2.8s1,0.8,0.1,0.8c-0.6,0-1,0.4-0.7,0.8c0.4,0.5,0.1,1-0.4,1.2
		c-0.6,0.2-1.2,1.1-1.3,2.1c-0.2,1-0.8,1.8-1.4,1.6c-0.6-0.1-1,0.2-1,0.7c0,0.5,0.4,0.9,0.8,0.9c0.6,0,0.9,0.7,0.9,1.7
		c0,3.8,0.6,6.3,1.7,7.5c0.7,0.7,1.1,2.2,0.9,3.3c-0.3,1,0.1,2.5,0.8,3c0.6,0.6,1.2,2.1,1.2,3.3s0.6,2.5,1.5,2.8
		c1.2,0.5,1.3,0.8,0.5,1.8c-0.7,0.8-0.7,1.4-0.2,1.7c0.6,0.2,0.6,1.6,0.2,3.8c-0.6,2.1-0.5,3.4,0.1,3.4c0.5,0,0.6,0.4,0.3,0.9
		c-0.3,0.6,0.1,0.6,0.9,0.4c1.3-0.6,1.5,0.1,1.4,3.9c-0.4,7.3-0.1,8.8,1.2,8.1c0.7-0.5,0.7-0.2-0.2,0.8c-1,1.3-1,1.8,0,3.1
		c0.7,0.8,1.2,1.6,1.1,1.6c-0.6,0.3,1,4.2,1.7,4.2c0.5,0,0.8,0.8,0.8,1.9c0,1.4-0.4,1.7-1.5,1.4c-1.4-0.6-1.4-0.4,0,1.8
		c0.8,1.3,1.1,2.3,0.6,2.3s-0.2,1.8,0.7,4.4c1.1,2.9,1.5,5.4,1.1,7.7c-0.4,2.2-0.3,3.2,0.3,2.9c0.6-0.4,0.7,0,0.4,0.8
		c-0.3,0.8,0.2,2.4,0.9,3.5c1.4,2,2.2,10.1,1,10.1c-0.4,0-0.3,1.2,0.2,2.7c0.4,1.5,0.5,3,0.2,3.4c-0.4,0.5,0,0.3,0.8-0.3
		c1.2-1,1.4-0.7,1.2,1.7c-0.1,1.6-0.7,3.1-1.3,3.5c-0.7,0.5-0.8,0.9-0.2,1.3c0.6,0.3,0.7,1.4,0.5,2.4c-0.3,1,0,2.5,0.6,3.2
		c0.6,0.8,0.9,1.7,0.6,2c-0.4,0.3-0.2,1.2,0.3,2.1c0.6,1,0.4,2.4-0.5,4c-1,2-1,2.4,0.2,2.9c0.8,0.3,1.2,0.7,0.9,1.1
		c-0.4,0.3-0.2,1.2,0.2,2c0.6,1,0.4,2.1-0.5,3.3c-1.6,2.1-1.7,5.2-0.1,4.8c0.6-0.1,1,0.6,0.9,1.7c-0.1,1,0.5,2.2,1.2,2.6
		c0.7,0.4,1.3,1.1,1.3,1.7c0,1.1-2.9,0.7-3.9-0.6c-0.4-0.6-0.7-0.2-0.7,0.7c0,0.8,0.4,1.6,0.8,1.6c0.5,0,1.1,0.6,1.4,1.5
		c0.4,0.9,0.2,1.2-0.6,0.7c-0.6-0.5-0.7-0.3-0.3,0.6c1,1.5,1.1,4.6,0.2,6.1c-0.4,0.6,0,2.5,0.7,4.3c1.8,4.2,1.8,4.1-0.4,6l-1.8,1.6
		l1.9,1.7c1.4,1.2,1.6,1.9,0.8,2.7c-1.3,1.3-1.3,2.8,0,2c0.5-0.4,0.3,0.9-0.5,2.8c-0.8,1.9-1.5,4.2-1.5,5.2c0,1-0.6,1.8-1.5,1.8
		c-1.3,0-1.3,0.3-0.4,1.4c0.7,0.9,0.8,1.4,0.2,1.4c-0.6,0-0.8,0.6-0.6,1.4c0.6,1.4-0.5,1.8-3.2,1.5c-0.6-0.2-0.9,0.2-0.6,0.7
		c0.6,0.9-1,1.4-4.1,1.2c-0.7,0-2.3,0.4-3.4,0.7c-1.7,0.6-2.4,0.5-3-0.7c-0.6-1-1-1.1-1-0.4c0,0.6-0.5,0.9-0.9,0.6
		c-0.6-0.4-0.7-1-0.5-1.5c0.4-0.5-0.5-1.8-1.8-2.9c-1.3-1.2-2.1-2.5-1.7-2.8c0.3-0.4,0.1-0.6-0.5-0.6c-0.6,0-1.1-0.4-1.1-0.9
		c0-0.5,0.6-0.6,1.3-0.4c0.9,0.4,1.3-0.1,1.2-1.4c-0.1-1.2-0.6-1.8-1.3-1.6c-0.6,0.3-1.2-0.2-1.2-0.9c0-0.9,0.6-1.3,1.4-0.9
		c0.7,0.3,1.4,0.1,1.4-0.4c0-0.6-0.6-0.9-1.1-0.9c-0.9,0-0.9-0.2,0-0.7c1.4-0.9,0.6-3.8-1.5-5.3c-1-0.7-1.1-1.2-0.4-1.7
		c1.4-0.8,1.5-5.7,0.2-6.5c-0.6-0.4-0.6-1.2,0-2.4c0.6-1.1,0.6-1.8,0.1-1.8s-0.6-0.6-0.4-1.6c0.4-0.8,0.2-1.3-0.3-0.9
		c-1.1,0.6-1.1-6.6-0.1-8.3c0.4-0.6,0.2-1.2-0.5-1.4c-0.6-0.2-1.2-1.2-1.3-2.2c-0.5-3.6-0.9-4.8-2.5-6.4c-1.2-1.1-1.4-1.9-0.6-2.8
		c0.7-0.8,0.5-1.3-0.9-1.7c-1.9-0.5-2.1-2.4-0.5-3.6c1.3-0.9,1.5-7.4,0.2-6.5c-0.6,0.4-0.7,0-0.4-0.8c0.3-0.8-0.2-2.4-0.9-3.6
		c-1.2-1.6-1.2-1.9-0.2-1.4c0.7,0.4,0.6,0.1-0.4-0.6c-1.1-0.9-1.3-1.5-0.6-1.7c0.7-0.3,0.8-0.8,0.4-1.8c-0.5-0.7-1-2.3-1.2-3.5
		c-0.2-1.3-0.6-2.9-1.1-3.8c-0.5-0.8-0.6-2.5-0.3-3.7c0.4-1.4,0.2-1.9-0.4-1.6c-0.6,0.4-0.9-1.2-0.7-4.4c0.1-2.8-0.2-4.8-0.6-4.5
		c-0.5,0.3-0.8,0.1-0.8-0.5c0-0.5,0.5-1.2,1-1.6c0.7-0.4,0.6-0.8-0.2-1.3c-0.9-0.6-0.9-1,0-2.2c1-1.2,1-1.6-0.3-2s-1.3-0.8-0.4-2
		c1-1.2,0.9-1.4-0.4-0.8c-1.4,0.5-1.5,0.3-0.6-1.7c0.7-1.8,0.7-2.6-0.2-3.8c-0.8-0.9-1.3-4.2-1.4-9.3c-0.1-5.3-0.6-8-1.4-8.6
		c-1.5-0.9-2.1-7.4-0.7-7.4c0.6,0,0.7-0.3,0.5-0.6c-0.3-0.4-0.2-1.4,0.3-2.2c0.6-1.3,0.6-1.6-0.7-1.5c-1,0.1-1.5-0.5-1.3-1.5
		c0.2-0.9-0.2-2.5-0.7-3.6c-0.8-1.6-0.7-2.1,0.6-3.3c0.9-0.7,1-1,0.3-0.6c-1.2,0.6-1.2,0.5-0.2-0.7c0.8-1,0.8-1.7,0.3-2.1
		c-0.6-0.3-1-1.5-1-2.6c0-1.1-0.2-4.1-0.4-6.6c-0.2-2.5-0.4-5.5-0.5-6.7c-0.1-1.2-0.5-1.8-1-1.6c-0.5,0.3-0.9,0-0.9-0.6
		c0-0.9-0.3-0.8-0.8,0.1c-0.6,1.1-1.2,1.1-2.2,0.3c-0.6-0.6-1.6-0.8-1.8-0.5c-0.4,0.3-0.6,0.1-0.6-0.5c0-0.6-1.2-0.8-3.4-0.5
		c-2.4,0.4-3.1,0.3-2.7-0.5c0.4-0.6,0.2-1.1-0.5-1.1c-0.6,0-0.9-0.9-0.6-2.1c0.2-1.2,0-2.6-0.6-3.2c-2.5-2.6-3.1-3.7-2.7-4.2
		c0.4-0.3-0.1-0.6-0.9-0.6c-0.9,0-1.6-0.5-1.6-1c0-0.5,0.5-0.6,0.9-0.4c0.6,0.3,0.9-0.2,1-1.1c0.3-4.9,0.1-8.4-0.5-11
		c-0.5-2-0.4-3,0.3-3c0.6,0,1-0.4,1-0.9c0-0.5-0.6-0.9-1.5-0.9c-1.3,0-1.3-0.2,0-2c1.7-2.5,1.9-4.5,0.4-4.2
		c-0.8,0.2-1.2-1.1-1.1-4.1c0-3.2-0.3-4.4-1.3-4.4c-0.6,0-1.1-0.6-0.8-1.1c0.2-0.6,0.9-1.1,1.5-0.9c0.6,0.1,1-0.1,1.1-0.5
		c0-0.5,0.2-1.5,0.4-2.4c0.2-0.8-0.1-1.3-0.6-1c-0.6,0.4-0.6-0.8-0.3-3.1c0.3-2.1,0.1-4-0.4-4.3c-0.6-0.3-0.7-1.1-0.4-1.8
		c0.3-0.7,0.1-1.4-0.5-1.4c-0.6,0-0.7-0.8-0.5-1.8c0.3-1,0.9-1.6,1.5-1.2c0.6,0.3,0.6,0.1,0.3-0.6c-0.4-0.6-1-0.8-1.5-0.6
		c-0.4,0.3-0.9-0.2-1.3-0.9c-0.3-0.7-0.1-1.4,0.4-1.4c0.6,0,0.9-0.6,0.9-1.5c0-0.7-0.5-1.1-0.9-0.8c-0.6,0.4-0.8-0.2-0.4-1.8
		c0.4-1.5,0.2-2.4-0.5-2.4c-0.6,0-1-0.6-1-1.5c0-0.9,0.5-1.1,1.2-0.6c0.6,0.4,0.4-0.5-0.5-1.7c-1.4-2-1.4-2.5-0.3-2.9
		c1.4-0.5,1.4-2.3,0.1-5.3c-0.4-0.8-0.4-2.1,0-2.7c0.8-1.4,1-6.4,0.3-5.8c-0.4,0.2-1-1.3-1.6-3.3c-0.5-2-0.6-3.7-0.2-3.7
		c1.5,0,1.8-2.9,0.6-7.4c-0.6-2.5-1.4-4.6-1.7-4.6s-0.5-0.6-0.2-1.3c0.3-0.7,0-1.6-0.5-1.9c-0.6-0.3-0.8-1-0.6-1.5
		c0.4-0.5-0.1-0.8-0.8-0.8c-0.8,0-1.5-0.6-1.5-1.4s0.5-1.4,0.9-1.4c0.6,0,0.1-0.8-0.9-1.8c-1-1-1.8-2.5-1.8-3.2s-0.6-1.4-1.1-1.4
		c-0.9,0-0.9-0.2-0.1-0.7c0.8-0.6,0.4-1.6-1.7-3.8c-1.5-1.7-2.6-3.3-2.2-3.6c0.3-0.3-0.2-1.5-0.9-2.7c-0.8-1.2-1.1-2.1-0.7-2.1
		c0.5,0,0.2-0.4-0.6-0.8c-2.1-1.4-4-0.1-3.5,2.3c0.2,1.2-0.1,2.3-0.6,2.5c-0.6,0.2-0.4,1.4,0.6,3.2c0.7,1.7,1,2.8,0.6,2.4
		c-0.6-0.4-0.7,0.6-0.4,2.8c0.5,2.4,0.4,3.3-0.5,3.3c-0.9,0-0.9,0.3,0,1.4c0.8,1,0.9,1.4,0,1.4c-0.6,0-1,1.3-0.8,3.5
		c0.2,1.9,0,4-0.5,4.6c-0.6,1-0.2,1.5,1.4,1.3c0.3-0.1,0.6,0.6,0.6,1.3s-0.5,1.2-1,1c-0.6-0.3-1.1,1-1.2,2.9c0,1.8-0.7,4.5-1.6,6.1
		c-1,1.9-1.1,2.9-0.4,3.3c0.8,0.6,0.7,1.1-0.1,2.1c-0.7,0.8-0.9,1.5-0.6,1.5c0.4,0,0.2,0.6-0.5,1.4s-0.7,1.4-0.3,1.4
		c0.5,0,0.9,0.6,0.9,1.4s-0.3,1.4-0.6,1.4s-0.6,2.7-0.5,6c0.1,3.3-0.2,6.3-0.6,6.5c-0.5,0.4-0.6,1.2-0.3,1.9
		c0.3,0.8-0.3,2.3-1.1,3.3c-0.9,1-1.2,1.6-0.6,1.3c0.6-0.4,1.3-0.3,1.7,0.3c0.3,0.5,0.1,0.9-0.6,0.9c-0.7,0-0.6,0.5,0.2,1.6
		c0.9,1.1,1,1.6,0.2,1.8c-0.6,0.2-0.9,0.9-0.6,1.6c0.6,1.4-1.2,6.3-2.6,7.1c-0.6,0.4-0.2,0.9,1,1.3c1,0.3,1.9,1,1.9,1.6
		c0,0.5-0.6,0.6-1.5,0.4c-2-0.7-3.7,0.4-2.1,1.4c1.1,0.6,1.1,0.8,0,0.8c-0.7,0-0.4,0.7,0.9,1.9c1.2,1,1.7,1.7,1.1,1.3
		c-0.6-0.3-1.2,0-1.3,0.6c-0.3,5.3-0.6,6.4-1.7,7.1c-0.6,0.5-1.1,1-1.1,1.4c0.1,0.3,0,0.8,0,1.3c-0.1,0.4-0.1,1.4,0,2.3
		c0.1,0.8-0.3,1.6-0.9,1.6c-0.7,0-0.7,0.4,0.1,1.4c0.9,1.1,0.9,1.4,0,1.4c-0.7,0-0.9,0.3-0.6,0.6c0.4,0.3,0.2,1.1-0.4,1.8
		c-0.8,0.9-0.7,1.2,0.1,1.2c0.6,0,0.9,0.6,0.6,1.4c-0.4,0.7-0.2,1.6,0.3,1.8c0.6,0.4,0.9,1.2,0.9,1.9s-0.4,1.1-0.9,0.8
		c-0.5-0.3-0.9,0-0.9,0.7s-0.6,1.6-1.3,1.8c-1.4,0.6-1.5,2.9-0.1,4.1c0.4,0.4,0.5,0.2,0-0.6c-0.6-0.9-0.4-1.1,0.4-0.6
		c0.8,0.6,0.7,1.3-0.3,2.9c-1.8,2.8-1.8,4.4,0,6.3c1.3,1.3,1.2,1.7-0.9,3.8c-1.2,1.2-1.8,2.5-1.4,2.8c1.3,0.9,1,2.6-0.5,2
		c-1.4-0.6-1.5,0.8-0.2,2.9c0.6,0.8,0.5,1.1-0.1,0.7c-1.1-0.6-2.9,6.8-2.9,11.6c0.1,1.9-0.4,4.1-1,4.7c-1.2,1.5-2.1,11-1,10.2
		c1.1-0.6,0.7,2.6-0.3,3.4c-0.6,0.3-0.9,3.4-1,6.7c0,4.2-0.5,6.5-1.4,7.3c-0.7,0.6-1.4,1.8-1.4,2.9c0,1-0.6,1.8-1.2,1.6
		c-0.9-0.2-0.9,0.2,0,1.6c0.8,1.4,0.8,2.3,0,4.2c-0.9,1.9-0.9,2.9-0.1,3.8c0.7,0.9,0.7,1.7,0.1,2.5c-0.6,0.6-0.9,2-0.7,2.9
		c0.2,1-0.4,2.3-1.2,2.9c-1.3,0.9-1.3,1.1,0.2,1.7c1.5,0.6,1.5,0.7,0.1,1.8c-1.3,0.8-1.3,1.3-0.4,1.8c0.8,0.5,1,0.4,0.6-0.3
		c-0.5-0.7-0.2-0.9,0.7-0.6c2.4,0.9,0.6,2.2-2.3,1.8c-2.8-0.5-3.8,0.7-1.3,1.8c1.3,0.5,1.3,0.8,0.1,3.2c-0.7,1.4-1.2,2.9-0.9,3
		c0.8,0.8-1.7,9.9-2.7,9.9c-0.6,0-0.4,0.5,0.6,1c1.8,1.1,2.1,2.9,0.4,2.1c-0.7-0.3-1.2,0.4-1.4,1.7c-0.4,4.1-0.4,7.6,0,9
		c0.1,0.7-0.3,1.3-0.9,1.1c-1.4-0.3-1.2,4.5,0.3,5.5c0.5,0.4,0.2,0.9-0.7,1.3c-0.8,0.3-1.6,1-1.6,1.5c0,0.6,0.6,0.7,1.4,0.5
		c1.1-0.5,1.1-0.2,0.3,1.7c-0.6,1.3-1.4,2.3-1.8,2.3c-0.4,0-0.5,1.5-0.2,3.2c0.4,2,0.2,3.2-0.5,3.2c-0.6,0-0.8,0.6-0.6,1.3
		c0.3,0.6-0.1,1.8-0.8,2.5c-0.7,0.7-1.1,2.4-0.9,3.6c0.2,1.8,0.1,1.9-0.6,0.9c-0.6-0.7-1.2-1.1-1.5-0.7c-0.3,0.3,0.1,1.1,0.8,1.8
		c0.7,0.8,1,1.8,0.6,2.2c-1.7,1.9-1.8,4.8-0.3,6.4c1.6,1.6,1.6,1.6-0.4,1.1c-1.5-0.4-1.8-0.2-1.5,0.7c0.3,0.7,0,1.9-0.6,2.7
		c-0.6,0.7-0.8,1.7-0.6,2.2c0.3,0.5,0,1.1-0.6,1.3c-0.7,0.4-0.6,0.6,0.3,0.6c0.8,0.1,1.8,0.7,2.1,1.6c0.8,2.2,0.6,2.6-0.8,1.3
		c-1.2-0.9-1.4-0.8-1.4,0.8c0,1-0.5,1.9-1.1,1.9c-0.8,0-0.8,0.3-0.1,1c1.1,1.1-0.2,5.4-1.7,5.4c-1.6,0-1.2,5.2,0.5,6.7
		c1.7,1.6,1.7,1.6-0.2,1.6c-1.4,0-1.7,0.5-1.4,1.8c0.3,1,0,1.8-0.6,1.8s-1,1.3-1,2.9c0,2.3-0.3,2.8-1.6,2.3c-1.5-0.5-1.5-0.5,0,0.7
		c1.4,1.1,1.5,1.7,0.6,3.2c-0.7,1.5-0.7,1.9,0.2,2c0.6,0,0.2,0.5-1,0.9c-2.1,0.8-2.2,0.9-0.5,2.9c1,1.1,1.3,1.7,0.6,1.4
		c-1.5-0.9-2.5,2.6-1.3,4.7c0.7,1.3,0.4,2.2-1.6,4.1c-2.1,1.9-2.5,3-2.3,6.2c0.1,2.4-0.2,3.8-0.9,3.8c-0.6,0-0.5,0.5,0.5,0.9
		c0.9,0.6,1.3,1.6,0.9,2.9c-0.3,1.3-0.2,1.8,0.6,1.3c0.6-0.4,1.1-0.5,1.1-0.1c0,0.3-0.9,0.8-2,1.3c-2,0.7-2.7,2.8-2.6,8.1
		c0,1.8-0.6,3.2-1.6,3.9c-0.9,0.6-1.1,1-0.5,1c1.5,0,1.4,2.5-0.2,3.4c-0.6,0.4-1.6,2.1-1.9,3.9c-0.5,2.4-0.4,2.9,0.5,2.4
		s1-0.4,0.4,0.6c-0.5,0.7-0.6,2-0.6,2.9c0.2,0.8-0.4,1.8-1.1,2.1c-1.1,0.5-1.5,2-1.5,6.8c0,6-0.1,6.4-2.5,7.2c-1.6,0.6-1.9,1-1,1
		c1.2,0.1,1.5,0.7,1,3.3c-0.3,1.9-0.1,3.8,0.6,4.6c0.9,1.1,0.8,1.5-0.4,1.9c-1.6,0.6-1.8,6.4-0.3,8.5c0.6,0.7,0.6,1.1-0.3,1.1
		c-0.9,0-0.9,0.3,0,1.4c0.8,1,0.8,1.4,0.1,1.4s-0.8,0.5-0.2,1.8c0.6,0.9,0.6,2,0.3,2.4c-0.4,0.5,0.1,0.5,0.9,0.2
		c1.2-0.5,1.5-0.1,1,1.5c-0.3,1.1-0.4,2.8-0.4,3.7c0.1,0.8,0.3,2.8,0.4,4.2c0.1,1.5,0.4,2.6,0.6,2.4c0.3-0.2,1.1,0,1.8,0.6
		c0.8,0.5,0.9,0.8,0.3,0.8c-1.3,0-1,4.2,0.5,5.7c0.6,0.6,0.7,1.7,0.3,2.5c-0.4,0.8-0.2,2.4,0.5,3.8c0.7,1.3,1.3,1.7,1.3,0.9
		c0-1.2,0.1-1.2,0.9,0c0.5,0.8,0.5,1.6,0,1.8c-0.6,0.3-1,1.8-1.1,3.3c-0.1,1.5-0.6,3.1-1,3.8c-0.9,1.2,1.4,5.2,2.4,4.2
		c0.7-0.6,0.8,0.1,1.1,7.2c0.1,2.9,0.5,5.6,0.7,6.1c0.4,0.6,0.4,1.8,0,2.7c-0.4,1-0.3,1.4,0.4,1c0.6-0.4,1.2,0,1.6,0.7
		c0.3,0.7,0.1,1.6-0.5,1.9c-0.6,0.4-0.6,0.9,0,1.7c0.6,0.6,0.6,1.6,0.1,2.4c-1.1,1.7-1.2,2.9-0.2,2.6c0.4,0,1.4,0.2,2.3,0.6
		c1.1,0.5,1.3,1,0.7,1.8c-1.2,1.5-0.2,5.3,1.2,4.5c0.6-0.4,0.5,0-0.2,0.8c-0.8,1.1-0.9,1.7-0.2,2.1c0.6,0.4,0.8,1.1,0.6,1.7
		c-0.2,0.6,0,1.8,0.5,2.9c0.6,1.2,0.6,1.9-0.3,2.5c-0.9,0.6-0.9,0.8-0.2,0.8c0.6,0,0.9,0.6,0.6,1.4c-0.4,0.7-0.1,1.9,0.5,2.7
		c0.6,0.6,0.8,1.9,0.5,2.8c-0.3,0.8-0.3,2.2,0.1,3.1c0.4,0.8,0.6,3.1,0.6,5.1c0,1.8,0.4,3.7,0.7,3.9c0.5,0.3,0.6,1.7,0.5,3.2
		c-0.2,1.5,0.1,3,0.7,3.4c1.4,0.9,1.5,3.2,0.2,4.1c-0.6,0.5-0.5,0.7,0.4,0.7c0.6,0,1,0.6,0.6,1.4c-0.3,0.7-0.1,1.4,0.5,1.4
		c0.6,0,0.6,0.5,0.3,1.1c-0.4,0.6-0.3,0.7,0.5,0.4c0.6-0.4,1.7,0,2.5,0.7c1.3,1.4,1.3,1.5-0.1,1.5c-1,0-1.4,0.5-1,1.4
		c0.3,0.7,0.1,1.4-0.5,1.4c-1.1,0-0.8,3,1,12.2c0.6,3.1,1.5,5.1,2,4.8c0.6-0.4,0.7,0.5,0.3,2.3c-0.5,2.3-0.3,3.3,1.1,4.2
		c1.6,1.3,1.6,1.3,0,1.4c-1.1,0-1.5,0.4-0.9,1.2c1,1.6,0.9,2.9-0.2,3.7c-0.6,0.5-0.4,0.6,0.5,0.6c2.8-0.3,3.5,0.1,3.2,1.7
		c-0.2,0.8-0.4,1.9-0.4,2.3c-0.1,0.5-0.5,0.5-1,0.2c-0.5-0.3-0.9-0.2-0.9,0.4c0,0.5,0.5,1.2,0.9,1.5c0.6,0.4,0.7,1,0.5,1.5
		c-0.4,0.5-0.1,0.8,0.5,0.8c0.6,0,0.9,0.6,0.6,1.2c-0.2,0.6,0.1,2.4,0.7,3.9c1.2,3.1,1.2,4.1,0.2,5.8c-0.5,0.6-0.4,1.1,0.2,1.1
		c0.6,0,1,0.6,1,1.3c0,0.6,0.9,1.9,2.1,2.8c1.1,0.8,1.6,1.4,1,1.1c-0.6-0.3-1.3,0.3-1.6,1.2c-0.3,1.1,0.1,1.7,1,1.6
		c0.7,0,1.6,0.5,1.8,1.1c0.3,0.6-0.2,1.1-1,1.1c-1.4,0-1.9,1.2-1.5,3.2c0.1,0.6,0.4,2.3,0.6,4c0.1,1.7,0.6,3.3,0.8,3.8
		c0.3,0.5,0.1,1.1-0.4,1.4c-0.9,0.6-0.3,4.1,1,5.8c0.5,0.6,0.6,1.7,0.2,2.3s-0.4,0.9,0.1,0.6c1.1-1,3.3,1.8,2.7,3.4
		c-0.6,1.2-0.7,1.3-1.4,0.3c-0.6-0.8-0.8-0.8-0.8-0.1c0,0.6,0.5,1.4,0.9,1.7c0.6,0.4,0.7,1,0.4,1.5c-0.3,0.6,0.2,1.7,1,2.7
		c1.4,1.5,1.4,2,0.5,3.2c-0.6,0.8-0.7,1.4-0.2,1.4c1,0,1,1.7-0.1,3.3c-0.4,0.6,0,1.4,0.8,1.7c0.8,0.4,1.3,1.2,0.9,1.9
		c-0.3,0.7-0.1,1.4,0.5,1.4s0.8,0.6,0.6,1.2c-0.3,0.7-0.1,1.8,0.3,2.6c0.5,0.6,0.5,1.7-0.1,2.3c-1,1.2,0.5,8.2,2,10.2
		c0.6,0.6,0.6,1.1-0.1,1.4c-0.6,0.2-0.7,1-0.5,1.9c0.4,0.8,1,1.4,1.4,1.1c0.9-0.6,0.6,1.9-0.3,2.9c-0.9,0.9-0.8,5.9,0.1,5.9
		c0.5,0,0.8,2.1,0.9,4.8c0,2.6,0.5,5,0.8,5.2c1.1,0.8,1.1,7.5-0.1,7.5c-0.6,0-0.1,0.4,1,0.8c1.2,0.5,1.8,1.4,1.7,2
		c-0.7,1.8-1.1,8-0.6,7.9c1.8-0.2,2.2,0.4,1,1.1c-1.1,0.7-1.1,0.9,0.5,0.9c1.4,0,1.6,0.2,0.6,0.8c-0.9,0.6-1,1.2-0.2,2.7
		c1.2,2.3,1.4,5.1,0.2,4.4c-0.4-0.3-0.6,0.6-0.4,2c0.2,1.4,0.6,4.9,0.7,7.8c0.1,2.9,0.7,5.8,1.3,6.5c0.6,0.6,0.7,1.5,0.4,1.8
		c-0.3,0.4,0.2,0.6,1,0.6c1.6,0,1.6,0.2,0.2,2.3c-1.4,2.1-1.4,2.3,0.4,3.4c2.3,1.5,2.4,3.5,0.3,3.5c-1.3,0-1.7,0.7-1.6,3
		c0,1.6,0.4,3.7,0.8,4.6c0.4,0.9,0.2,2.1-0.4,2.9c-0.9,1.1-0.7,1.2,1,0.8c2.1-0.5,2.1-0.5,0.3,1c-1.5,1.2-1.7,1.6-0.6,2.3
		c0.7,0.5,1,1.5,0.7,2.3c-0.4,0.8-0.2,1.5,0.2,1.5c0.9,0,0.7,5.6-0.3,7.2c-0.3,0.6-0.2,1.2,0.2,1.5c0.9,0.6,0.7,4.4-0.2,5.9
		c-0.3,0.6,0.2,1.2,1,1.5c1.4,0.6,1.4,0.7,0.3,1.5c-1.1,0.7-1,0.9,0.5,1c1,0,1.3,0.3,0.7,0.6c-0.8,0.3-0.9,0.9-0.3,2.1
		c0.7,1.4,0.6,1.6-1.2,1.2c-1.5-0.3-1.7-0.2-0.7,0.5c1,0.7,1,0.9,0,1.4c-1,0.4-1,0.6-0.1,0.6c0.6,0.1,0.9,0.6,0.6,1
		c-0.4,0.6-0.1,1.6,0.5,2.3c0.9,1.1,0.9,1.4,0,1.4c-0.8,0-0.9,0.3-0.1,1.3c0.7,0.9,0.7,1.5-0.2,2.3c-0.7,0.6-1.6,0.7-1.8,0.4
		c-0.4-0.3-0.6-0.1-0.6,0.5c0,0.6,0.4,1.1,0.8,1.1c0.5,0,1.1,0.6,1.4,1.5c0.3,0.7,0.2,1.2-0.2,0.9c-0.5-0.3-0.8,0.7-0.8,2.2
		c0,1.5,0.3,2.5,0.6,2.3c0.3-0.2,0.6,0.5,0.6,1.4c0,0.9-0.3,1.6-0.6,1.4c-0.3-0.2-0.6,2-0.7,4.9c-0.5,11.1-0.6,12.9-1.3,12.4
		c-0.5-0.2-0.7,0.2-0.8,0.8c-0.6,7.2-0.8,8.6-1.7,8.8c-0.6,0.2-1,0.9-1,1.7C9793,20967.2,9791.5,20967.5,9790.7,20966.1z
		 M9798.2,20872.6c-0.3-0.3-1.1-0.4-1.8-0.1c-0.7,0.3-0.5,0.6,0.6,0.6C9798,20873.1,9798.6,20872.8,9798.2,20872.6z M9679.7,20640.8
		c0-0.5,1.4-0.6,3-0.6c3.2,0.3,7.3-2.3,6.5-4.2c-0.3-0.6,0.6-1.8,1.8-2.7c1.4-0.8,2.4-2.1,2.4-2.9c0-0.7,0.9-1.8,2.1-2.2
		c1.1-0.5,1.5-0.8,0.7-0.8c-1-0.1-1-0.4,0-1.7c1-1.2,1-1.6,0.2-1.8c-0.9-0.4-0.9-0.9-0.2-2.2c0.5-1,1.3-1.6,1.8-1.3
		c0.5,0.4,0.8,0.1,0.8-0.5s0.5-0.7,0.9-0.5c0.6,0.3,0.9,0.2,0.9-0.4c0-0.5,0.6-1.5,1.4-2.3c0.8-0.7,1.7-3.1,1.9-5.2
		c0.6-3.8,2.4-6.8,3.4-5.8c0.3,0.3,0.3-0.4,0-1.6c-0.4-1.4,0-2.4,1-3.2c0.9-0.6,1.4-1.7,1-2.2c-0.3-0.5,0.3-2.3,1.3-4.1
		c1.1-1.7,1.9-3.7,1.9-4.4c0-0.8,0.6-1.9,1.3-2.6c0.7-0.6,1.1-1.7,0.9-2.3c-0.5-1.1,3.3-13.1,5-15.6c0.3-0.6,0.6-2.4,0.8-4.1
		c0.1-1.8,0.6-3.4,1.2-3.8c0.6-0.4,1.3-3.2,1.6-6.4c0.3-4.3,0.2-5.5-0.7-5.1c-0.7,0.5-0.9,0.4-0.5-0.3c0.4-0.6,1.2-1.1,1.8-1.1
		c0.6,0,1.6-0.5,2.2-1.1c0.8-0.8,0.6-1.6-1-3.3c-1.4-1.6-1.7-2.1-0.6-2c2.5,0.4,3.4,0,3.6-1.4c0.5-4-0.1-11.1-1-12.1
		c-0.4-0.4-0.4-1.1,0.2-1.8c0.6-0.6,0.4-1.9-0.5-3.5c-0.7-1.6-0.9-2.7-0.4-3c0.6-0.3,0.6-0.9,0.1-1.6s-0.7-1.8-0.6-2.8
		c0.2-0.9-0.1-1.3-0.6-1c-0.6,0.4-0.8,0.1-0.6-0.6s-0.2-1.8-0.8-2.6c-0.7-0.7-1.1-2.3-0.8-4c0.3-2,0.1-2.6-0.8-2.2
		c-0.7,0.3-1.6,0-1.9-0.6c-0.4-0.6-0.3-0.7,0.3-0.5c0.6,0.4,1.3,0,1.6-0.8c0.4-0.9,0.2-1.2-0.6-0.7c-1.2,0.7,0.9-2.2,2.6-3.6
		c0.6-0.5,0-0.6-1.2-0.4c-1.8,0.5-1.9,0.3-1-0.8c0.8-1,0.8-1.3-0.1-1.3c-0.8,0-0.8-0.4,0.1-1.6c0.9-1,0.9-1.3,0.2-0.8
		c-0.7,0.4-1.2,0.2-1.2-0.7c0-0.7-0.6-1.5-1.1-1.7c-0.8-0.3-0.9-0.7-0.3-1.7c0.8-1.2,1-2.9,0.5-4.7c-0.6-1.7-0.6-2.4-1.4-6.9
		c-0.4-2.7-1-4.9-1.5-4.9c-0.5,0-0.8-0.5-0.8-1c0-0.6,0.8-0.8,1.9-0.6l1.9,0.6l-1.9-2.1c-1-1.1-1.9-2.6-1.9-3.2s-0.5-0.8-1-0.5
		c-0.7,0.5-0.8-0.6-0.4-3.2c0.5-2.7,0.3-3.8-0.5-3.8c-0.7,0-0.8-0.9-0.5-2.8c0.4-1.8,0.2-3.3-0.5-4.1c-0.6-0.7-0.9-1.4-0.6-1.4
		c0.3,0,0-1.1-0.7-2.4c-0.6-1.3-1-3.4-0.8-4.6c0.2-1.2,0-2.2-0.5-2.2c-0.4,0-0.6-1.7-0.6-3.7c0.3-3.1,0.1-3.6-1-2.7
		c-0.7,0.6-1.7,0.7-2,0.4c-0.4-0.4-0.2-0.9,0.4-1.1c1.6-0.6,4.6-3,3.6-2.9c-2.3,0.3-3-0.2-2.6-1.8c0.3-0.9,0-2-0.6-2.3
		c-0.5-0.4-0.6-1.3-0.4-2.1c0.5-1.1,0.3-1.3-0.7-0.8c-0.7,0.4-0.6,0.2,0.2-0.6c1.3-1,1.3-1.4,0.2-2.4c-0.7-0.7-1-2-0.7-2.9
		c0.3-1-0.2-2.9-1-4.1c-0.9-1.4-1.2-2.8-0.7-3c0.5-0.4,0.9-1.4,0.9-2.3c0.2-1.2-0.1-1.4-1-0.6c-1.7,1.5-2.2-0.8-0.7-3.7
		c0.7-1.4,0.8-2.4,0.3-2.6s-0.9-1.1-0.9-2.1c0-0.9-0.5-1.8-1-1.8c-0.6,0-0.9-1.3-0.6-3.2c0.2-1.8,0-3.2-0.6-3.3
		c-0.5,0-0.4-0.3,0.2-0.6c0.8-0.3,0.6-1.6-1.1-4.5c-1.2-2.2-1.8-4.1-1.3-4.1c0.6,0,0.7-0.6,0.5-1.5c-0.3-0.7-0.2-1.1,0.4-0.8
		c0.6,0.3,0.9,0.1,0.9-0.4c0-0.6-0.5-1-1.1-1c-0.6,0-0.7-0.3-0.5-0.6c0.4-0.3-0.1-1-0.8-1.7c-1.2-0.8-1.3-1.5-0.5-3
		c0.8-1.6,0.6-2.2-1.3-3.7c-1.2-1-1.9-2.1-1.6-2.5c0.4-0.5,0.2-0.5-0.5-0.1c-0.6,0.4-0.9,1.2-0.6,1.9c0.3,0.8-0.1,1.4-0.9,1.4
		c-0.7,0-1.6-0.6-1.8-1.1c-0.3-0.9-0.6-0.9-1.6-0.1c-0.6,0.6-1.7,0.8-2.4,0.6c-0.7-0.3-1.3,0-1.3,0.6s-0.6,0.7-1.3,0.5
		c-1-0.4-1.2,0-0.8,1.7c0.6,1.9,0.5,2-0.9,0.8c-0.8-0.6-1.6-0.9-1.6-0.6c0,0.4-0.7,0.2-1.7-0.3c-1.1-0.6-2.1-0.5-3.1,0.3
		c-0.9,0.6-2.8,1-4.1,0.9c-6.6-0.7-8.4-1-9.5-1.7c-0.8-0.5-1-0.4-0.6,0.4c0.7,1.1-1.7,0.9-5.9-0.4c-1.2-0.4-2-0.1-2.4,0.8
		c-0.3,0.7-1.1,1.1-1.8,0.8c-1.5-0.6-3.4,3.5-2,4.4c0.5,0.4,0.4,0.8-0.4,1.1c-0.8,0.3-1.2,1.6-1.1,3.3c0.1,1.6-0.2,2.9-0.6,2.9
		c-0.6,0-0.5,0.8,0.2,1.9c0.7,1.5,0.7,1.8,0,1.3c-1.2-0.6-0.9,2,0.6,6c0.6,1.7,0.5,2.9-0.6,4.4c-0.7,1.2-1,2-0.6,1.9
		c2.7-0.5,3,0.2,1.7,3.3c-1.5,3.7-1.4,5.1,0.6,6.6c1.2,1,1.2,1.1-0.2,1.2c-0.9,0-1.7,0.5-1.7,1s0.7,0.7,1.7,0.5
		c1.4-0.5,1.4-0.4,0.2,0.6c-1.6,1.4-1.4,5.3,0.3,5.3c0.6,0,0.6,0.4-0.3,0.9c-0.9,0.6-1,0.9-0.3,0.9s1,0.8,0.8,2
		c-0.1,1.1,0.4,2.7,1.1,3.5c1.3,1.2,1.3,1.4-0.1,1.7c-1.7,0.4-2.1,3.4-0.7,4.3c0.6,0.3,0.4,1.6-0.4,2.9c-1,1.9-1.1,2.7-0.2,3.2
		c0.6,0.4,0.7,0.7,0.2,0.7c-0.5,0-0.4,0.5,0.3,1.1c0.7,0.7,0.7,1.6,0.1,2.8c-0.9,1.7-0.7,1.8,1.1,1.2c1.7-0.6,1.8-0.5,0.7,0.7
		c-0.7,0.7-1.5,1.2-1.7,1.1c-0.3-0.2-0.6,0.6-0.5,1.9c0,1.3,0.5,2.6,1.1,2.9c0.7,0.5,0.8,1.2,0.3,2c-0.7,1.2-0.9,1.2-0.9,0.1
		c0-0.7-0.2-1.1-0.5-0.8c-0.8,0.7,0.6,5.4,1.4,4.9c0.4-0.2,0.6,0.8,0.7,2.4c0,1.5-0.4,2.5-0.8,2.2c-0.5-0.4-0.8-0.2-0.8,0.4
		c0,0.5,0.5,1,1.1,1.2c0.6,0.2,1.1,1.8,1.2,3.6c0,1.8,0.4,3.7,0.7,4.3c0.5,0.6,0.4,1.1-0.2,1.1c-1.5,0-0.6,7.8,1.2,10.6
		c0.9,1.4,1.3,2.3,0.7,1.9c-1.5-0.8-1.8,5.4-0.4,6.8c0.7,0.6,1,1.9,0.8,2.9c-0.3,1.1,0,1.8,0.8,1.8c0.7,0,1.3,0.6,1.3,1.4
		s-0.5,1.4-0.9,1.4c-0.6,0-0.7,1.4-0.4,3.7c0.5,2.8,0.3,3.7-0.6,3.8c-0.7,0-0.4,0.4,0.8,0.8c2.3,1,2.8,2.8,0.6,2.8
		c-1.7,0-1.7,2.2,0,3.7c0.8,0.6,1.2,1.4,0.9,1.7c-0.3,0.3,0,1,0.6,1.8c0.8,1,0.6,1.1-0.6,0.6c-1.4-0.5-1.3-0.2,0.4,1.5
		c1.9,1.9,2.2,4.4,0.4,4.1c-0.5-0.1-0.9,0.4-0.9,1.1s0.4,1.1,0.8,0.8c0.4-0.3,0.7,0,0.7,0.5c0,0.6-0.7,1-1.6,1.1
		c-1.3,0-1.4,0.2-0.3,0.6c0.7,0.4,1.7,1,2.3,1.6c0.9,1,1,6.1,0.1,8.5c-0.3,0.7,0.1,1.3,0.8,1.3c0.7,0,1.4,0.6,1.4,1.4s0.5,1.4,1,1.4
		c0.5,0,0.6-0.5,0.3-1.1c-0.5-0.6-0.3-0.7,0.6-0.3c0.9,0.6,0.8,1-0.4,1.8c-1.7,1.3-1.4,5.8,0.6,7c1,0.6,1,1.1,0,2.7
		c-0.6,1-0.7,1.8-0.3,1.8c0.5,0,1.1,1.5,1.4,3.2c0.5,2.2,1,3,1.7,2.7c0.6-0.4,0.8-0.4,0.5,0.1c-0.4,0.4-0.3,1.3,0.3,2
		c0.8,0.9,0.7,1.2,0,1.2c-0.6,0-0.8,0.5-0.5,1.1s0.3,0.7-0.4,0.4c-0.6-0.4-1.6-0.4-2.1,0c-0.7,0.5-0.7,0.8,0.1,1.3
		c0.6,0.4,1.2,2.4,1.5,4.5c0.2,2.2,0.6,4.3,0.9,4.9c0.4,0.6,0.3,0.7-0.3,0.5c-0.5-0.4-0.7,0.6-0.5,2.2c0.2,1.5,1.2,3.1,2.2,3.7
		c1.4,0.7,1.6,1.2,0.7,2.2c-0.6,0.7-0.7,1.8-0.4,2.5c1.2,1.8,1.4,4.2,0.4,4.9c-0.5,0.3-0.6,1.1-0.4,1.8c0.4,0.7,0.8,1.2,1.2,0.9
		c0.4-0.2,0.7,0.2,0.7,0.9s-0.3,1.4-0.6,1.4c-0.4,0-0.6,1.2-0.6,2.7c0.1,1.8,0.4,2.4,1.1,1.8c0.6-0.6,1.5-0.3,2.3,0.7
		c0.7,0.8,0.8,1.3,0.2,0.9c-0.6-0.4-1.4-0.3-1.7,0.3c-0.4,0.6-0.3,0.9,0.2,0.8c2-0.4,3.1,0.2,2.5,1.2c-1,1.7-1.1,4.4-0.2,4.4
		c0.4,0,0.7,0.9,0.6,2.1c0,1.1-0.3,1.5-0.6,0.8c-0.2-0.6-0.8-0.8-1.3-0.6c-0.6,0.3-0.5,1.1,0.3,2c1,1.1,1,1.5,0,1.8
		c-0.9,0.3-0.8,0.6,0.3,1.5c1.2,0.8,1.3,1.6,0.6,3.6c-0.6,1.7-0.6,2.4-0.1,2c0.6-0.3,0.9-0.2,0.9,0.4c0,0.5-0.5,1.2-1,1.5
		c-0.6,0.5-0.4,1.3,0.6,2.4c1.2,1.4,1.3,1.7,0.3,1.7c-1,0-1,0.2-0.1,0.7c1.4,0.9,1.8,5.2,0.7,8.5c-0.6,2-0.4,2.4,1.2,2.4
		C9678.9,20641.6,9679.7,20641.3,9679.7,20640.8z M9676.3,20634.6c-0.7-0.7-1.2-0.6-1.7,0.2c-0.5,0.7-0.4,0.9,0.3,0.5
		c0.6-0.4,1.1-0.2,1.1,0.3c0,0.6-0.4,1-0.9,1c-0.5,0-0.9,0.5-0.9,1.1c0,0.7,0.6,0.6,1.6-0.5
		C9676.9,20636,9677,20635.3,9676.3,20634.6z M9735.6,20505.6c-0.3-0.7-0.6-0.5-0.6,0.6c-0.1,1,0.2,1.6,0.5,1.2
		C9735.8,20507,9735.9,20506.2,9735.6,20505.6z M9737.7,20501.1c-0.6-1.8-0.5-2.8,0.2-2.8c0.5,0,0.6-0.6,0.4-1.5
		c-0.3-0.7-0.2-1.2,0.3-0.9c0.4,0.3,0.8-1.8,0.9-4.7c0.1-2.9,0.4-5.5,0.7-6.1c0.3-0.6,0.6-1.8,0.8-2.9c0.2-1.1,0.6-3.6,0.8-5.5
		c0.3-2,1.4-4.3,2.5-5.2c1.8-1.6,1.8-1.8,0.3-1.8c-1.3,0-1.4-0.3-0.5-1.3c1.7-2.1,2.2-7,0.7-7c-0.8,0-0.8-0.3-0.2-0.7
		c1.8-1.1,3.1-4.6,2.6-6.1c-0.3-0.8-0.2-1.5,0.4-1.5c0.6,0,0.7-0.8,0.5-1.8c-0.4-1.6-0.2-1.8,1.2-1.2c1.5,0.6,1.6,0.4,0.6-0.7
		c-1.2-1.5-1.1-3.3,0.1-5.3c0.6-1,0.6-1.1-0.5-0.6c-1.1,0.7-1.1,0.6,0-0.7c1-1.3,1-1.7-0.2-2.1c-1.8-0.6-0.9-4.1,1.3-5.7
		c0.9-0.6,1.5-1.8,1.2-2.4c-0.3-0.7-0.1-1.6,0.5-1.8c0.6-0.5,0.6-1.4,0.1-2.9c-1.2-3-1.2-3.1,0.7-3.2c0.9,0,1.1-0.3,0.5-0.6
		c-0.9-0.3-0.9-0.9-0.2-2.3c0.7-1.3,0.7-2.1,0-2.9c-0.7-0.7-0.6-1.5,0.6-2.8c0.8-0.9,1.5-2,1.5-2.4c-0.1-0.3,0.2-0.5,0.6-0.4
		c0.5,0.2,0.6-0.7,0.4-1.9c-0.2-1.3,0.3-2.9,1-3.7c0.9-0.9,1.1-1.6,0.4-1.9c-0.7-0.5-0.7-0.9,0-1.7c1.4-1.4,1.3-4.6-0.1-6
		c-0.8-0.8-0.7-1.1,0.5-1.1c0.8,0,1.6-0.4,1.6-0.9c0-0.5-0.5-0.9-1-0.9c-0.7,0-0.8-0.4,0-1.2c0.6-0.7,0.6-1.7,0.3-2
		c-0.4-0.5-0.1-0.5,0.6-0.1c0.6,0.4,1.1,0.5,1.1,0.2c0-0.2,0.3-1.1,0.6-2c0.4-1,0.3-1.4-0.4-1c-0.7,0.5-0.7-0.5-0.3-2.8
		c0.5-1.8,0.6-3.8,0.3-4.2c-0.8-1.4-1-5.2-0.2-4.7c1.7,1,2.6-0.6,1.8-2.8c-0.7-1.9-0.6-2.1,1.2-1.8c1.1,0.2,1.5,0.2,0.8-0.2
		c-0.6-0.3-0.8-0.9-0.6-1.5c0.3-0.5,0.6-2.3,0.6-4.1c0-1.7,0.6-3.9,1.6-4.7c1.3-1.4,1.7-4.4,1-7.1c-0.6-2,0.1-5.2,0.8-4.6
		c0.6,0.3,0.7-0.4,0.6-1.5c-0.2-1.1,0.2-3.1,0.9-4.6c0.7-1.4,1.1-2.8,0.6-2.9c-1-0.7-0.6-6.4,0.6-8.6c0.6-1.1,0.7-2.2,0.5-2.6
		c-0.3-0.3-0.1-0.6,0.5-0.6c0.6,0,0.8-1.2,0.6-2.9c-0.3-1.6,0-3.5,0.6-4.1c0.7-0.8,0.7-1.2,0-1.2s-0.8-0.6-0.3-1.6
		c0.5-0.9,0.6-2.1,0.5-2.8c-0.2-0.6,0.5-2.9,1.4-5.1c1.7-3.9,2.2-11,0.8-12.3c-0.4-0.4,0.3-1.7,1.4-2.9c1.1-1.2,1.7-2.1,1.3-2.1
		c-0.5,0-0.2-0.7,0.5-1.6c0.9-1,0.9-1.3,0.2-0.8c-0.6,0.4-1.2,0.3-1.2-0.3c0-0.5,0.5-1,1-1.2c0.7-0.3,0.6-0.9-0.5-1.9
		c-1.6-1.5-1.5-1.7,0.6-2.4c1.2-0.6,1.6-0.9,1-0.9c-0.6-0.1-1.2-0.6-1.2-1.1c0-0.5,0.4-0.7,0.8-0.5c1.1,0.7,1.7-5,0.9-8
		c-0.5-1.8-0.4-2.3,0.9-2c1,0.2,1.6-0.5,1.7-2.4c0.2-2.1-0.1-2.5-1.4-2c-2.8,1-5.8,4.3-5.4,6c0.3,1.1,0,1.4-1,1
		c-1.4-0.6-1.4,0.6,0.3,4.6c0.5,1,0.3,1.6-0.6,1.6c-0.7,0-1.7,0.5-2.3,1c-0.8,0.8-0.6,1.5,0.9,2.8c2,1.8,2,1.8-2.1,2.1
		c-0.7,0-1.3,0.8-1.3,1.7c0.1,0.9-0.2,1.4-0.6,1.1c-0.5-0.3-0.9,0-0.9,0.5c-0.1,0.6-0.2,1.4-0.3,1.8c0,0.5-1,1.7-2.1,2.7
		c-1.2,1-2.1,2.2-2.1,2.9c0,0.6-0.4,1-0.7,1s-0.7,1.7-0.6,3.7c0.1,2.3-0.3,3.7-1,3.7c-0.6,0-1.3,0.8-1.6,1.9
		c-0.4,1.2-0.9,1.7-1.7,1.2c-0.7-0.4-0.9-0.3-0.5,0.4c0.4,0.6,0.3,1.1-0.3,1.1c-0.6,0-0.7,0.6-0.5,1.4c0.5,1.2-0.4,1.8-2.4,1.6
		c-0.3,0-0.6,1-0.7,2.4c-0.1,1.3-0.6,2.6-1,2.9c-0.4,0.3-1,1.5-1.4,2.7c-0.4,1.1-1.2,2-1.9,2c-0.7,0-1.6,0.8-1.8,1.8
		c-0.3,1-1.2,1.8-1.9,1.8c-0.7,0-1.3,0.8-1.3,1.8c0,1-0.6,1.8-1.3,1.8c-0.7,0-1.5,0.9-1.7,2.1c-0.2,1.1-0.6,1.8-0.8,1.6
		c-0.3-0.3-1.6,0.6-2.9,2s-2.6,2.2-2.9,1.8c-0.4-0.4-0.6-0.2-0.6,0.3c0.5,1.9-0.1,3.2-1.2,3.2c-0.6,0-2.3,1.4-3.8,3
		c-1.5,1.6-3.1,2.9-3.7,2.9c-0.6,0.1-0.9,0.6-0.7,1.2c0.1,0.6-0.3,1.1-0.8,1.1c-0.5,0-0.6,0.5-0.4,0.9c0.4,0.6,0.2,0.8-0.3,0.7
		c-0.5-0.2-1.9,0.9-3.3,2.3c-1.3,1.4-2.4,2.2-2.4,1.8c-0.1-0.4-0.6,0.3-1.4,1.6c-0.6,1.3-2,2.3-2.9,2.3c-0.9,0.1-1.6,0.6-1.5,1.2
		c0.2,0.6-0.6,1.1-1.5,1.1c-1.4,0-1.8,0.8-2.1,4.1c-0.2,2.3,0.1,4.1,0.5,4.1c0.5,0,0.6,0.6,0.3,1.4c-0.3,0.8,0.4,1.9,1.8,2.9
		c1.7,1,2,1.7,1.2,2.2c-0.6,0.4-1.2,1.8-1.3,3.3c-0.1,1.5-0.5,3.2-0.9,3.9c-0.5,0.8-0.4,1.1,0.3,0.6c0.6-0.4,1.8-0.1,2.9,0.5
		c1.8,1.1,1.7,1.2-0.3,2.9c-1.7,1.5-1.8,1.7-0.2,1.2c1.4-0.5,1.7-0.2,1.2,1.7c-0.2,1.5,0.2,2.9,1,3.8c1.2,1.3,1.2,1.6,0.1,2.3
		c-0.7,0.5-0.8,0.8-0.3,0.8c0.6,0,0.8,1.5,0.7,3.5c-0.3,4.1,0.4,6.8,1.5,6.2c0.4-0.3,1,0.2,1.3,1c0.3,0.7,0.2,1.2-0.3,0.9
		c-0.5-0.3-1,0.9-1.2,2.8c-0.3,2.6,0.1,3.9,1.5,5.2c1.1,1,1.4,1.6,0.7,1.1c-1-0.6-1-0.3-0.1,1.2c0.6,1,1.7,1.7,2.6,1.4
		c0.9-0.3,1.1-0.2,0.5,0.4c-1.6,1.2-2.2,3.9-1.1,4.5c0.6,0.4,0.6,0.8-0.3,1.4c-1,0.6-1,0.8-0.1,0.8c0.6,0,0.9,0.5,0.6,0.9
		c-0.3,0.6-0.3,1.5,0.2,2.1c0.4,0.6,0.7,2.9,0.8,5.2c0.1,2.2,0.6,4.2,1.1,4.4c0.6,0.2,0.7,0.9,0.5,1.7c-0.3,0.7,0.1,2,0.7,2.9
		c1.1,1.4,1,1.5-0.8,1c-1.8-0.6-1.9-0.4-0.9,0.8c1.2,1.5,3.6,7.4,3.7,9.3c0.1,0.6,0.6,1.1,1.2,1.1c0.6,0,1.7,0.6,2.3,1.4
		c1,1.2,0.7,1.4-1.2,1.4c-2.2,0-2.3,0.1-1.4,3.5c0.5,1.8,1.4,4,1.9,4.6c0.6,0.8,0.6,1.8-0.2,3.5c-0.8,1.8-0.8,2.2,0.1,1.7
		c0.9-0.6,0.9-0.4,0,0.7c-1,1.3-0.9,1.7,0.7,2.6c1.4,0.7,1.7,1.4,1.1,2c-1.1,1.1-0.5,3.3,1.5,5.2c0.6,0.7,0.9,1.6,0.5,1.8
		c-1.1,0.7-0.9,2.8,0.2,3.6c0.6,0.4,1,2.3,1.1,4.3c0.1,2,0.6,3.8,1.2,4c0.5,0.2,0.9,0.9,0.9,1.6s0.6,1.5,1.2,1.7
		c0.6,0.3,1.2,0.6,1.3,0.6C9738.5,20503.9,9738.2,20502.7,9737.7,20501.1z M9728.1,20471.7c0.3-0.5,0.1-0.9-0.4-0.9
		c-0.6,0-1,0.5-1,0.9c0,0.6,0.2,0.9,0.4,0.9C9727.3,20472.6,9727.8,20472.2,9728.1,20471.7z M9891.4,20417.4c-0.7-1-1.7-2.1-2.3-2.3
		c-1.2-0.5-1.2,1.1,0,3c0.6,0.9,0.5,1.1-0.3,0.6c-0.9-0.6-1-0.3-0.1,1.4c1,1.8,1.3,1.9,2.5,0.6
		C9892.3,20419.7,9892.4,20419.1,9891.4,20417.4z M9890.8,20410.3c-0.4-0.8-0.2-1.3,0.3-0.9c1,0.6,1-3.6,0-4.6
		c-0.3-0.4-1.2-0.7-1.8-0.8c-1.5-0.2-1.8,3.9-0.5,6.4C9889.9,20412.3,9891.6,20412.4,9890.8,20410.3z M9891,20400.8
		c-0.2-1,0.1-2,0.6-2.3c0.5-0.4,0.6-0.9,0.4-1.4c-1.1-1.8-1.3-7.7-0.2-8.5c0.8-0.6,0.7-0.7-0.3-0.7c-1.6,0-2-3.7-0.5-3.7
		c0.5,0,0.3-0.5-0.6-0.9c-1.4-0.8-1.6-4.2-0.3-8c0.2-0.6,0-1.4-0.6-1.8c-0.6-0.4-0.6-1,0.2-1.8c0.6-0.8,0.7-1.3,0.3-1.2
		c-2.1,0.4-3.8-0.2-3.8-1.4c0-0.7,0.5-1.3,1-1.2c1.4,0.3,1.8-4.4,0.6-6.7c-0.8-1.5-0.7-2,0.5-2.4c1.1-0.5,1.2-0.8,0.4-1.8
		c-0.8-1-0.7-1.7,0.1-2.7c1.4-1.7,0.5-3.2-1.9-3.2c-0.9,0-1.8-0.4-1.8-0.9c0-0.5,0.5-0.9,1-0.9c0.6,0,0.8-0.6,0.5-1.4
		c-0.3-0.7-0.2-1.4,0.2-1.4c0.4,0,0.6-1.8,0.6-4.1c0-2.2-0.3-3.9-0.6-3.7c-1,0.6-1.8-3.1-1.2-5.2c0.5-1.4,0.4-1.7-0.5-1.3
		c-0.8,0.6-0.8,0.3-0.1-1.2c0.7-1.4,0.6-2.1-0.4-2.9c-1.1-0.9-1.2-1.5-0.4-2.4c0.8-1,0.7-1.3-0.1-1.3c-0.7,0-0.9-1.1-0.5-3.6
		c0.4-2.2,0.2-3.8-0.4-4.2c-0.6-0.3-0.8-0.9-0.6-1.4c0.3-0.5-0.1-1.3-0.7-2c-1.9-1.9-2.5-5.2-1-6.6c1.7-1.7,1.7-2.4,0-2.4
		c-1.9,0-2.8-1.7-1.6-3.1c1.3-1.6,0.3-7-1.4-7c-1.6,0-1.7-2.5-0.1-3c0.8-0.3,0.7-0.7-0.3-2s-1-1.6-0.1-1c0.7,0.6,0.6-0.1-0.4-1.7
		c-0.9-1.4-1.4-2.7-1-3c0.3-0.4-0.1-1.6-0.9-2.9c-0.7-1.2-1.2-2.8-0.9-3.5c0.3-0.7,0.1-2.2-0.4-3.3c-0.5-1.2-0.8-1.6-0.8-0.9
		c-0.1,0.6-0.6,1.1-1.1,1.1c-0.6,0-0.6-0.7,0.3-2c1.4-2.1,0.7-4.8-1.6-6.4c-0.6-0.5-0.6-1.3,0.2-2.5c0.7-1.1,0.8-2,0.3-2.4
		c-0.5-0.3-0.6-1.2-0.3-2c0.4-1,0.3-1.3-0.5-0.8c-0.6,0.4-1.1,0.3-1.1-0.2c0-0.6-0.8-0.7-1.8-0.5c-1.5,0.4-1.7,0.8-0.8,2.2
		c0.5,0.9,0.6,1.8,0.4,1.8c-0.4,0,0.1,0.6,0.8,1.5c1.8,1.7,1.9,3.6,0.4,2.6c-0.7-0.5-0.8-0.2-0.5,0.9c0.4,0.8,0.3,1.4-0.1,1.1
		c-0.4-0.2-1.3-0.1-2,0.5c-1.1,0.6-1,0.8,0.5,0.8c1.1,0,1.5,0.3,0.8,0.7c-1.4,0.8-0.8,4.1,0.9,5.2c1.2,0.8,1.1,1.1-0.2,2.2
		c-0.8,0.6-1.1,1-0.6,0.7c0.6-0.3,0.9,1.4,0.8,4.8c-0.1,2.9,0.2,6,0.6,6.9c0.6,1,0.5,1.6-0.2,1.6c-1.1,0,0.6,3.8,2.2,4.8
		c0.7,0.5,0.7,1.2-0.1,2.5c-0.9,1.5-0.8,1.8,0.5,2.4c1.3,0.5,1.3,0.6,0.2,1.5c-1.2,0.7-1.2,0.9,0,1.8c1.2,0.7,1.2,1.2,0.2,2.9
		c-0.6,1-1,2.1-0.7,2.4c0.3,0.3,0.1,1.3-0.5,2.2c-0.6,1.4-0.6,1.8,0.3,1.6c0.6-0.2,1.1,0.3,0.9,1c-0.2,0.7,0.3,1,1.2,0.7
		c0.8-0.4,1.4-0.1,1.4,0.7c0,0.7-0.6,1.4-1.4,1.4s-1.4,0.5-1.4,1c0,0.5,0.4,0.7,0.7,0.5c0.7-0.4,1.1,1.5,1.1,5.7
		c0,1.2,0.4,1.9,0.8,1.6c0.6-0.3,0.8,0.4,0.7,1.4c-0.1,1-0.4,1.8-0.6,1.8c-1.4,0-0.6,4.3,1,6.2c1.2,1.1,1.7,2.5,1.3,3.1
		c-0.5,0.6-0.4,0.9,0.1,0.6c0.5-0.3,1.5,0.1,2.2,0.9c1.2,1.3,1.1,1.4-0.3,0.8c-0.8-0.3-1.6-0.2-1.6,0.4s-0.4,0.6-0.9,0.4
		c-1.5-0.9-1,3.8,0.5,5.1c1,0.8,1.1,1.5,0.5,2.3c-0.7,0.8-0.7,1.4,0,1.8c0.6,0.4,0.8,1.1,0.6,1.7c-0.2,0.6,0.3,1.7,0.9,2.3
		c1,1,1,1.6,0.1,2.7c-0.9,1.2-0.7,1.7,0.9,3c2,1.7,2,1.8,0.2,2.3c-2,0.6-2.6,2.5-0.6,2.1c0.6-0.2,1,0.6,0.8,1.8
		c-0.2,1.1,0.1,2,0.6,2s0.7,0.6,0.5,1.4c-0.4,0.7-0.2,1.4,0.4,1.4c1.5,0,2.3,4.8,0.9,5.7c-0.9,0.7-0.8,0.8,0.3,0.5
		c2.3-0.7,3.9,1.2,2.1,2.5c-1,0.8-1.2,1.7-0.6,3.3c0.5,1.3,0.7,3.5,0.6,4.9c-0.2,1.4,0.1,2.3,0.6,1.9c0.5-0.3,0.8,0.2,0.8,0.9
		s-0.4,1.7-0.9,1.9c-0.6,0.4-0.3,1.5,0.6,2.9c1.3,2,1.3,2.5,0.2,3.2c-1,0.6-1,0.8,0,0.8c0.7,0,1,0.6,0.6,1.5
		c-0.3,0.7-0.2,1.1,0.3,0.8c0.5-0.3,1.1-0.1,1.5,0.5C9889.3,20403.4,9891.4,20402.7,9891,20400.8z M9658.4,20363.9
		c1.6,1,4.7,0.2,4.7-1.1c0-0.6,0.4-0.6,1.1,0.1c0.7,0.7,1.4,0.8,2.3,0.1c0.9-0.8,1.2-0.7,1.2,0.4c0,1.2,0.4,1.2,2.3,0.4
		c1.3-0.6,2.3-1.4,2.3-1.8c0-0.4,1.2-0.3,2.7,0.2c1.5,0.4,2.9,0.5,3.3,0.2c0.3-0.4,0.9,0,1.4,0.7c0.7,1.2,0.9,1.1,0.9-0.2
		c0-1,0.7-1.7,1.8-1.7c1,0,1.8,0.5,1.8,1s0.6,0.3,1.5-0.5c0.7-0.8,1.7-1.3,2.2-1c0.4,0.3,1-0.3,1.4-1.2c0.6-1.5,0.7-1.4,1.4,0.3
		c0.6,1.4,0.8,1.5,0.8,0.4c0.1-0.8,0.7-1.8,1.6-2.1c1.7-0.6,1.4-4.8-0.4-4.4c-0.8,0.1-0.8-0.6,0.2-3c0.8-1.8,1-3,0.6-2.8
		c-1.4,0.8-2.3-2.3-1.2-4.1c0.7-1.1,0.4-2.3-1.3-4.9c-1.2-1.9-1.7-3.5-1.2-3.5c0.6,0,0.7-0.5,0.3-1.1c-0.4-0.6-0.7-2.4-0.8-3.9
		c-0.1-1.5-0.7-2.9-1.4-3.4c-1-0.6-0.8-0.8,0.6-0.9c1.6-0.1,1.6-0.2,0.3-0.6c-1.5-0.4-1.5-0.6-0.3-1.7c1.5-1.5,0.8-4.3-0.8-3.4
		c-0.6,0.3-0.7,0.3-0.4-0.2c0.4-0.4,0.1-1.8-0.6-3.2c-1.1-2.2-1.1-2.8,0.2-4.6c0.8-1.2,1.1-1.8,0.6-1.6c-0.6,0.4-1.3,0-1.6-0.8
		c-0.3-0.7-0.9-1.1-1.5-0.8c-1.7,1-2-2.1-0.5-4.5c0.9-1.3,1.2-2.4,0.6-2.4c-1.2,0-2-3.3-1-4.3c0.6-0.6,0.4-2-0.4-3.8
		c-0.6-1.7-1.5-2.8-1.8-2.4c-0.4,0.3-0.5-0.2-0.3-1.2c0.2-0.9,0.4-1.7,0.5-1.7s0.3-0.7,0.5-1.6c0.2-0.9-0.1-1.7-0.6-1.7
		c-0.6,0-0.6-0.4-0.4-0.9c0.3-0.5,0.2-0.9-0.4-0.9c-0.6,0-0.7-1.6-0.6-3.6c0.3-2.5-0.1-4-1-4.8c-1.1-0.9-1.1-1.3-0.2-1.8
		c0.9-0.6,0.9-0.8,0.1-0.8c-0.6,0-1.2-0.8-1.2-1.8c0-0.9-0.6-1.9-1.4-2.3c-1-0.4-1.3-1.3-1-2.9c0.3-1.4,0.1-3.2-0.4-4.1
		c-0.6-1-0.6-1.8,0-2.2c1.7-1,1-3.2-0.9-3.2c-1,0-1.8-0.4-1.8-0.9c0-0.5,0.6-0.9,1.4-0.9c1.7,0,1.8-1.5,0.3-2.4
		c-0.6-0.5-0.7-0.3-0.3,0.6c0.6,0.8,0.4,1-0.4,0.6c-0.6-0.5-0.9-1.3-0.6-2c0.3-0.6,0.1-1.5-0.5-1.8c-0.6-0.4-0.6-0.9,0.1-1.8
		c1.1-1.3-0.6-9.7-2-9.7c-0.4,0-0.7-0.6-0.7-1.3c0-0.7-0.5-1.5-1-1.7c-0.7-0.3-0.6-0.8,0.5-1.8c0.9-0.9,1.1-1.7,0.5-1.8
		c-0.6-0.2-1.1-2.2-1.3-4.4c-0.1-2.3-0.5-5.3-0.8-6.9c-0.4-1.5-0.7-3.5-0.8-4.3c-0.1-0.9-0.6-1.7-1-1.7c-0.5,0-0.6-0.3-0.4-0.6
		c0.4-0.3,0-1.8-0.6-3.6c-0.7-1.7-1-3.2-0.7-3.6c0.4-0.3,0.2-0.6-0.4-0.6c-0.6,0-0.8-1.4-0.6-3c0.3-2.1-0.2-3.7-1.5-5.1
		c-1-1.1-1.8-2.2-1.8-2.5c0-0.3-0.3-0.6-0.6-0.6c-1.2-0.3-3,4.1-2.2,5.2c0.9,1.2-1.1,6.3-2.2,5.3c-0.4-0.5-0.5,0-0.2,0.9
		c0.4,1,0.4,2.1,0.1,2.7c-0.8,1.4-1,9-0.2,9c0.4,0,0.5,0.6,0.2,1.4c-0.3,0.7-0.8,1.2-1.1,1.1c-0.4-0.1-0.6,0.1-0.6,0.4
		c0,0.4-0.8,1.6-1.8,2.7c-1.3,1.4-1.4,1.9-0.5,1.7c0.7-0.2,1.3,0.3,1.1,1c-0.1,0.6,0.3,1.8,0.9,2.6c1,1.3,0.9,1.4-1.1,0.7
		c-2.1-0.6-2.2-0.6-1,0.8c1,1.3,1.1,2,0.4,3.3c-0.8,1.2-0.8,1.8,0,2.7c0.6,0.6,0.6,1,0.3,1c-0.5,0-0.3,0.6,0.4,1.4
		c1.1,1.4,0.5,3.6-0.8,2.8c-0.5-0.2-0.5,1.3-0.1,3.3c0.6,2.7,0.4,4.1-0.6,5.1c-0.7,0.6-0.9,1.3-0.5,1.3c1.3,0,2.2,2.7,1.4,4
		c-1,1.6-1.1,8.9-0.1,8.9c0.4,0,0.7,0.6,0.7,1.4c0,0.7-0.6,1.4-1.4,1.4c-0.7,0-1.4,0.6-1.4,1.4s-0.6,1.4-1.1,1.4
		c-0.9,0-0.9,0.2,0,0.8c1.6,1,2,4.1,0.7,4.9c-0.6,0.5-0.3,0.7,0.8,0.7c1.4,0,1.6,0.2,0.6,0.8c-0.8,0.6-1.2,2.6-1.2,6
		c0,3.2-0.5,5.2-1.1,5.2s-0.6,0.3-0.1,0.7c0.6,0.4,1.1,1.5,1.2,2.5c0.2,1,0.6,2,1,2.3c0.9,0.6,0.9,5.5,0,5
		c-0.9-0.6-0.3,14.9,0.6,16.4c0.4,0.6,0.3,0.7-0.3,0.5c-1.7-1-1.2,5.2,0.5,6.5c0.8,0.6,1.1,1,0.6,0.7c-1.7-0.8-2.1,1.6-1.3,5.5
		c0.7,3.1,0.6,3.4-0.5,1.9c-1.1-1.5-1.2-1.4-1.1,1.4c0.1,1.7,0.6,3.3,1.1,3.7c0.6,0.5,0.3,0.7-0.6,0.7c-1,0-1.4,0.5-1.1,1.4
		c0.4,0.7,1,1.1,1.6,0.7c0.5-0.3,0.6-0.1,0.4,0.5c-0.8,1.2,0.2,4.1,1.2,3.4c0.5-0.3,1.1-0.1,1.4,0.5c0.4,0.6,0.1,0.8-0.6,0.7
		c-0.6-0.2-1.3,0.7-1.5,1.9c-0.3,1.5,0,1.9,0.8,1.5c0.7-0.5,0.9-0.4,0.5,0.4c-0.4,0.6-1.1,0.8-1.6,0.5c-0.6-0.4-0.8,0.6-0.6,2.3
		c0.3,1.8,0.1,2.9-0.6,2.9c-0.7,0-0.6,0.4,0.2,0.8c0.9,0.6,1,1.2,0.3,2.5c-0.7,1.4-0.6,2.2,0.6,3.5c0.8,1,1,1.5,0.5,1.1
		c-0.8-0.5-1-0.2-0.6,0.8c0.4,0.8,1.8,1.7,3.2,2c1.5,0.3,2.9,0.9,3.2,1.4c0.4,0.6,0.8,0.6,1.2,0
		C9657,20363.6,9657.7,20363.5,9658.4,20363.9z M9638,20362.7c-0.3-0.6-0.8-0.9-1.4-0.8c-0.6,0.2-0.5-0.8,0.4-2.3
		c1.1-2.2,1.1-2.6-0.2-3.5c-0.9-0.7-1-1.2-0.3-1.5c1.4-0.5,1.8-9.9,0.5-9.9c-0.6,0-0.3-0.5,0.6-1c0.8-0.5,1.6-1.4,1.6-1.8
		c0-0.6-0.3-0.7-0.6-0.6c-0.5,0.3-1.3-0.1-1.9-0.8c-0.9-1-0.9-1.3,0.1-1.3c1.6,0,2.8-3.4,1.5-4.2c-0.5-0.3-0.6-0.8-0.4-1.3
		c0.3-0.5,0.1-1-0.4-1.3c-0.8-0.6,0-5.8,1.2-7.7c0.3-0.6-0.3-1.3-1.3-1.6c-1.5-0.5-1.7-0.9-0.9-1.8c0.6-0.7,1-2.9,1-4.8
		c0-9.1-0.4-13.7-1.2-14.7c-0.5-0.6-0.5-1.3,0.1-1.6c0.5-0.3,0.7-1.3,0.6-2.2c-0.1-0.8,0.3-2.1,0.8-2.9c0.7-1,0.7-1.2-0.1-0.6
		c-0.6,0.4-1.2,0.2-1.2-0.3c0-0.6,0.5-1,0.9-1c0.6,0,0.9-1.5,0.9-3.2c0-1.9-0.5-3.2-1.1-3.2c-0.8,0-0.7-0.4,0.2-0.9
		c0.7-0.5,1.1-0.9,0.7-0.9s-0.3-1,0.2-2.3c0.5-1.2,0.6-2.4,0.2-2.7c-0.6-0.4-0.7-5.7-0.2-7c0.6-1.5,0.4-3.5-0.6-5.3
		c-0.7-1.1-0.9-2-0.6-1.9c2,0.4,2.3-0.3,0.6-1.6c-0.9-0.7-1.3-1.2-0.7-0.9c1.7,0.9,2.3-2.1,0.6-3c-1.1-0.7-1.2-0.9-0.3-1
		c0.7,0,1-0.3,0.7-0.6c-0.4-0.3-0.1-1.2,0.5-1.9c0.9-1,0.8-1.6-0.5-2.5c-0.8-0.6-1.3-1.3-1-1.6s0.6-1.8,0.8-3.1
		c0.2-1.5,0.4-2.9,0.4-3.1c0.1-0.3,0.6,0.2,1.1,0.9c0.7,1,0.8,0.8,0.3-0.9c-0.4-1.3-1-2.4-1.4-2.6c-1.1-0.5-1-3.6,0.1-4.3
		c0.5-0.3,0.6-1.1,0.4-1.8c-0.4-0.7,0.1-1.7,0.9-1.9c1.3-0.5,1.3-0.7-0.1-2.8c-1-1.6-1.1-2.2-0.4-2c0.6,0.2,1.6-0.6,2-1.8
		c0.6-1.6,0.5-2.2-0.6-2.7c-1.2-0.5-1.2-0.6-0.2-1.3c0.7-0.6,0.8-0.8,0.1-0.8c-0.6,0-0.8-0.8-0.6-1.8c0.3-1,0.8-1.7,1.2-1.4
		c0.5,0.3,0.6-0.2,0.6-1.1c-0.2-0.8-1-1.8-2-2.1c-1.7-0.6-1.7-0.6,0.2-1.7c1.1-0.6,2.3-0.7,2.8-0.4s0.3,0-0.4-0.9
		c-0.9-1.1-0.9-1.7-0.2-2.1c0.6-0.4,0.9-1.8,0.7-3.3c-0.3-1.9,0-2.7,1-2.8c0.8,0,1-0.3,0.4-0.5c-1.2-0.6,0.3-5.9,1.9-7
		c0.6-0.5,0.5-0.7-0.5-0.7c-0.8,0-1.5-0.6-1.5-1.4s0.4-1.1,0.8-0.8c0.4,0.3,0.7-0.8,0.7-2.4s0.4-2.7,0.8-2.4c0.5,0.3,1-0.5,1.2-1.7
		c0.3-1.2,0.1-2-0.3-1.8c-0.5,0.3-0.8,0.3-0.8,0c0-0.2-0.3-1.1-0.6-2c-0.4-1-0.2-1.4,0.4-1c0.7,0.5,3.2-3.3,3.2-4.9
		c0-0.3,0.6-1.1,1.2-1.8c0.8-0.9,1.2-2.9,1-4.9c-0.2-1.8,0-3.7,0.5-4c1.2-0.7,0.7-7-0.6-8.7c-1.5-1.8-1.4-4.8,0-4.2
		c0.6,0.2,1.1-0.2,1.1-0.9s-0.5-1.3-1.1-1.3c-0.6,0-1.1-0.7-1.2-1.6c-0.3-3-0.6-4.4-1.5-5.7c-0.6-0.9-0.5-1.1,0.2-0.6
		c1.6,0.9,1.4,0-0.4-1.7c-0.7-0.8-1-1.5-0.5-1.5c0.9,0,0.8-1-0.6-4.3c-0.4-0.9-0.7-2.7-0.8-4c-0.1-1.3-0.2-2.9-0.3-3.4
		c0-0.6-0.8-1.2-1.7-1.2c-1.4,0-1.3-0.2,0.3-1.4c1.3-1,1.4-1.3,0.3-0.8c-1.9,0.6-3.2-1.1-1.4-1.7c1.4-0.6,1-4.3-0.4-4.3
		c-1.1,0-1.7-4.6-0.6-4.7c0.6,0,0.6-0.2-0.1-0.5c-0.6-0.3-0.8-1.1-0.6-1.8s-0.3-2.2-1.1-3.1c-0.9-1-1.4-1.8-0.9-1.8
		c0.4,0,0.2-0.6-0.5-1.4s-0.8-1.4-0.5-1.4c0.5,0,0.1-0.7-0.7-1.7c-0.9-0.9-1.3-2-0.9-2.3c0.3-0.4-0.1-0.6-0.9-0.6
		c-1.8,0-2-1.8-0.4-3.6c0.9-1,0.9-1.2,0-0.6c-0.7,0.4-1.2,0.1-1.3-0.7c-0.1-0.8-0.2-2-0.3-2.6c-0.1-0.6,0.2-1.7,0.6-2.3
		c0.5-0.6,0.5-1.3-0.2-1.7c-0.6-0.3-0.6-1-0.4-1.6c0.4-0.6,0.2-0.7-0.4-0.4c-0.6,0.4-1.3-0.6-1.7-2.9c-0.4-1.9-1.1-3.8-1.6-4.1
		c-0.6-0.4-0.6-1,0.1-1.9c0.9-1.1,0.9-1.4-0.4-1.2c-1.9,0.1-4.7-7.7-3-8.7c0.6-0.4,0-1.3-1.4-2.1c-1.7-1.1-2.2-2.1-1.8-3.8
		c0.2-1.3-0.1-2.6-0.6-2.9c-0.7-0.5-0.8-0.3-0.4,0.6c0.6,0.9,0.4,1.1-0.8,0.6c-0.9-0.4-2.1-0.6-2.7-0.6s-0.2-0.6,0.9-1.4
		c1.7-1.2,1.8-1.8,1.1-4.4c-0.5-1.6-1.4-3.4-2.1-3.9c-0.6-0.6-1.6-2.7-1.9-4.9c-0.4-2.3-1.1-3.9-1.8-3.9c-0.6,0-1.1-0.7-1-1.6
		c0.3-1.7-1.4-4.1-2.3-3.4c-0.3,0.2-0.6-0.3-0.6-1c0-0.7,0.4-1.1,0.8-0.8c0.4,0.3,0.7,0.1,0.7-0.5c0-0.5-0.5-1.2-1-1.6
		c-0.6-0.3-0.8-1.4-0.6-2.3c0.3-1.1-0.2-1.8-1.4-2.3c-1.2-0.4-1.6-0.8-0.9-1.5c0.6-0.6,0.5-1.8-0.5-3.6c-0.7-1.5-1.1-3-0.8-3.4
		c0.3-0.5,0-0.8-0.6-0.9c-4.7-0.4-5.2-0.6-4.1-1.8c0.7-0.9,0.6-1.8-1-3.1c-1.1-1-1.8-2.2-1.5-2.7c0.4-0.6-0.2-0.6-1-0.3
		c-1.1,0.5-1.4,0.3-0.8-0.6c0.6-0.9,0.2-1-1.5-0.6c-1.3,0.3-1.7,0.3-1.1-0.2c2.1-1.6-0.9-3.7-6.6-4.6c-1.5-0.3-3-0.9-3.4-1.5
		c-0.5-0.7-0.7-0.6-0.7,0.6c0,1.8-0.4,1.9-2.9,0.5c-1.6-1-2-0.9-3.2,0.6c-0.7,1-1.3,1.3-1.3,0.6s-0.5-0.8-0.9-0.6
		c-0.6,0.4-1.6,0.1-2.3-0.5c-1.1-0.9-1.4-0.8-1.4,0.3c0,0.7-0.8,1.6-1.9,1.8c-1.4,0.4-1.7,0.2-1.4-0.8c0.8-2.1-0.7-1.5-1.7,0.6
		c-0.6,1.1-1.2,1.8-1.6,1.7c-0.3-0.2-1.7,0.9-2.9,2.4c-1.3,1.6-2.5,2.4-2.5,1.8c-0.1-0.5-0.4,0.6-0.7,2.3c-0.4,2-1.1,3.2-1.9,3.2
		c-1.3,0-2.8,1.5-2.9,2.9c0,0.5-0.5,1.3-1,1.9c-0.6,0.6-0.6,1.1-0.4,1.1c0.4,0,0.1,0.9-0.6,2.1c-1.1,2-1.3,2.6-1.6,4.4
		c0,0.5-0.5,0.7-0.9,0.5c-0.5-0.3-1.1,0.5-1.4,1.7c-0.4,1.3-1.2,2.3-1.9,2.3s-1.4,0.5-1.4,1c0,0.5,0.5,0.6,1,0.3
		c0.7-0.4,0.7,0,0,1.4c-0.8,1.5-0.8,1.8,0.2,1.5c0.7-0.4,1.2,0.2,1.2,1.4c0,1.1-0.6,1.8-1.5,1.6c-0.8-0.1-1.3,0.5-1.3,1.4
		c0.1,0.9-0.2,1.4-0.6,1.1c-0.5-0.3-0.8,0-0.8,0.5c0,0.6,0.6,1,1.2,1c0.7,0,0.8,0.3,0.1,0.7c-0.6,0.4-1.6,1.7-2.2,2.9
		c-0.9,1.7-0.9,2,0.2,1.4c0.9-0.6,1-0.5,0.2,0.6c-1.4,1.8-2.2,5.4-1.2,5.4c0.5,0,0.8,0.5,0.8,1c0,0.5-0.4,0.7-0.8,0.5
		c-1.3-0.8-2,4.9-0.9,7c0.7,1.4,0.7,1.8-0.1,1.2c-0.6-0.4-1.2,0.1-1.6,1.3c-0.3,1-0.9,1.7-1.5,1.3s-0.7,0-0.4,0.9
		c0.3,0.8,0.2,1.8-0.4,2c-0.5,0.4-0.6,1.1-0.2,1.7c0.4,0.6,0.6,1.8,0.5,2.7c-0.2,0.8,0.2,1.8,0.7,2.1c0.6,0.4,0.4,1.1-0.6,2.1
		c-1.1,1.1-1.2,1.6-0.4,1.8c0.9,0.4,0.9,0.6,0,1.1c-1.7,1.1-1.9,5.3-0.3,5.9c1.2,0.5,1.2,0.8,0.2,2c-0.7,0.8-1.4,3.4-1.6,5.7
		c-0.1,2.4-0.6,4.5-0.9,4.8c-0.8,0.6-0.8,3.8,0.1,5.2c0.7,1.2,0.5,7.6-0.4,7.1c-0.3-0.2-0.5,1.5-0.5,3.6c0.1,2.1-0.4,4.9-0.9,6.2
		c-0.9,1.8-0.8,2.7,0.2,4.1c0.6,0.9,1,2.1,0.7,2.6c-1,1.6-1.1,8.6-0.1,9.8c0.6,0.8,0.5,1.7-0.6,2.8c-1,1.1-1.2,2-0.6,3.1
		c0.6,1,0.5,1.9-0.5,2.9c-1.1,1.1-1.2,1.7-0.1,3.8c0.7,1.3,1.1,2.4,0.9,2.4c-0.3,0-0.1,0.9,0.4,2c0.6,1.5,0.3,2.9-0.7,4.3
		c-1.4,2.2-1.4,2.3,0.2,1.7c1-0.4,2.2-0.1,3,0.7c1.3,1.2,1.2,1.4-0.6,1.4c-1.6,0-1.9,0.5-1.7,1.7c0.3,0.9,0,2.4-0.6,3.3
		c-1,1.3-1,2,0,4c0.7,1.4,1,2.9,0.7,3.3c-0.3,0.6-0.6,2.7-0.7,4.9c-0.2,2.8,0.2,4.1,1.1,4.5c1.1,0.4,1.2,0.7,0.3,1.8
		c-0.6,0.7-0.7,1.4-0.3,1.4c0.6,0,0.7,1,0.5,2.3c-0.2,1.4,0,2.3,0.6,2.3s0.8,0.5,0.4,1.2c-0.4,0.6-0.8,1.8-0.9,2.9
		c-0.2,1.2,0.1,1.6,1.2,1.1c1.4-0.6,1.4-0.4,0,1.7c-0.8,1.3-1.1,2.5-0.6,2.8c0.5,0.3,0.6,3.9,0.6,7.9c-0.2,4.2,0.1,7.4,0.6,7.4
		c0.5,0,0.6,0.5,0.3,0.9c-0.3,0.6,0,0.9,0.6,0.9c0.9,0,0.9,0.2-0.1,0.8c-0.8,0.6-0.9,1-0.2,1.4c0.6,0.4,0.7,1.1,0.5,1.7
		c-0.4,0.6-0.2,0.7,0.4,0.4c0.6-0.4,1.2-0.2,1.2,0.3c0.1,0.6,0.3,1.5,0.4,1.9c0.1,0.6,0.3,1.6,0.4,2.3c0,0.7,0.6,1.1,1.3,0.8
		c0.7-0.3,1.3,0.2,1.3,1c0,0.8-0.6,1.3-1.1,1c-0.6-0.2-1.1,0.2-1.1,0.9c0,0.6,0.6,1.5,1.3,1.7c0.7,0.3,1,0.9,0.7,1.5
		c-1.2,1.9-1.3,4.6,0,4.6c0.8,0,1.1,1.1,1,3.8c-0.2,2.1,0.3,4.3,0.9,5s0.9,1.4,0.6,1.8c-0.4,0.3,0.1,0.6,1,0.6c0.8,0,1.3,0.5,1,0.9
		c-0.3,0.6-0.2,0.9,0.4,0.9c0.9,0,0.8,1.8-0.2,3.5c-0.5,0.6-0.3,1.1,0.3,1.1c0.6,0,0.7,0.6,0.2,1.5c-0.9,1.7-0.4,5,0.8,5
		c0.5,0,0.6,0.6,0.3,1.3c-0.3,0.6,0.2,1.9,1,2.8c0.8,0.8,1.2,1.5,0.7,1.5c-0.4,0-0.1,0.5,0.7,0.9c0.9,0.6,1.8,2.8,2.2,5.1
		c0.3,2.4,1.2,4.5,1.8,4.8c0.7,0.2,1.6,1.2,1.8,2.2c0.4,1,0.9,1.6,1.2,1.4c0.4-0.2,1.5,0.3,2.5,1c1.5,1.2,1.6,1.4,0.3,0.9
		c-0.9-0.4-1.7-0.2-1.7,0.3c0,0.5-0.7,0.6-1.6,0.3c-1.5-0.6-1.6-0.5-0.3,1.2c0.7,0.9,1.6,1.9,1.9,2.2c0.3,0.3,1.2,2.4,2.1,4.9
		c1.4,3.6,2,4.3,4,4.3c1.9,0,2.1,0.3,1.3,1.3c-0.8,0.9-0.7,1.4,0.3,1.7c0.8,0.4,1.1,1.3,0.8,2.4c-0.3,1.2,0.4,2.6,1.7,4.1
		c1.2,1.2,2,2.7,1.8,3.2c-0.2,0.6,0.3,1.1,1.1,1.1c0.8,0,1.2,0.6,0.9,1.2c-0.3,0.7,0.2,1.8,1,2.5c0.7,0.6,1.4,0.8,1.4,0.5
		c0-0.4,0.6-0.2,1.3,0.5c0.7,0.6,1.1,1.7,0.8,2.4s0,1.3,0.6,1.3s0.7,0.6,0.5,1.3c-0.3,0.8,0.5,1.6,2.2,2.2c1.6,0.6,3.1,2,3.8,3.8
		c0.7,1.6,1.6,2.6,2,2.3c0.5-0.3,0.8,0.2,0.8,0.9s1,1.5,2.5,1.7c2.7,0.3,4.1,2.6,1.7,2.6c-0.8,0-1.2,0.5-0.9,0.9
		c0.4,0.6,0.9,0.7,1.4,0.5c0.4-0.3,0.9-0.1,1.1,0.4c0.1,0.5,0.9,1,1.7,1.2c0.7,0.2,1.9,1,2.6,1.9c0.6,0.8,1.7,1.6,2.4,1.6
		c1.3,0,5.3,3.1,5.2,4.1c-0.3,1.8,0.2,2.1,2.7,2.2c5.1,0.3,5.2,0.5,4.8,2.3c-0.4,1.4-0.1,1.7,1.3,1.2c0.9-0.3,2.4-0.1,3.1,0.4
		c0.7,0.5,1,0.9,0.5,0.9c-0.5,0.1,0.6,0.6,2.3,1.2c2.2,0.8,3.4,0.8,3.9,0.2c0.5-0.6,0.7-0.3,0.7,0.7c0,1.2,0.8,1.6,3.7,1.6
		c2.3,0,4,0.5,4.2,1.2s1.1,1.3,1.8,1.3S9638.2,20363.2,9638,20362.7z M9890.1,20361.3c0.3-0.5,0.1-1.1-0.5-1.5
		c-0.5-0.3-0.9,0.1-0.9,0.8C9888.7,20362.3,9889.3,20362.6,9890.1,20361.3z M9706.4,20351.8c0-0.8,0.4-0.7,0.9,0.2
		c0.7,1.1,0.9,0.9,0.7-0.9c-0.3-1.8,0.2-2.3,2.5-2.8c1.9-0.4,2.9-1.1,3-2.6c0.2-1.1,0.6-1.8,1-1.7c0.4,0.3,1.2,0.1,1.9-0.5
		c1-0.6,1.1-0.8,0.2-0.8c-0.6,0-0.9-0.5-0.6-0.9c0.5-0.7,1-0.6,1.9,0.1c1,0.8,1.3,0.7,1.3-0.5c0-0.8,0.6-1.5,1.4-1.5s1.4-0.5,1.4-1
		c0-0.5,0.4-0.7,0.8-0.4c0.6,0.3,1.4-0.4,1.9-1.4c0.6-1,1.4-1.7,1.9-1.4c0.5,0.4,0.7,0.3,0.6-0.2c-0.2-0.5,0.8-2,2.3-3.5
		c1.4-1.5,2.5-3.2,2.5-3.9s0.4-1.2,0.9-1.2c0.5,0,1.1-1,1.5-2.3c0.3-1.3,1.1-2.3,1.8-2.3c0.7,0,1.3-0.6,1.3-1.5c0-1.8,4.2-6,5.2-5.1
		c0.4,0.3,0.4-0.4,0.1-1.6c-0.3-1.1-0.1-1.8,0.4-1.5c0.5,0.3,0.8-0.6,0.8-1.8s0.5-2.4,1-2.4c1.7,0,5.4-4.9,5.4-7.1
		c0-1.1,0.5-2.3,0.9-2.6c0.6-0.4,0.7-1,0.5-1.5c-0.4-0.5-0.1-1.6,0.4-2.4c0.7-1.3,0.9-1.4,1-0.3c0,0.8,1,0.2,2.8-1.8
		c1.5-1.7,2.5-3.4,2.2-3.9c-0.3-0.5,0-0.8,0.5-0.8c1.1,0,0.9-2.5-0.2-4.3c-0.5-0.7-0.3-1.2,0.6-1.2c0.7,0,1.9-1.2,2.8-2.8
		c0.9-1.9,1-2.8,0.3-2.8c-0.6,0,0.5-1.5,2.4-3.2c1.9-1.8,2.9-3.2,2.3-3.2c-0.8,0-0.8-0.3,0.2-0.9c1.2-0.8,1.2-0.9,0-0.9
		c-0.8,0-1-0.3-0.5-0.7c0.9-0.6,1.6-2.5,1.7-4.5c0-0.6,0.3-1.2,0.6-1.2c0.6,0,3.2-6.5,2.9-7.6c-0.1-0.5,0.3-0.7,0.8-0.7
		c0.8,0,0.8-0.4,0-1.3c-0.7-0.9-0.6-1.8,1-3.5c1.2-1.3,2.2-2.9,2.4-3.5c0.2-0.7,1-1.8,1.8-2.5c1.5-1.1,1.5-1.2,0-0.6
		c-0.9,0.3-1.7,0.1-1.7-0.5s0.6-1,1.4-1c1.3,0,1.7-1.3,1.7-4.3c-0.1-0.6,0.3-1.2,0.6-1.2s1-1,1.3-2.3c0.4-1.3,0.9-2.2,1.4-1.9
		c0.4,0.3,0.7-0.1,0.7-0.8s-0.4-1.4-0.8-1.4c-1.3,0-0.8-3.7,0.6-4.2c0.8-0.3,1.2-1.8,1-4.6c-0.1-2.9,0.3-4.4,1.5-5.5
		c0.9-0.8,1.5-1.8,1.3-2.3c-0.3-0.4-0.1-1,0.5-1.3c0.7-0.5,0.7-1,0-1.8c-0.7-0.9-0.7-1.8-0.1-3.1c0.6-1,1-2.7,1-3.8
		c0-1.2,0.4-1.7,1.1-1.3c0.6,0.4,0.7,0.3,0.5-0.3c-1-1.6-1.5-5.9-0.6-5.3c0.5,0.4,0.8-0.2,0.8-1.1c0-0.9,0.6-2.9,1.4-4.2
		c0.8-1.7,0.9-2.3,0.2-1.8c-0.7,0.5-0.7,0.2,0.1-0.8c0.8-1,0.9-1.7,0.2-2.1c-0.6-0.4-0.5-1,0.5-1.9c1.6-1.7,1.8-2.8,0.5-3.6
		c-0.8-0.6-0.7-1.2,0.6-4.6c0.4-1,0.6-2.5,0.5-3.3c-0.1-0.8,0.5-1.8,1.3-2c1.8-0.7,1.7-2.4-0.2-4.6c-0.9-1-1.1-1.6-0.5-1.2
		s1.2,0.2,1.2-0.6c0.1-0.6,0.3-2.4,0.5-4c0.2-1.5,0.6-5.9,0.7-9.7c0.6-9.1,0.6-9.2,2.3-9.2c1.1,0,1.2-0.2,0.3-0.8
		c-0.7-0.5-1-1.7-0.6-3.4c1.1-5.3,1.2-7.3,0.4-8.8c-0.6-1.2-0.6-1.5,0.5-1.1c0.7,0.3,1.6,0,2-0.6c0.4-0.7,0.3-0.9-0.4-0.5
		c-1,0.6-1.6-0.6-1.1-2.7c1.4-6.5,1.6-18,0.4-19.3c-1.3-1.3,0.2-4.5,1.7-3.6c0.6,0.4,0.6-0.2-0.2-1.4c-0.6-1.1-1.3-1.7-1.7-1.6
		c-0.4,0.3-0.5-0.7-0.3-2.3c0.3-1.6,0-2.7-0.6-2.7c-0.6,0-1-1.2-1-2.8c0-2.2-0.3-2.6-1.6-2.1s-1.5,0.3-0.6-0.6
		c0.9-0.9,0.5-1.6-1.8-2.9c-1.7-0.8-2.9-2-2.7-2.6c0.1-0.6-0.4-1-1.1-1c-0.7,0-1.6-1.3-1.9-2.8c-0.4-1.6-0.9-2.6-1.4-2.3
		c-0.4,0.3-1.2-0.2-1.8-0.9c-0.6-0.7-1.8-1.4-2.6-1.4c-0.7,0-1.2-0.3-0.8-0.6c0.3-0.3-0.6-1.6-1.9-2.9c-1.4-1.3-2.4-2.8-2.2-3.2
		c0.1-0.5-0.3-0.6-0.8-0.2c-0.8,0.5-0.9,0.2-0.5-1c0.5-1.4,0.4-1.5-0.8-0.5c-1.2,1-1.8,0.9-3.3-0.7c-1-1.1-2.7-2-3.6-2
		c-1,0-1.8-0.6-1.8-1.4s-0.5-1.4-1-1.4c-0.5,0-0.6,0.6-0.4,1.2c0.4,0.6,0,0.5-0.6-0.5c-0.8-1-2.1-1.3-3.9-1c-1.8,0.4-2.5,0.2-2-0.5
		c0.6-1-1.1-1-2.8,0.1c-0.6,0.4-2.5,0-4.2-0.6c-2.8-1.2-3.5-1.2-5.9,0c-1.5,0.8-3.8,1.2-5.2,0.9c-1.9-0.4-2.6-0.1-3,1.4
		c-0.6,1.6-0.8,1.7-2.1,0.6c-1.1-0.9-1.3-0.9-0.7,0c0.5,0.7,0,1.1-1.3,1.1c-1.4,0-1.8,0.5-1.6,1.4c0.9,2.2-1,2.5-2.5,0.3
		c-0.8-1.1-1.5-1.6-1.5-0.9c0,0.6-0.6,1.1-1.4,1.1s-1.4,0.4-1.4,0.8c0,0.5-1.4,1.1-2.9,1.5c-1.7,0.4-2.5,0.8-1.8,1.1
		c2,0.8,1.2,2.8-1,2.4c-1.7-0.4-2.7,0.4-4.7,3.4c-1.8,2.9-3,3.8-4.3,3.4c-0.9-0.3-1.6-0.1-1.3,0.3c0.3,0.5-1.2,2.6-3.3,4.7
		c-2.9,2.9-3.6,4.3-3.2,5.9c0.6,2.2-1.7,4.1-2.6,2c-0.2-0.6-0.5-0.5-0.5,0.4c-0.1,0.8-0.9,1.8-2,2c-1.1,0.3-1.7,0.9-1.4,1.4
		c0.3,0.6,0.3,1.1-0.1,1.3c-0.5,0.1-1.5,1.6-2.3,3c-0.9,1.6-2.2,2.7-3,2.7c-1-0.1-1.2,0.2-0.5,0.9c0.5,0.6,0.6,1.5,0.3,1.8
		c-0.4,0.3-0.7,1.4-0.9,2.4c-0.6,3.7-0.8,4.2-3,6.2c-1.3,1.2-2,2.1-1.6,2.1c0.4,0,0.1,1.3-0.7,2.8c-0.8,1.6-1.1,2.8-0.7,2.8
		c0.5,0-0.4,0.7-1.7,1.7c-2,1.3-2.3,1.9-1.5,2.8c0.8,0.8,0.8,1.1-0.2,1.1c-0.6,0-0.9,0.3-0.6,0.6c0.4,0.3,0,1.3-0.7,2.1
		c-0.7,0.8-1.5,3.3-1.7,5.5c-0.2,3.4-0.6,4.1-2.3,4.6c-2.7,0.6-2.9,1.1-1.1,3.2c0.7,1,0.9,1.5,0.3,1.1c-0.6-0.4-1.3-0.3-1.7,0.3
		c-0.3,0.5-0.1,0.9,0.4,0.9c0.6,0,1,0.4,1,0.8c0,0.6-0.8,0.7-1.8,0.6s-1.7-0.1-1.7,0.3c0.4,2.4-0.2,3.9-1.2,3.3
		c-0.9-0.6-0.9-0.5-0.1,0.6c0.9,1.1,0.8,1.9-0.2,4c-0.9,1.7-1.1,3-0.5,4.2c0.9,1.8,0.4,2.9-1.3,2.2c-0.6-0.2-1.1,0.3-1.2,1.2
		c-0.1,0.9-0.3,2.5-0.6,3.5c-0.2,1,0,2.4,0.5,2.9c0.6,0.6,0.6,2.2,0.4,3.6c-0.5,1.8-0.3,2.2,0.5,1.7c0.8-0.5,0.9-0.1,0.6,1.3
		c-0.4,1.1-0.3,2,0.2,2c0.4,0,0.9,0.7,1.3,1.7c0.3,0.8,1,2.3,1.7,3.2c1,1.4,0.9,1.8-0.6,3c-1.5,1-1.6,1.3-0.4,1.3
		c0.7,0,1.9,0.6,2.5,1.3c0.8,1,0.6,1.1-1.3,0.7c-2.4-0.4-3.1,1-1.2,2.2c0.6,0.5,0.7,0.2,0.3-0.6c-0.5-0.7-0.4-1,0-0.6
		c0.7,0.6,1,1.9,1.6,6c0.1,0.6,0.6,1,1.1,0.8c0.6-0.3,1.1,1.8,1.2,5.6c0.1,3.3,0.6,6.4,1.1,6.9c0.5,0.5,0.6,1.5,0.4,2.2s0,1.2,0.6,1
		c0.6-0.2,1.4,0.3,1.6,0.9c0.3,0.6,0,1.1-0.5,1.1c-1.3,0-0.7,7.9,0.7,9.6c0.6,0.7,0.9,2.3,0.8,3.5c-0.2,1.2,0.5,3.5,1.4,5.2
		c0.9,1.7,1.4,3.7,1.1,4.4c-0.3,0.8,0.1,1.3,1.1,1.4c0.9,0,1.1,0.3,0.5,0.6c-1.4,0.6-1.6,3.2-0.3,4.5c0.5,0.5,0.9,2.2,1.1,3.9
		c0.1,1.8,0.7,2.9,1.6,2.9c1.1,0,1,0.3-0.3,1.2c-1.4,1-1.5,1.5-0.4,3.9c0.6,1.6,1.7,3.1,2.4,3.5c1,0.6,0.9,1.1-0.5,2.1
		c-1.5,1.2-1.4,1.2,0.9,0.4c2-0.7,2.5-0.6,2.5,0.5c0,0.7-0.4,1.4-0.9,1.4c-0.5,0-0.9,0.8-0.9,1.8c0,1,0.5,1.8,1.1,1.8
		c0.8,0,0.8,0.3,0,1.1c-1.3,1.3-1.5,5.3-0.3,5.3c0.9,0,0.6,2.9-0.4,4.5c-0.3,0.5,0,1.2,0.6,1.6c0.7,0.5,0.8,0.3,0.4-0.6
		c-0.5-0.8-0.4-1,0.4-0.6c0.6,0.4,1,1.4,0.9,2.2c-0.4,4.2,0.1,6.5,1.4,6.1c1.6-0.6,2.9,1.1,1.5,1.9c-0.6,0.4-0.6,1-0.4,1.6
		c0.4,0.6,0,1.3-0.6,1.7c-1,0.6-1,0.8,0.3,0.8c1.7,0,2,3.7,0.4,4.8c-0.6,0.4-0.3,1.6,0.7,3c0.8,1.3,1.5,3.1,1.3,4
		c-0.1,0.8,0.1,2.1,0.6,2.9c0.6,1,0.6,1.1-0.5,0.6c-1-0.6-1.1-0.6-0.2,0.6c0.6,0.7,0.9,1.7,0.6,1.9c-0.3,0.4-0.1,0.6,0.5,0.6
		c0.6,0,1.1,0.6,1.1,1.5c0,0.7,0.4,1.2,0.7,0.9c0.9-0.6,0.8,2.2-0.1,3.8c-0.4,0.6-0.3,1.4,0.3,1.7c0.6,0.4,0.7,1.4,0.5,2.3
		c-0.3,0.9-0.1,1.9,0.5,2.3c0.6,0.4,0.6,1.2-0.1,2.5c-0.8,1.5-0.7,1.8,0.1,1.2c0.9-0.6,1-0.1,0.6,1.8c-0.4,1.4-0.2,2.4,0.4,2.4
		c0.5,0,0.9,0.8,0.9,1.8c0,1,0.6,1.9,1.2,2.2c0.8,0.3,0.8,0.6-0.1,1.7c-0.8,1-0.9,1.7-0.2,2.1c0.6,0.4,0.8,1.1,0.7,1.7
		c-0.1,0.6,0.3,2,0.9,3.2c0.8,1.3,0.8,2,0.2,2s-0.6,0.5,0.2,1.3c0.6,0.6,1.7,1,2.3,0.8c1.3-0.5,1.1,1.3-0.5,4.1
		c-1.4,2.4-1.4,3-0.2,3C9706,20352.9,9706.4,20352.3,9706.4,20351.8z M9772.7,20335c0-1-1.8-1.4-2.3-0.6c-0.3,0.5,0.1,0.9,0.8,0.9
		C9772.1,20335.4,9772.7,20335.2,9772.7,20335z M9882.6,20308.3c0.4-0.9,0.1-1.2-0.7-0.8c-0.7,0.3-1.1,0.8-0.8,1.3
		C9881.6,20309.9,9882,20309.8,9882.6,20308.3z M9787.2,20295.6c-0.3-0.7-0.6-0.5-0.6,0.6c-0.1,1,0.2,1.6,0.5,1.2
		C9787.3,20297.1,9787.4,20296.3,9787.2,20295.6z M9783.3,20266.6c-0.2-0.9-0.4-2-0.4-2.4c-0.1-0.5-0.5-0.6-0.9-0.3
		c-0.5,0.4-1,0-1.3-0.6c-0.2-0.6-0.4,0.2-0.5,1.8c0,2.3,0.3,2.9,1.7,2.9C9783,20268.2,9783.5,20267.6,9783.3,20266.6z
		 M9855.2,20248.3c0.2-0.9-0.3-2.9-0.9-4.1s-1.1-3-0.9-3.9c0.1-0.8-0.2-1.6-0.6-1.6c-1.5,0-0.9-2.7,0.9-4.5c1.5-1.5,1.6-1.8,0.5-2.3
		c-0.8-0.3-1.1-1-0.7-1.7c1.4-2.1,1.2-12.6-0.2-14c-1-1.1-1-1.4,0.4-1.9c1.5-0.6,1.5-0.6,0-1.5c-0.9-0.6-1.7-1.4-1.7-2
		s0.4-0.6,0.9,0.3c0.7,1.2,0.9,1.1,0.9-0.2c0-0.9-0.6-1.7-1.1-1.7c-0.7,0-0.8-0.3-0.3-0.7c1.4-0.9,1-6.6-0.4-7.5
		c-0.8-0.6-0.9-0.9-0.2-1.4c1.4-0.9,0.2-2.7-1.4-2c-0.9,0.4-1,0-0.4-1.7c0.7-1.9,0.6-2.3-0.8-2.3c-1.4,0-1.7-0.6-1.5-2.8
		c0.1-1.5-0.1-2.8-0.6-2.8c-0.5,0-0.8-0.5-0.8-1c0-0.5,0.5-0.6,1-0.4c0.6,0.4,0.5-0.2-0.3-1.3c-1.7-2.7-2.4-2.4-1.8,0.5
		c0.3,1.6,0.1,2.3-0.5,1.9c-1-0.6-0.5,3.7,0.6,5.3c0.4,0.6,0.6,3.5,0.6,6.7c-0.1,3.1,0.1,5.7,0.5,5.7s0.6,1.7,0.4,3.7
		c-0.3,3.2,0,3.9,1.7,4.6c2,0.8,2,0.8-0.3,0.9c-1.3,0.1-1.8,0.4-1.3,0.6c0.6,0.3,0.8,1.5,0.6,2.8c-0.3,1.4,0.1,2.7,0.6,3.1
		c0.9,0.5,0.8,0.9-0.1,1.9c-1.7,1.8-1.5,8.1,0.5,11.6c1.4,2.5,1.4,3.2,0.3,6c-1,2.4-1.3,5.7-0.6,7.9c0.1,0.1,1-0.2,2-0.8
		c1.4-0.7,1.7-0.7,1.4,0c-0.4,0.6-0.2,1,0.4,1s0.8,0.4,0.6,0.8c-0.4,0.5,0.1,0.7,1,0.6
		C9854.3,20250.1,9855.1,20249.3,9855.2,20248.3z M9877.2,20230.7c0.7-1.7,1.4-4.1,1.4-4.9c0-0.9,0.6-1.9,1.2-2.1
		c0.8-0.4,0.8-0.6,0-1.3c-0.8-0.6-0.7-1.1,0.6-2.1c1-0.7,1.8-2,1.8-2.8c0-0.8,0.5-1.9,0.9-2.4c1.2-1.2,1.5-7,0.5-8.7
		c-0.6-0.8-0.4-1.1,0.6-0.7c1,0.4,1.4-0.2,1.4-2.4c0.1-1.6,0.3-5.6,0.6-9c0.4-5.1,0.3-6.3-0.8-6.3c-1.8,0-1.7-1.6,0.5-4.2
		c1-1.3,1.6-3,1.3-4.1c-0.3-1-0.1-1.8,0.4-1.8c0.5,0,0.8-0.9,0.6-2c-0.1-1.2-0.3-2.5-0.3-2.9c-0.1-0.4-0.7-0.6-1.4-0.3
		c-0.9,0.4-1.2,0.1-0.9-0.7c0.3-0.6,1.1-1.5,1.8-1.8c0.7-0.3,1.1-1.4,0.8-2.8c-0.2-1.4-0.5-3.5-0.7-4.9c-0.2-1.4,0-3.4,0.4-4.4
		c0.5-1.2,0.3-2.3-0.6-3c-1.9-1.8-1.2-5.2,1.1-5.1c1.7,0.1,1.7,0-0.4-1.7c-1.5-1.2-1.7-1.8-0.7-1.8c0.7,0,1.6-0.8,1.8-1.8
		c0.3-1,0.1-1.7-0.3-1.4c-0.5,0.3-1,0.1-1.4-0.5c-0.3-0.5,0-0.9,0.6-0.9c0.9,0,0.8-0.3-0.2-0.9c-1.1-0.7-1.1-0.9,0.3-1.5
		c1.9-0.7,2-2.2,0.1-2.2c-1.3,0-1.3-0.1,0-1.5c1.3-1.2,1.3-1.7,0.1-3.4c-1.8-2.9-1.7-3.7,0.2-4.4c1.5-0.6,1.5-0.7-0.3-0.7
		c-1.2-0.1-2.2-0.8-2.5-2c-0.5-1.6-0.3-1.7,0.8-0.7c0.7,0.6,1.6,0.8,1.9,0.5c0.3-0.3,0.1-0.6-0.5-0.6c-1.1,0-0.6-4.3,0.6-6
		c0.8-1,1-6.9,0.2-6.9c-0.3,0-0.6-1-0.6-2.3c-0.1-1.4,0.3-2.3,1.1-2.3c0.7,0,1.3-0.6,1.3-1.4s-0.5-1.4-1-1.4c-0.5,0-0.7,0.4-0.5,0.8
		c0.4,0.5-0.5,0.4-1.7-0.2c-1.5-0.7-1.9-1.3-1.2-1.8c0.8-0.6,0.8-0.7,0-0.7c-0.6,0-1.2-0.5-1.2-1c0-0.6,0.9-0.5,2.3,0.5
		c2.4,1.6,3.1,0.8,1.2-1.1c-1.3-1.3-1.8-9.4-0.6-9.4c0.5,0,0.8-0.5,0.8-1c0-0.5-0.5-0.6-1.1-0.3c-0.6,0.5-0.7,0.3-0.2-0.6
		c0.5-0.7,0.6-4.8,0.6-9c-0.3-6.5-0.6-8.1-2.2-9.5c-1.7-1.5-1.8-1.7-0.4-2.2c1.1-0.5,1.3-0.9,0.6-1.8c-0.8-1-0.6-1.1,1.1-0.7
		c1.7,0.5,1.9,0.3,1-0.7c-1.4-1.4-1.7-4-0.4-3.2c0.4,0.3,0.7-0.6,0.6-2c0-1.4,0.3-3.6,0.6-5c0.5-1.7,0.4-2.6-0.3-2.6
		c-0.6,0-0.7,0.5-0.5,0.9c0.3,0.6,0,0.9-0.7,0.9c-1.4,0-1.1-4.2,0.4-5.1c0.4-0.3,0.6-1.1,0.2-1.8c-0.3-0.8,0-1.9,0.6-2.7
		c0.8-1,0.6-1.4-0.8-1.8c-1-0.3-1.8-1-1.8-1.7c0-1,0.2-1,0.8,0.1c1.2,1.9,2.2-0.5,1-2.7c-0.7-1.4-0.7-1.8,0.2-1.8
		c0.9,0,0.8-0.3-0.1-0.8c-1-0.6-1.1-1.2-0.3-2.1c0.6-0.7,0.6-1.7,0.3-2.5c-0.4-0.6-0.6-2.7-0.4-4.4c0.2-2.1-0.1-3.7-0.8-4.1
		c-0.9-0.6-0.9-1,0.3-1.9c1.7-1.3,2.2-8.7,0.7-10.8c-0.7-1-0.8-0.6-0.6,1.7c0.3,2.3-0.1,3.3-1.5,4c-0.9,0.6-1.5,1.2-1.2,1.5
		c0.3,0.4,0.1,1.1-0.5,1.7c-0.6,0.7-0.8,1.9-0.5,2.7c0.3,0.7,0.1,1.4-0.4,1.4c-1.3,0-1.1,2.6,0.4,6.7c1.4,3.7,1.3,3.9-1.3,2.5
		c-1.5-0.8-1.7-0.7-1.2,0.6c0.5,1.2,0.3,1.4-0.6,0.8c-0.7-0.5-1-0.4-0.6,0.3c0.3,0.6,0.1,1.3-0.5,1.7c-0.8,0.5-0.7,0.9,0.2,1.7
		c1.7,1.3,1.9,4.2,0.3,3.6c-0.8-0.3-1,0.2-0.6,1.6c0.3,1.1,0.1,2.3-0.6,2.7c-0.6,0.5-1.3,2.3-1.5,4.3c-0.2,1.9-0.8,5-1.3,6.7
		c-0.6,1.7-0.9,3.3-0.8,3.7c0.3,2.4-0.4,3.9-1.5,3.5c-1.5-0.6-2.9,2.1-1.7,2.9c1.1,0.7,0.7,4.7-0.6,7.3c-0.7,1.5-0.8,2.5-0.2,3.2
		c0.9,1.2,0.1,6.6-1.4,9c-0.4,0.7-0.9,2.9-1,5c-0.4,5.4-0.5,6-1.5,6c-0.6,0-0.6,0.5-0.1,1.2c0.5,0.6,0.8,1.8,0.7,2.5
		c-0.1,0.7-0.2,1.8-0.3,2.5c0,0.6-0.7,1.8-1.6,2.5c-1.3,1.4-1.3,1.6,0,2c1.2,0.5,1.1,0.8-0.6,2.4c-1.1,1-1.4,1.5-0.6,1.1
		c1.2-0.6,1.2-0.5,0.1,0.8c-0.6,0.8-0.8,1.6-0.3,1.6c0.5,0,0.8,1.3,0.7,2.8c-0.1,1.6,0.3,2.8,0.7,2.8c0.6,0,0.6,0.3,0,0.7
		c-1,0.6-1.5,4.1-0.4,3.4c0.3-0.2,1.1,0.5,1.7,1.5c1,1.6,0.9,1.8-0.5,1.6c-1.2-0.2-1.7,0.4-1.7,2c-0.1,1.3-0.2,2.5-0.3,2.8
		c-0.3,0.5-0.8,2.8-1.4,5.3c-0.2,0.8,0.1,2.1,0.6,2.8c0.5,0.6,0.6,1.1,0.2,1.1c-0.5,0,0,0.8,0.9,1.8c1.1,1.2,1.3,1.8,0.5,1.8
		c-0.8,0-1,0.8-0.6,2.9c0.4,2,0.1,3.4-1,4.6c-1.4,1.6-1.4,1.9-0.3,2.7c1.2,0.7,1.2,1,0,2c-1.6,1.2-1.8,2.9-0.6,4
		c1.1,1.1,0.7,2.4-0.5,1.7c-0.9-0.6-0.9-0.4,0,0.7c0.6,0.7,0.8,2.1,0.6,2.9c-0.4,1-0.2,1.5,0.6,1.3c0.7-0.2,1.4,0.6,1.6,1.9
		c0.2,1.4,0,1.9-0.6,1.6c-1.1-0.7-1.2-0.6-1.3,5c0,2.9,0.3,4.1,1.1,3.9c0.7-0.1,0.9,0.2,0.5,0.9c-0.5,0.6-0.8,2.9-0.9,5.1
		s-0.5,4.3-0.8,4.9c-0.3,0.5-0.1,0.9,0.6,0.9c0.7,0,0.7,0.4-0.1,1.5c-1,1.1-1,1.4,0,1.1c0.7-0.2,1.5,0.5,1.7,1.3
		c0.2,1.3-0.1,1.5-1.3,1c-0.9-0.4-1.4-0.2-1,0.4c0.6,1,1.7,5.9,2,9.9c0.1,1.4,0.6,2.9,1,3.2c0.5,0.3,1,1.6,1.2,2.9
		c0.1,1.3,0.6,2.6,1.1,2.9c0.5,0.3,1,1.8,1.2,3.6c0.2,1.7,1,3.4,1.8,3.9c0.9,0.6,1.3,1.7,1.1,3.5c-0.2,1.8,0.1,2.8,0.8,2.8
		c0.6,0,1,1.2,0.9,3.2C9874.2,20235.7,9875.4,20235.2,9877.2,20230.7z M9660.4,20190.9c0-1.3-2.7-1.9-3.3-0.8
		c-0.4,0.6-0.3,0.7,0.4,0.4c0.6-0.4,1.1-0.2,1.1,0.3c0,0.6,0.5,1,0.9,1C9660,20191.8,9660.4,20191.4,9660.4,20190.9z
		 M9889.1,20153.3c0.3-0.5-0.1-0.8-0.8-0.8c-0.7,0-1.4,0.4-1.4,0.8c0,0.4,0.4,0.7,0.8,0.7
		C9888.3,20154,9888.8,20153.7,9889.1,20153.3z M9803.6,20075.8c-0.3-0.5-1-0.9-1.5-0.9c-0.6,0-0.6,0.5-0.4,0.9
		c0.3,0.6,1,0.9,1.5,0.9C9803.7,20076.7,9803.8,20076.3,9803.6,20075.8z M9922.5,19957.7c-0.3-0.7-0.6-0.5-0.6,0.6
		c-0.1,1,0.2,1.6,0.5,1.2C9922.7,19959.2,9922.8,19958.4,9922.5,19957.7z"/>
	<path d="M9651.8,20451.3c0.6-0.6,1.4-0.9,1.7-0.6c0.3,0.3-0.2,0.8-1.1,1.1C9651.1,20452.3,9651,20452.2,9651.8,20451.3z"/>
	<path d="M9889.9,20405.8c0-0.7,0.4-1.1,0.8-0.8c0.5,0.3,0.6,0.9,0.3,1.4C9890.2,20407.6,9889.9,20407.4,9889.9,20405.8z"/>
	<path d="M9886.4,20353.9c0.3-0.5-0.1-1.1-0.6-1.3c-0.6-0.3-0.3-0.6,0.9-0.6c2.3-0.1,2.8,1.3,0.6,2.1
		C9886.5,20354.5,9886.1,20354.4,9886.4,20353.9z"/>
	<path d="M9794.8,20144.8c0-0.5,0.5-0.9,1-0.9c0.5,0,0.6,0.5,0.4,0.9c-0.3,0.6-0.7,0.9-1,0.9
		C9795,20145.7,9794.8,20145.4,9794.8,20144.8z"/>
	<path d="M9886.9,20134.1c0-0.7,0.5-1.1,0.9-0.8c0.6,0.4,0.7,1,0.5,1.5C9887.4,20136.1,9886.9,20135.8,9886.9,20134.1z"/>
	<path d="M9783.8,20870.3c0-0.5,0.5-0.6,0.9-0.4c0.6,0.3,0.9,0.7,0.9,1c0,0.2-0.4,0.4-0.9,0.4
		C9784.2,20871.3,9783.8,20870.8,9783.8,20870.3z"/>
	<path d="M9622.4,20371.6c-0.4-0.3-0.6-1-0.6-1.6s0.5-0.5,1.1,0.2c0.6,0.6,0.8,1.3,0.6,1.6
		C9623.2,20372.1,9622.6,20372,9622.4,20371.6z"/>
	<path d="M9897,20330.7c0-0.5,0.5-0.6,0.9-0.4c0.6,0.3,0.9,0.7,0.9,1c0,0.2-0.4,0.4-0.9,0.4
		C9897.5,20331.7,9897,20331.3,9897,20330.7z"/>
	<path d="M9883.8,20263c-0.5-1.3-0.4-1.4,0.8-0.4c1.6,1.3,1.7,1.8,0.6,1.8C9884.7,20264.5,9884,20263.9,9883.8,20263z"/>
	<path d="M9900.7,20161.3c0-0.5,0.5-0.6,0.9-0.4c0.6,0.3,0.9,0.7,0.9,1c0,0.2-0.4,0.4-0.9,0.4
		C9901.2,20162.3,9900.7,20161.8,9900.7,20161.3z"/>
	<path d="M9846,20154.4c-0.3-0.7,0.3-1.1,1.3-1c0.9,0.1,1.6,0.4,1.3,0.7c-0.2,0.4,0.2,0.8,0.7,1.1c0.6,0.3,0.3,0.4-0.8,0.4
		C9847.4,20155.5,9846.2,20154.9,9846,20154.4z"/>
	<path d="M10094.1,20096.1c-0.7-0.5-1.5-1.8-1.6-3c-0.2-1.2,0-1.6,0.2-1c0.3,0.6,0.5,1.4,0.4,1.8c-0.1,0.3,0.6,1.1,1.6,1.8
		C10096.5,20097,10096.2,20097.4,10094.1,20096.1z"/>
	<path d="M10089.6,20089.8c-1-1-1-1.6-0.1-2.7c1.2-1.5,2.9-0.6,3.2,1.8C10093,20090.9,10091,20091.4,10089.6,20089.8z"/>
	<path d="M9792,20065.6c0-0.5,0.5-0.9,0.9-0.9c0.6,0,0.9,0.5,0.9,0.9c0,0.6-0.4,0.9-0.9,0.9
		C9792.5,20066.5,9792,20066.2,9792,20065.6z"/>
</g>
</svg>
