<?xml version="1.0" encoding="UTF-8"?>
<!-- Generator: Adobe Illustrator 28.2.0, SVG Export Plug-In . SVG Version: 6.00 Build 0)  -->
<svg version="1.1" id="Layer_1" xmlns="http://www.w3.org/2000/svg" xmlns:xlink="http://www.w3.org/1999/xlink" x="0px" y="0px" viewBox="0 0 1024 1024" style="enable-background:new 0 0 1024 1024;" xml:space="preserve">
<style type="text/css">
	.st0{fill-rule:evenodd;clip-rule:evenodd;fill:none;}
	.st1{fill-rule:evenodd;clip-rule:evenodd;fill:#072835;}
</style>
<g>
	<path class="st0" d="M3.4,3.3c2.6-3,9-3.2,13.7-3.2c334,3.2,671.2-6.2,1003.7,3.2c9.4,333.4,0.1,671.5,3.2,1006.3   c-0.2,9.8-3.4,14.6-14.4,14.4c-334.8-3.2-672.9,6.2-1006.3-3.2c-9.4-332.4,0-669.6-3.2-1003.6c0-4.7,0.2-11.1,3.2-13.7L3.4,3.3z"/>
</g>
<g>
	<path class="st1" d="M509.6,586.5c25.8-1.2,43.7,16.1,41.8,42.1c-5.9,48.7-76.4,44-76.1-4.7c0.2-18.8,15.1-35.7,34.1-37.4   L509.6,586.5z" style="stroke: black; stroke-width: 2px;"/>
</g>
</svg>