<?xml version="1.0" encoding="UTF-8"?>
<!-- Generator: Adobe Illustrator 28.2.0, SVG Export Plug-In . SVG Version: 6.00 Build 0)  -->
<svg version="1.1" id="Layer_1" xmlns="http://www.w3.org/2000/svg" xmlns:xlink="http://www.w3.org/1999/xlink" x="0px" y="0px" viewBox="0 0 1024 1024" style="enable-background:new 0 0 1024 1024;" xml:space="preserve">
<style type="text/css">
	.st0{fill-rule:evenodd;clip-rule:evenodd;fill:none;}
	.st1{fill-rule:evenodd;clip-rule:evenodd;fill:#fae4c3;}
	.st2{fill-rule:evenodd;clip-rule:evenodd;fill:#fcc488;}
</style>
<g>
	<path class="st0" d="M2.8,2.7c2.6-3,9-3.2,13.7-3.2c334,3.2,671.2-6.2,1003.7,3.2c9.4,333.4,0.1,671.5,3.2,1006.3   c-0.2,9.8-3.4,14.6-14.4,14.4c-334.8-3.2-672.9,6.2-1006.3-3.2C-6.7,687.7,2.7,350.5-0.5,16.5c0-4.7,0.2-11.1,3.2-13.7L2.8,2.7z"/>
</g>
<g>
	<path class="st1" d="M470,259.1c5.4-1.7,32.8-0.4,32.2,6.2c-24.1,8.8-43.2,17-55.7,41.7c-13.7,27.4-8.4,63.4,11.8,83.3   c13,13.9,34.7,21.1,43.8,39c5.5,8.5,9.4,18.1,9.7,28.3c0.7,37.7,0.8,75.5,0,113.3c-0.4,13.5-16.1,13.4-26.4,16.4   c-7,1.2-7.8-5.5-7.7-10.7c-0.3-35.8-0.5-71.6-0.8-107.3c1.1-20.7-10.6-40-23.7-55.1c-13.5-10.9-26.6-22.5-40.8-32.3   c-14.1-8.5-31.4-9.8-47.5-9.3c-7.1-0.1-18,1.9-24,0.3c-6.6-3.3,12.2-9.1,14.4-10.9c9.1-4.3,17.1-11,26.5-13.7   c8.4-2.2,19.9-1.5,21.4-12.6c5.5-36.6,29.9-66.7,66.6-76.4L470,259.1z" style="stroke: black; stroke-width: 2px;"/>
</g>
<g>
	<path class="st2" d="M684.7,369.3c-5.2,3.4-14.8,2-21.2,3.3c-26.6,2.7-53.4,10.3-73.9,28c-17.2,15.7-41.2,34-40.3,59.6   c-0.5,40.9-0.1,81.9-1.7,122.7c-1.1,8.5-9.7,4.2-14.9,2.7c-5.1-1.5-10.8-2-14.3-4.4c-3.2-2.1-4.3-5.2-4.6-9.3   c-0.6-37.9,0.1-75.9,1.1-113.8c0.1-9.1,1.7-18.2,6.4-26.1c11.6-22.2,39.2-28.9,51.9-50.5c21.2-33.3,15.9-77.4-19.3-101.1   c-5.5-4-11.9-7.3-18.1-9.8c-7.1-2.5-9.3-6.4-1.1-8.4c31.5-7.5,62.5,11.5,76.7,38.8c3.9,7,6.8,14.6,8.2,22.6   c1.4,5.9,0.5,13.7,4,18.7c4.5,5.8,13.1,4.1,19.4,6.5c9.2,2.8,17.7,8.3,26.6,12.2C674.1,363.6,681.8,365.1,684.7,369.3L684.7,369.3z   " style="stroke: black; stroke-width: 2px;"/>
</g>
<g>
	<path class="st1" d="M477.8,591.8c3.6-0.2-1.8,7-2.7,8.5c-15.7,21.6-4,53.3,20.3,62.7c17.4,7.3,39.2,2.3,51.9-11.6   c10.4-11.2,13.5-28.8,8.1-43.1c-1.3-3.5-3.2-6.6-5.3-9.5c-0.9-1.5-4.8-6.5-2.6-6.4c1.5,0.2,4,1.6,5.7,2.7   c12.4,8.6,21.7,20,26.5,32.5c17,47.9-13.6,99.4-66.8,100.3c-38,1.6-67.7-27.9-71.3-64.7c-3.7-27.5,7.3-51.7,30.7-68.8   C474.5,593,476.5,592,477.8,591.8L477.8,591.8z" style="stroke: black; stroke-width: 2px;"/>
</g>
</svg>